<svg xmlns="http://www.w3.org/2000/svg" xmlns:xlink="http://www.w3.org/1999/xlink" width="640" zoomAndPan="magnify" viewBox="0 0 480 435.749989" height="581" preserveAspectRatio="xMidYMid meet" version="1.0"><defs><clipPath id="6cde81a733"><path d="M 2 360 L 93 360 L 93 429 L 2 429 Z M 2 360 " clip-rule="nonzero"/></clipPath><clipPath id="69ccf11d96"><path d="M 11.621094 354.476562 L 97.285156 369.390625 L 85.839844 435.113281 L 0.179688 420.199219 Z M 11.621094 354.476562 " clip-rule="nonzero"/></clipPath><clipPath id="390c1901bc"><path d="M 11.621094 354.476562 L 97.285156 369.390625 L 85.839844 435.113281 L 0.179688 420.199219 Z M 11.621094 354.476562 " clip-rule="nonzero"/></clipPath><clipPath id="f07258295c"><path d="M 34 368 L 63 368 L 63 383 L 34 383 Z M 34 368 " clip-rule="nonzero"/></clipPath><clipPath id="e783adba8d"><path d="M 11.621094 354.476562 L 97.285156 369.390625 L 85.839844 435.113281 L 0.179688 420.199219 Z M 11.621094 354.476562 " clip-rule="nonzero"/></clipPath><clipPath id="375ddb2bde"><path d="M 11.621094 354.476562 L 97.285156 369.390625 L 85.839844 435.113281 L 0.179688 420.199219 Z M 11.621094 354.476562 " clip-rule="nonzero"/></clipPath><clipPath id="ef15393412"><path d="M 407 3 L 477 3 L 477 73 L 407 73 Z M 407 3 " clip-rule="nonzero"/></clipPath><clipPath id="b16c467789"><path d="M 473.304688 0 L 479.277344 70.957031 L 411.304688 76.675781 L 405.332031 5.71875 Z M 473.304688 0 " clip-rule="nonzero"/></clipPath><clipPath id="a83f80f4ad"><path d="M 473.304688 0 L 479.277344 70.957031 L 411.304688 76.675781 L 405.332031 5.71875 Z M 473.304688 0 " clip-rule="nonzero"/></clipPath><clipPath id="60de03509e"><path d="M 444 36 L 448 36 L 448 39 L 444 39 Z M 444 36 " clip-rule="nonzero"/></clipPath><clipPath id="5de126c22a"><path d="M 473.304688 0 L 479.277344 70.957031 L 411.304688 76.675781 L 405.332031 5.71875 Z M 473.304688 0 " clip-rule="nonzero"/></clipPath><clipPath id="9242578cf6"><path d="M 473.304688 0 L 479.277344 70.957031 L 411.304688 76.675781 L 405.332031 5.71875 Z M 473.304688 0 " clip-rule="nonzero"/></clipPath><clipPath id="8bbb0ac54b"><path d="M 456 50 L 459 50 L 459 51 L 456 51 Z M 456 50 " clip-rule="nonzero"/></clipPath><clipPath id="8d1ef57202"><path d="M 473.304688 0 L 479.277344 70.957031 L 411.304688 76.675781 L 405.332031 5.71875 Z M 473.304688 0 " clip-rule="nonzero"/></clipPath><clipPath id="15e158b78d"><path d="M 473.304688 0 L 479.277344 70.957031 L 411.304688 76.675781 L 405.332031 5.71875 Z M 473.304688 0 " clip-rule="nonzero"/></clipPath></defs><g clip-path="url(#6cde81a733)"><g clip-path="url(#69ccf11d96)"><g clip-path="url(#390c1901bc)"><path fill="#ad3bce" d="M 82.472656 380.640625 C 81.210938 380.546875 80.050781 380.957031 78.828125 380.964844 C 80.324219 377.742188 78.285156 374.433594 76.011719 372.160156 C 65.8125 361.953125 38.230469 357.261719 24.875 362.1875 C 22.21875 363.164062 18.695312 365.101562 17.871094 368.011719 C 16.722656 372.089844 16.390625 379.34375 16.453125 383.679688 C 16.503906 387.425781 17.121094 391.054688 17.90625 394.695312 C 12.523438 395.285156 3.117188 398.433594 2.902344 404.933594 C 2.742188 409.90625 7.984375 414.582031 11.792969 417.105469 C 26.558594 426.886719 54.089844 431.730469 71.089844 426.371094 C 77.578125 424.328125 84.671875 419.28125 79.855469 411.753906 C 79.316406 410.917969 78.574219 410.324219 77.933594 409.589844 C 77.742188 409.363281 77.761719 409.378906 77.867188 409.074219 C 82.738281 407.859375 87.714844 404.828125 90.316406 400.421875 C 95.15625 392.203125 93.421875 381.4375 82.472656 380.640625 Z M 23.332031 365.050781 C 30.421875 361.195312 44.246094 361.910156 52 363.496094 C 59.265625 364.984375 70.695312 368.664062 75.511719 374.605469 C 78.945312 378.835938 77.222656 381.71875 72.675781 383.683594 C 72.398438 383.804688 70.992188 384.390625 70.875 384.246094 C 75.554688 380.757812 73.519531 376.105469 69.535156 373.152344 C 60.730469 366.628906 39.109375 362.871094 28.628906 366.03125 C 24.925781 367.148438 21.488281 369.773438 22.914062 374.109375 L 23.738281 376.039062 C 19.324219 372.539062 17.34375 368.304688 23.332031 365.050781 Z M 76.976562 389.5 C 79.871094 387.738281 85.527344 387.039062 85.695312 391.738281 C 85.796875 394.617188 84.253906 396.929688 82.304688 398.863281 C 79.265625 401.875 75.125 403.140625 70.863281 402.6875 C 73.554688 398.617188 75.289062 394.058594 76.976562 389.5 Z M 71.109375 381.164062 C 69.441406 384.105469 64.023438 385.117188 60.894531 385.398438 C 51.648438 386.222656 32.332031 383.054688 26.011719 375.699219 C 21.769531 370.773438 27.023438 368.183594 31.453125 367.367188 C 37.066406 366.328125 42.796875 366.941406 48.382812 367.621094 C 51.625 368.019531 61.226562 370.363281 66.425781 373.457031 C 68.902344 374.925781 72.976562 377.867188 71.109375 381.164062 Z M 18.785156 374.078125 C 18.808594 373.921875 18.785156 373.671875 18.96875 373.738281 C 21.59375 378.003906 26.585938 380.355469 31.101562 382.171875 C 41.539062 386.367188 54.964844 388.566406 66.175781 387.246094 C 69.738281 386.824219 73.347656 386.019531 76.332031 383.972656 C 75.347656 388.683594 73.730469 393.539062 71.53125 397.828125 C 64.476562 411.589844 51.257812 418.910156 36.015625 413.265625 C 20.679688 407.585938 16.46875 388.695312 18.785156 374.078125 Z M 55.378906 417.445312 C 48.769531 421.101562 32.382812 418 27.265625 412.507812 C 26.445312 411.628906 25.816406 410.65625 26.523438 409.472656 C 34.253906 416.886719 47.382812 419.113281 57.191406 414.8125 C 57.195312 416.261719 56.546875 416.796875 55.378906 417.445312 Z M 76.265625 421.828125 C 69.167969 427.105469 52.335938 427.132812 43.816406 426.015625 C 33.402344 424.65625 11.039062 418.546875 5.796875 408.550781 C 2.183594 401.660156 10.214844 398.214844 15.621094 396.960938 C 16.140625 396.839844 17.609375 396.480469 18.015625 396.472656 C 18.15625 396.46875 18.289062 396.453125 18.417969 396.523438 C 19.421875 398.773438 20.269531 401.175781 21.570312 403.324219 C 22.144531 404.273438 24.207031 406.660156 24.425781 407.386719 C 24.628906 408.058594 24.109375 409.375 24.148438 410.304688 C 24.363281 415.171875 34.007812 418.882812 37.992188 419.832031 C 43 421.027344 54.921875 422.054688 58.511719 417.429688 C 59.5 416.152344 59.152344 414.347656 59.75 413.539062 C 60.125 413.039062 61.832031 412.308594 62.515625 411.8125 C 62.972656 411.484375 64.867188 409.632812 65.144531 409.59375 L 69.4375 410.039062 L 75.316406 409.722656 C 79.527344 413.339844 81.519531 417.921875 76.265625 421.828125 Z M 88.808594 399.171875 C 84.546875 406.355469 74.671875 409.230469 66.761719 407.871094 L 69.550781 404.539062 C 75.21875 405.300781 80.890625 403.585938 84.617188 399.164062 C 90.5625 392.09375 87.242188 383.445312 77.507812 387.125 L 78.476562 383.148438 C 83.660156 381.417969 89.933594 383.785156 90.863281 389.5625 C 91.332031 392.46875 90.316406 396.632812 88.808594 399.171875 Z M 88.808594 399.171875 " fill-opacity="1" fill-rule="nonzero"/></g></g></g><g clip-path="url(#f07258295c)"><g clip-path="url(#e783adba8d)"><g clip-path="url(#375ddb2bde)"><path fill="#ad3bce" d="M 58.308594 372.042969 C 55.167969 371.042969 51.328125 370.960938 48.585938 372.980469 C 47.96875 372.515625 47.546875 371.828125 46.898438 371.269531 C 44.996094 369.636719 42.058594 368.859375 39.570312 368.78125 C 36.46875 368.683594 33.398438 370.929688 34.871094 374.285156 C 35.996094 376.847656 40.84375 379.109375 43.238281 380.546875 C 44.625 381.378906 46.105469 383.007812 47.773438 382.820312 C 48.226562 382.765625 48.8125 382.453125 49.324219 382.347656 C 52.328125 381.734375 58.195312 381.027344 60.539062 379.238281 C 63.917969 376.660156 61.632812 373.101562 58.308594 372.042969 Z M 60.125 376.84375 C 59.40625 379.121094 50.0625 380.019531 47.867188 380.875 L 47.3125 381.140625 C 44.59375 378.976562 40.542969 377.300781 37.972656 375.039062 C 34.875 372.304688 37.171875 370.496094 40.476562 370.667969 C 42.457031 370.773438 45.40625 371.921875 46.546875 373.617188 C 46.800781 373.996094 46.921875 374.417969 47.046875 374.828125 C 47.269531 375.566406 48.167969 375.839844 48.765625 375.351562 C 49.332031 374.886719 49.945312 374.324219 50.253906 374.144531 C 52.441406 372.859375 55.695312 372.949219 57.980469 373.957031 C 59.085938 374.445312 60.582031 375.40625 60.128906 376.84375 Z M 60.125 376.84375 " fill-opacity="1" fill-rule="nonzero"/></g></g></g><g clip-path="url(#ef15393412)"><g clip-path="url(#b16c467789)"><g clip-path="url(#a83f80f4ad)"><path fill="#ad3bce" d="M 429.878906 32.015625 C 427.414062 31.417969 424.890625 31.210938 423.15625 29.332031 C 422.671875 28.808594 422.082031 28.328125 421.28125 28.46875 C 419.128906 28.851562 417.242188 28.09375 415.210938 27.65625 C 413.175781 27.21875 406.496094 27.195312 407.175781 22.109375 C 407.695312 18.226562 411.140625 15.246094 414.167969 13.140625 C 414.832031 12.679688 415.1875 11.871094 415.605469 11.230469 C 419.226562 5.691406 428.472656 6.164062 430.453125 5.429688 C 433.359375 4.347656 435.566406 2.585938 439.074219 3.125 C 443.148438 3.746094 447.015625 5.195312 450.765625 6.980469 C 458.726562 5.511719 464.785156 11.074219 469.5625 16.902344 C 476.070312 24.839844 473.367188 30.277344 473.621094 31.070312 L 476.300781 39.363281 C 477.039062 41.652344 477.613281 46.976562 475.128906 49.007812 C 473.785156 50.105469 475.828125 54.050781 473.953125 59.902344 C 473.609375 60.984375 473.207031 62.230469 472.363281 62.90625 L 470.085938 64.734375 C 468.359375 68.203125 464.460938 73.886719 460.28125 72.621094 C 459.332031 72.335938 458.226562 71.386719 457.578125 70.109375 C 455.878906 66.75 456.433594 64.433594 455.625 61.226562 C 453.074219 59 452.703125 57.40625 452 53.992188 C 449.707031 53.003906 448.054688 51.289062 446.84375 49.074219 C 445.449219 46.527344 444.339844 48.621094 441.003906 45.578125 C 435.960938 40.980469 438.296875 39.597656 435.902344 38.238281 C 433.121094 36.664062 431.054688 35.117188 429.878906 32.015625 Z M 474.65625 44.535156 C 472.285156 47.019531 466.230469 49.601562 463.179688 49.433594 C 465.777344 47.921875 475.257812 45.273438 474.644531 41.53125 C 474.171875 38.65625 473.304688 36.019531 472.003906 33.382812 C 471.308594 33.800781 471.105469 34.53125 470.53125 35.144531 C 464.660156 41.414062 457.105469 45.640625 448.476562 47.542969 C 449.023438 49.097656 450.074219 50.449219 451.46875 51.386719 C 454.988281 53.757812 463.691406 51.863281 467.714844 50.601562 C 470.269531 49.804688 475.835938 48.257812 474.65625 44.535156 Z M 453.316406 30.367188 C 456.851562 25.605469 458.847656 19.210938 457.726562 13.503906 C 457.425781 11.976562 456.953125 10.253906 455.804688 9.199219 C 455.011719 8.472656 453.589844 8.761719 452.695312 8.945312 C 455.722656 13.757812 455.324219 19.335938 453.402344 24.128906 C 450.867188 30.457031 445.28125 35.796875 438.925781 38.855469 C 439.742188 41.863281 441.941406 44.339844 444.828125 45.527344 C 445.867188 45.957031 447.222656 45.796875 448.378906 45.535156 C 456.664062 43.644531 466.058594 38.738281 470.730469 31.570312 C 472.191406 29.332031 472.496094 26.613281 471.257812 24.15625 C 470.292969 28.191406 468.386719 31.65625 465.429688 34.542969 C 462.84375 37.066406 456.800781 41.519531 453.066406 41.820312 C 458.429688 38.960938 465.203125 34.652344 468.1875 28.96875 C 469.332031 26.792969 470.511719 24.394531 470.222656 21.863281 C 469.988281 19.789062 464.9375 14.644531 463.152344 13.074219 C 461.492188 11.617188 459.730469 10.433594 457.601562 9.503906 C 461.058594 16.710938 458.519531 26.867188 452.789062 32.097656 C 452.496094 31.484375 452.894531 30.9375 453.316406 30.371094 Z M 469.882812 62.546875 C 470.828125 62.21875 471.425781 60.921875 471.621094 60.179688 C 468.351562 60.480469 465.203125 60.6875 462.28125 59.375 C 465.828125 58.753906 468.363281 60.164062 472.25 58.773438 C 472.96875 56.15625 473.039062 53.480469 472.6875 50.796875 C 466.875 53.300781 460.207031 54.828125 454.226562 54.398438 C 454.542969 57.464844 455.820312 59.699219 458.785156 60.480469 C 462.40625 61.429688 465.933594 62.652344 469.882812 62.546875 Z M 462.414062 70.671875 C 464.964844 69.726562 466.863281 66.835938 467.949219 64.433594 C 464.546875 63.960938 461.519531 63.332031 458.011719 62.238281 C 457.835938 64.160156 458.4375 72.144531 462.414062 70.667969 Z M 432.953125 6.648438 C 439.769531 11.390625 439.527344 20.386719 435.820312 26.714844 C 434.808594 28.4375 433.503906 29.738281 432.265625 31.277344 C 431.542969 33.507812 436.1875 36.125 437.871094 37.128906 C 446.65625 33.4375 455.449219 22.597656 452.320312 12.617188 C 451.683594 10.582031 450.410156 9.050781 448.515625 8.140625 C 446.226562 7.042969 439.320312 4.335938 436.847656 5.414062 C 443.542969 10.738281 443.761719 21.71875 438.382812 28.066406 C 439.226562 24.890625 440.65625 22.300781 440.925781 19.140625 C 441.335938 14.296875 439.851562 9.617188 436.394531 6.210938 C 435.191406 5.027344 434.023438 5.605469 432.953125 6.648438 Z M 417.328125 12.628906 C 423.886719 13.953125 426.035156 20.957031 424.390625 26.542969 C 423.664062 29.011719 429.042969 29.988281 430.667969 29.914062 C 436.460938 24.902344 439.066406 14.816406 432.835938 8.980469 C 431.238281 6.539062 422.496094 8.316406 420.125 9.886719 C 424.820312 11.429688 428.753906 17.101562 427.46875 21.46875 L 425.933594 16.785156 C 425.058594 14.121094 418.636719 8.117188 417.328125 12.628906 Z M 413.664062 20.320312 C 416.058594 20.796875 416.542969 23.117188 416.898438 25 C 416.265625 26.859375 421.4375 26.617188 422.359375 26.398438 C 423.945312 22.058594 422.566406 16.332031 417.621094 14.703125 C 416.332031 14.277344 415.355469 14.582031 414.3125 15.410156 C 412.28125 17.023438 410.335938 18.871094 409.410156 21.324219 C 408.8125 22.914062 409.53125 24.335938 411.097656 24.796875 C 412.585938 25.234375 414.113281 25.496094 415.746094 25.464844 C 416.148438 23.332031 414.910156 21.886719 413.664062 20.320312 Z M 413.664062 20.320312 " fill-opacity="1" fill-rule="nonzero"/></g></g></g><g clip-path="url(#60de03509e)"><g clip-path="url(#5de126c22a)"><g clip-path="url(#9242578cf6)"><path fill="#ad3bce" d="M 447.6875 36.417969 C 448.195312 36.679688 444.558594 39.230469 444.96875 38.074219 C 445.730469 37.378906 446.613281 36.800781 447.6875 36.417969 Z M 447.6875 36.417969 " fill-opacity="1" fill-rule="nonzero"/></g></g></g><g clip-path="url(#8bbb0ac54b)"><g clip-path="url(#8d1ef57202)"><g clip-path="url(#15e158b78d)"><path fill="#ad3bce" d="M 456.210938 50.722656 C 456.90625 50.351562 457.695312 50.3125 458.625 50.492188 C 457.925781 50.867188 457.136719 50.90625 456.210938 50.722656 Z M 456.210938 50.722656 " fill-opacity="1" fill-rule="nonzero"/></g></g></g></svg>