<svg xmlns="http://www.w3.org/2000/svg" xmlns:xlink="http://www.w3.org/1999/xlink" width="317" zoomAndPan="magnify" viewBox="0 0 237.75 581.249982" height="775" preserveAspectRatio="xMidYMid meet" version="1.0"><defs><clipPath id="9fb6435001"><path d="M 57 21 L 96 21 L 96 59 L 57 59 Z M 57 21 " clip-rule="nonzero"/></clipPath><clipPath id="f3d7664049"><path d="M 52.730469 28.761719 L 118.652344 0.0429688 L 153.953125 81.070312 L 88.03125 109.792969 Z M 52.730469 28.761719 " clip-rule="nonzero"/></clipPath><clipPath id="1445389854"><path d="M 52.730469 28.761719 L 118.652344 0.0429688 L 153.953125 81.070312 L 88.03125 109.792969 Z M 52.730469 28.761719 " clip-rule="nonzero"/></clipPath><clipPath id="6efbaa12cf"><path d="M 62 27 L 90 27 L 90 55 L 62 55 Z M 62 27 " clip-rule="nonzero"/></clipPath><clipPath id="567edc1e9e"><path d="M 52.730469 28.761719 L 118.652344 0.0429688 L 153.953125 81.070312 L 88.03125 109.792969 Z M 52.730469 28.761719 " clip-rule="nonzero"/></clipPath><clipPath id="95c329ebcb"><path d="M 52.730469 28.761719 L 118.652344 0.0429688 L 153.953125 81.070312 L 88.03125 109.792969 Z M 52.730469 28.761719 " clip-rule="nonzero"/></clipPath><clipPath id="8a8d6553af"><path d="M 62 26 L 90 26 L 90 56 L 62 56 Z M 62 26 " clip-rule="nonzero"/></clipPath><clipPath id="0b37c3cd5c"><path d="M 52.730469 28.761719 L 118.652344 0.0429688 L 153.953125 81.070312 L 88.03125 109.792969 Z M 52.730469 28.761719 " clip-rule="nonzero"/></clipPath><clipPath id="06ad01e572"><path d="M 52.730469 28.761719 L 118.652344 0.0429688 L 153.953125 81.070312 L 88.03125 109.792969 Z M 52.730469 28.761719 " clip-rule="nonzero"/></clipPath><clipPath id="1517198c90"><path d="M 102 19 L 133 19 L 133 66 L 102 66 Z M 102 19 " clip-rule="nonzero"/></clipPath><clipPath id="fea6a4acb3"><path d="M 52.730469 28.761719 L 118.652344 0.0429688 L 153.953125 81.070312 L 88.03125 109.792969 Z M 52.730469 28.761719 " clip-rule="nonzero"/></clipPath><clipPath id="ca35ff2113"><path d="M 52.730469 28.761719 L 118.652344 0.0429688 L 153.953125 81.070312 L 88.03125 109.792969 Z M 52.730469 28.761719 " clip-rule="nonzero"/></clipPath><clipPath id="1278c89cab"><path d="M 108 20 L 123 20 L 123 64 L 108 64 Z M 108 20 " clip-rule="nonzero"/></clipPath><clipPath id="b2ada5831e"><path d="M 52.730469 28.761719 L 118.652344 0.0429688 L 153.953125 81.070312 L 88.03125 109.792969 Z M 52.730469 28.761719 " clip-rule="nonzero"/></clipPath><clipPath id="cade338b39"><path d="M 52.730469 28.761719 L 118.652344 0.0429688 L 153.953125 81.070312 L 88.03125 109.792969 Z M 52.730469 28.761719 " clip-rule="nonzero"/></clipPath><clipPath id="608e5f4c49"><path d="M 109 20 L 124 20 L 124 64 L 109 64 Z M 109 20 " clip-rule="nonzero"/></clipPath><clipPath id="002eee66aa"><path d="M 52.730469 28.761719 L 118.652344 0.0429688 L 153.953125 81.070312 L 88.03125 109.792969 Z M 52.730469 28.761719 " clip-rule="nonzero"/></clipPath><clipPath id="4d3aa1d647"><path d="M 52.730469 28.761719 L 118.652344 0.0429688 L 153.953125 81.070312 L 88.03125 109.792969 Z M 52.730469 28.761719 " clip-rule="nonzero"/></clipPath><clipPath id="5d98769096"><path d="M 81 65 L 117 65 L 117 103 L 81 103 Z M 81 65 " clip-rule="nonzero"/></clipPath><clipPath id="39f03a2e38"><path d="M 52.730469 28.761719 L 118.652344 0.0429688 L 153.953125 81.070312 L 88.03125 109.792969 Z M 52.730469 28.761719 " clip-rule="nonzero"/></clipPath><clipPath id="f2747dea60"><path d="M 52.730469 28.761719 L 118.652344 0.0429688 L 153.953125 81.070312 L 88.03125 109.792969 Z M 52.730469 28.761719 " clip-rule="nonzero"/></clipPath><clipPath id="ccc8cb6bab"><path d="M 85 71 L 115 71 L 115 97 L 85 97 Z M 85 71 " clip-rule="nonzero"/></clipPath><clipPath id="9b5c8efa84"><path d="M 52.730469 28.761719 L 118.652344 0.0429688 L 153.953125 81.070312 L 88.03125 109.792969 Z M 52.730469 28.761719 " clip-rule="nonzero"/></clipPath><clipPath id="72bc3fb05d"><path d="M 52.730469 28.761719 L 118.652344 0.0429688 L 153.953125 81.070312 L 88.03125 109.792969 Z M 52.730469 28.761719 " clip-rule="nonzero"/></clipPath><clipPath id="d0abffaed1"><path d="M 86 71 L 115 71 L 115 95 L 86 95 Z M 86 71 " clip-rule="nonzero"/></clipPath><clipPath id="1cca098f65"><path d="M 52.730469 28.761719 L 118.652344 0.0429688 L 153.953125 81.070312 L 88.03125 109.792969 Z M 52.730469 28.761719 " clip-rule="nonzero"/></clipPath><clipPath id="6cb2dcdc83"><path d="M 52.730469 28.761719 L 118.652344 0.0429688 L 153.953125 81.070312 L 88.03125 109.792969 Z M 52.730469 28.761719 " clip-rule="nonzero"/></clipPath><clipPath id="6508116586"><path d="M 182 274 L 220 274 L 220 312 L 182 312 Z M 182 274 " clip-rule="nonzero"/></clipPath><clipPath id="e922c1b9ff"><path d="M 214.714844 270.546875 L 236.976562 338.921875 L 152.929688 366.28125 L 130.671875 297.90625 Z M 214.714844 270.546875 " clip-rule="nonzero"/></clipPath><clipPath id="a82f4c4e12"><path d="M 214.714844 270.546875 L 236.976562 338.921875 L 152.929688 366.28125 L 130.671875 297.90625 Z M 214.714844 270.546875 " clip-rule="nonzero"/></clipPath><clipPath id="0bafdc87dd"><path d="M 185 280 L 216 280 L 216 305 L 185 305 Z M 185 280 " clip-rule="nonzero"/></clipPath><clipPath id="dc4c2ff989"><path d="M 214.714844 270.546875 L 236.976562 338.921875 L 152.929688 366.28125 L 130.671875 297.90625 Z M 214.714844 270.546875 " clip-rule="nonzero"/></clipPath><clipPath id="a61a2f7384"><path d="M 214.714844 270.546875 L 236.976562 338.921875 L 152.929688 366.28125 L 130.671875 297.90625 Z M 214.714844 270.546875 " clip-rule="nonzero"/></clipPath><clipPath id="f90d841cd6"><path d="M 184 280 L 216 280 L 216 305 L 184 305 Z M 184 280 " clip-rule="nonzero"/></clipPath><clipPath id="5b7cf97ced"><path d="M 214.714844 270.546875 L 236.976562 338.921875 L 152.929688 366.28125 L 130.671875 297.90625 Z M 214.714844 270.546875 " clip-rule="nonzero"/></clipPath><clipPath id="c6af65d08a"><path d="M 214.714844 270.546875 L 236.976562 338.921875 L 152.929688 366.28125 L 130.671875 297.90625 Z M 214.714844 270.546875 " clip-rule="nonzero"/></clipPath><clipPath id="8c5878287a"><path d="M 172 318 L 218 318 L 218 350 L 172 350 Z M 172 318 " clip-rule="nonzero"/></clipPath><clipPath id="6c59524b86"><path d="M 214.714844 270.546875 L 236.976562 338.921875 L 152.929688 366.28125 L 130.671875 297.90625 Z M 214.714844 270.546875 " clip-rule="nonzero"/></clipPath><clipPath id="c0c85a6382"><path d="M 214.714844 270.546875 L 236.976562 338.921875 L 152.929688 366.28125 L 130.671875 297.90625 Z M 214.714844 270.546875 " clip-rule="nonzero"/></clipPath><clipPath id="7ebb1a532f"><path d="M 175 322 L 217 322 L 217 341 L 175 341 Z M 175 322 " clip-rule="nonzero"/></clipPath><clipPath id="7bdc2013c6"><path d="M 214.714844 270.546875 L 236.976562 338.921875 L 152.929688 366.28125 L 130.671875 297.90625 Z M 214.714844 270.546875 " clip-rule="nonzero"/></clipPath><clipPath id="fcfff473f6"><path d="M 214.714844 270.546875 L 236.976562 338.921875 L 152.929688 366.28125 L 130.671875 297.90625 Z M 214.714844 270.546875 " clip-rule="nonzero"/></clipPath><clipPath id="8922b8c824"><path d="M 174 324 L 217 324 L 217 343 L 174 343 Z M 174 324 " clip-rule="nonzero"/></clipPath><clipPath id="7cea45a664"><path d="M 214.714844 270.546875 L 236.976562 338.921875 L 152.929688 366.28125 L 130.671875 297.90625 Z M 214.714844 270.546875 " clip-rule="nonzero"/></clipPath><clipPath id="8b180956e1"><path d="M 214.714844 270.546875 L 236.976562 338.921875 L 152.929688 366.28125 L 130.671875 297.90625 Z M 214.714844 270.546875 " clip-rule="nonzero"/></clipPath><clipPath id="b5a91bfdc1"><path d="M 136 294 L 175 294 L 175 329 L 136 329 Z M 136 294 " clip-rule="nonzero"/></clipPath><clipPath id="5b8f2762cc"><path d="M 214.714844 270.546875 L 236.976562 338.921875 L 152.929688 366.28125 L 130.671875 297.90625 Z M 214.714844 270.546875 " clip-rule="nonzero"/></clipPath><clipPath id="93eacb8e5a"><path d="M 214.714844 270.546875 L 236.976562 338.921875 L 152.929688 366.28125 L 130.671875 297.90625 Z M 214.714844 270.546875 " clip-rule="nonzero"/></clipPath><clipPath id="3a4d30961c"><path d="M 141 299 L 169 299 L 169 326 L 141 326 Z M 141 299 " clip-rule="nonzero"/></clipPath><clipPath id="66c8afcaa7"><path d="M 214.714844 270.546875 L 236.976562 338.921875 L 152.929688 366.28125 L 130.671875 297.90625 Z M 214.714844 270.546875 " clip-rule="nonzero"/></clipPath><clipPath id="ab7b476069"><path d="M 214.714844 270.546875 L 236.976562 338.921875 L 152.929688 366.28125 L 130.671875 297.90625 Z M 214.714844 270.546875 " clip-rule="nonzero"/></clipPath><clipPath id="39ebf2a11e"><path d="M 143 299 L 169 299 L 169 326 L 143 326 Z M 143 299 " clip-rule="nonzero"/></clipPath><clipPath id="4373d11d4d"><path d="M 214.714844 270.546875 L 236.976562 338.921875 L 152.929688 366.28125 L 130.671875 297.90625 Z M 214.714844 270.546875 " clip-rule="nonzero"/></clipPath><clipPath id="ad29dc4d47"><path d="M 214.714844 270.546875 L 236.976562 338.921875 L 152.929688 366.28125 L 130.671875 297.90625 Z M 214.714844 270.546875 " clip-rule="nonzero"/></clipPath><clipPath id="9cc68ee62f"><path d="M 143 195 L 177 195 L 177 237 L 143 237 Z M 143 195 " clip-rule="nonzero"/></clipPath><clipPath id="fbb9b651d3"><path d="M 152.5 190.597656 L 218.324219 219.546875 L 182.738281 300.453125 L 116.914062 271.503906 Z M 152.5 190.597656 " clip-rule="nonzero"/></clipPath><clipPath id="1f47c29a1d"><path d="M 152.5 190.597656 L 218.324219 219.546875 L 182.738281 300.453125 L 116.914062 271.503906 Z M 152.5 190.597656 " clip-rule="nonzero"/></clipPath><clipPath id="4123d9a4e2"><path d="M 156 196 L 162 196 L 162 236 L 156 236 Z M 156 196 " clip-rule="nonzero"/></clipPath><clipPath id="2efa60604c"><path d="M 152.5 190.597656 L 218.324219 219.546875 L 182.738281 300.453125 L 116.914062 271.503906 Z M 152.5 190.597656 " clip-rule="nonzero"/></clipPath><clipPath id="83fdee909b"><path d="M 152.5 190.597656 L 218.324219 219.546875 L 182.738281 300.453125 L 116.914062 271.503906 Z M 152.5 190.597656 " clip-rule="nonzero"/></clipPath><clipPath id="ae58985480"><path d="M 157 196 L 168 196 L 168 236 L 157 236 Z M 157 196 " clip-rule="nonzero"/></clipPath><clipPath id="835f549c23"><path d="M 152.5 190.597656 L 218.324219 219.546875 L 182.738281 300.453125 L 116.914062 271.503906 Z M 152.5 190.597656 " clip-rule="nonzero"/></clipPath><clipPath id="e0c9419139"><path d="M 152.5 190.597656 L 218.324219 219.546875 L 182.738281 300.453125 L 116.914062 271.503906 Z M 152.5 190.597656 " clip-rule="nonzero"/></clipPath><clipPath id="84cf11f9a3"><path d="M 164 230 L 208 230 L 208 266 L 164 266 Z M 164 230 " clip-rule="nonzero"/></clipPath><clipPath id="5eaf947399"><path d="M 152.5 190.597656 L 218.324219 219.546875 L 182.738281 300.453125 L 116.914062 271.503906 Z M 152.5 190.597656 " clip-rule="nonzero"/></clipPath><clipPath id="8727e03c33"><path d="M 152.5 190.597656 L 218.324219 219.546875 L 182.738281 300.453125 L 116.914062 271.503906 Z M 152.5 190.597656 " clip-rule="nonzero"/></clipPath><clipPath id="de97b8375c"><path d="M 165 235 L 206 235 L 206 256 L 165 256 Z M 165 235 " clip-rule="nonzero"/></clipPath><clipPath id="161f65b0da"><path d="M 152.5 190.597656 L 218.324219 219.546875 L 182.738281 300.453125 L 116.914062 271.503906 Z M 152.5 190.597656 " clip-rule="nonzero"/></clipPath><clipPath id="14ff7e6c32"><path d="M 152.5 190.597656 L 218.324219 219.546875 L 182.738281 300.453125 L 116.914062 271.503906 Z M 152.5 190.597656 " clip-rule="nonzero"/></clipPath><clipPath id="80616add56"><path d="M 165 236 L 208 236 L 208 257 L 165 257 Z M 165 236 " clip-rule="nonzero"/></clipPath><clipPath id="89fb823d3b"><path d="M 152.5 190.597656 L 218.324219 219.546875 L 182.738281 300.453125 L 116.914062 271.503906 Z M 152.5 190.597656 " clip-rule="nonzero"/></clipPath><clipPath id="4af96895ad"><path d="M 152.5 190.597656 L 218.324219 219.546875 L 182.738281 300.453125 L 116.914062 271.503906 Z M 152.5 190.597656 " clip-rule="nonzero"/></clipPath><clipPath id="e33fe0eae8"><path d="M 127 243 L 160 243 L 160 282 L 127 282 Z M 127 243 " clip-rule="nonzero"/></clipPath><clipPath id="928bc76bab"><path d="M 152.5 190.597656 L 218.324219 219.546875 L 182.738281 300.453125 L 116.914062 271.503906 Z M 152.5 190.597656 " clip-rule="nonzero"/></clipPath><clipPath id="6e0a18f7d2"><path d="M 152.5 190.597656 L 218.324219 219.546875 L 182.738281 300.453125 L 116.914062 271.503906 Z M 152.5 190.597656 " clip-rule="nonzero"/></clipPath><clipPath id="0720f4fd73"><path d="M 141 244 L 147 244 L 147 282 L 141 282 Z M 141 244 " clip-rule="nonzero"/></clipPath><clipPath id="05e1430758"><path d="M 152.5 190.597656 L 218.324219 219.546875 L 182.738281 300.453125 L 116.914062 271.503906 Z M 152.5 190.597656 " clip-rule="nonzero"/></clipPath><clipPath id="3c18b4d5a8"><path d="M 152.5 190.597656 L 218.324219 219.546875 L 182.738281 300.453125 L 116.914062 271.503906 Z M 152.5 190.597656 " clip-rule="nonzero"/></clipPath><clipPath id="efe9392d31"><path d="M 142 245 L 150 245 L 150 281 L 142 281 Z M 142 245 " clip-rule="nonzero"/></clipPath><clipPath id="f706f4da54"><path d="M 152.5 190.597656 L 218.324219 219.546875 L 182.738281 300.453125 L 116.914062 271.503906 Z M 152.5 190.597656 " clip-rule="nonzero"/></clipPath><clipPath id="cf596c95ff"><path d="M 152.5 190.597656 L 218.324219 219.546875 L 182.738281 300.453125 L 116.914062 271.503906 Z M 152.5 190.597656 " clip-rule="nonzero"/></clipPath><clipPath id="fc58e8c6cf"><path d="M 108 104 L 174 104 L 174 184 L 108 184 Z M 108 104 " clip-rule="nonzero"/></clipPath><clipPath id="58940303aa"><path d="M 103.421875 121.132812 L 153.53125 99.25 L 183.808594 168.578125 L 133.699219 190.460938 Z M 103.421875 121.132812 " clip-rule="nonzero"/></clipPath><clipPath id="12b895125c"><path d="M 103.421875 121.132812 L 153.53125 99.25 L 183.808594 168.578125 L 133.699219 190.460938 Z M 103.421875 121.132812 " clip-rule="nonzero"/></clipPath><clipPath id="49fa2466f8"><path d="M 137 138 L 159 138 L 159 161 L 137 161 Z M 137 138 " clip-rule="nonzero"/></clipPath><clipPath id="4be7af89d6"><path d="M 103.421875 121.132812 L 153.53125 99.25 L 183.808594 168.578125 L 133.699219 190.460938 Z M 103.421875 121.132812 " clip-rule="nonzero"/></clipPath><clipPath id="aa4eacd83e"><path d="M 103.421875 121.132812 L 153.53125 99.25 L 183.808594 168.578125 L 133.699219 190.460938 Z M 103.421875 121.132812 " clip-rule="nonzero"/></clipPath><clipPath id="aad2747055"><path d="M 142 107 L 145 107 L 145 111 L 142 111 Z M 142 107 " clip-rule="nonzero"/></clipPath><clipPath id="20626bae4e"><path d="M 103.421875 121.132812 L 153.53125 99.25 L 183.808594 168.578125 L 133.699219 190.460938 Z M 103.421875 121.132812 " clip-rule="nonzero"/></clipPath><clipPath id="26ffdc8479"><path d="M 103.421875 121.132812 L 153.53125 99.25 L 183.808594 168.578125 L 133.699219 190.460938 Z M 103.421875 121.132812 " clip-rule="nonzero"/></clipPath><clipPath id="543197127f"><path d="M 120 349 L 174 349 L 174 422 L 120 422 Z M 120 349 " clip-rule="nonzero"/></clipPath><clipPath id="d658a8c4bb"><path d="M 127.570312 345.039062 L 176.972656 357.429688 L 159.84375 425.726562 L 110.441406 413.332031 Z M 127.570312 345.039062 " clip-rule="nonzero"/></clipPath><clipPath id="a2f9bc3bd2"><path d="M 127.570312 345.039062 L 176.972656 357.429688 L 159.84375 425.726562 L 110.441406 413.332031 Z M 127.570312 345.039062 " clip-rule="nonzero"/></clipPath><clipPath id="6a36798ea6"><path d="M 133 383 L 156 383 L 156 400 L 133 400 Z M 133 383 " clip-rule="nonzero"/></clipPath><clipPath id="ab16b98cab"><path d="M 127.570312 345.039062 L 176.972656 357.429688 L 159.84375 425.726562 L 110.441406 413.332031 Z M 127.570312 345.039062 " clip-rule="nonzero"/></clipPath><clipPath id="df78325e70"><path d="M 127.570312 345.039062 L 176.972656 357.429688 L 159.84375 425.726562 L 110.441406 413.332031 Z M 127.570312 345.039062 " clip-rule="nonzero"/></clipPath><clipPath id="cfb097797b"><path d="M 162 357 L 166 357 L 166 360 L 162 360 Z M 162 357 " clip-rule="nonzero"/></clipPath><clipPath id="d8c7141ef9"><path d="M 127.570312 345.039062 L 176.972656 357.429688 L 159.84375 425.726562 L 110.441406 413.332031 Z M 127.570312 345.039062 " clip-rule="nonzero"/></clipPath><clipPath id="d9289a07de"><path d="M 127.570312 345.039062 L 176.972656 357.429688 L 159.84375 425.726562 L 110.441406 413.332031 Z M 127.570312 345.039062 " clip-rule="nonzero"/></clipPath><clipPath id="7390e6dec3"><path d="M 37 483 L 69 483 L 69 521 L 37 521 Z M 37 483 " clip-rule="nonzero"/></clipPath><clipPath id="030b4fd765"><path d="M 54.566406 478.082031 L 101.296875 522.417969 L 46.648438 580.015625 L -0.0820312 535.675781 Z M 54.566406 478.082031 " clip-rule="nonzero"/></clipPath><clipPath id="893100679c"><path d="M 54.566406 478.082031 L 101.296875 522.417969 L 46.648438 580.015625 L -0.0820312 535.675781 Z M 54.566406 478.082031 " clip-rule="nonzero"/></clipPath><clipPath id="63d906e936"><path d="M 45 485 L 59 485 L 59 518 L 45 518 Z M 45 485 " clip-rule="nonzero"/></clipPath><clipPath id="7284d2341c"><path d="M 54.566406 478.082031 L 101.296875 522.417969 L 46.648438 580.015625 L -0.0820312 535.675781 Z M 54.566406 478.082031 " clip-rule="nonzero"/></clipPath><clipPath id="565fcd53bd"><path d="M 54.566406 478.082031 L 101.296875 522.417969 L 46.648438 580.015625 L -0.0820312 535.675781 Z M 54.566406 478.082031 " clip-rule="nonzero"/></clipPath><clipPath id="ef7d425f75"><path d="M 45 485 L 61 485 L 61 518 L 45 518 Z M 45 485 " clip-rule="nonzero"/></clipPath><clipPath id="443f95ed1d"><path d="M 54.566406 478.082031 L 101.296875 522.417969 L 46.648438 580.015625 L -0.0820312 535.675781 Z M 54.566406 478.082031 " clip-rule="nonzero"/></clipPath><clipPath id="fa441a14bd"><path d="M 54.566406 478.082031 L 101.296875 522.417969 L 46.648438 580.015625 L -0.0820312 535.675781 Z M 54.566406 478.082031 " clip-rule="nonzero"/></clipPath><clipPath id="a6f3eb1db9"><path d="M 45 522 L 87 522 L 87 551 L 45 551 Z M 45 522 " clip-rule="nonzero"/></clipPath><clipPath id="117de4790d"><path d="M 54.566406 478.082031 L 101.296875 522.417969 L 46.648438 580.015625 L -0.0820312 535.675781 Z M 54.566406 478.082031 " clip-rule="nonzero"/></clipPath><clipPath id="5cfdc4cbb1"><path d="M 54.566406 478.082031 L 101.296875 522.417969 L 46.648438 580.015625 L -0.0820312 535.675781 Z M 54.566406 478.082031 " clip-rule="nonzero"/></clipPath><clipPath id="84968ae446"><path d="M 46 528 L 86 528 L 86 538 L 46 538 Z M 46 528 " clip-rule="nonzero"/></clipPath><clipPath id="1e2a955958"><path d="M 54.566406 478.082031 L 101.296875 522.417969 L 46.648438 580.015625 L -0.0820312 535.675781 Z M 54.566406 478.082031 " clip-rule="nonzero"/></clipPath><clipPath id="d55c87f9b6"><path d="M 54.566406 478.082031 L 101.296875 522.417969 L 46.648438 580.015625 L -0.0820312 535.675781 Z M 54.566406 478.082031 " clip-rule="nonzero"/></clipPath><clipPath id="6f63de8968"><path d="M 45 532 L 87 532 L 87 539 L 45 539 Z M 45 532 " clip-rule="nonzero"/></clipPath><clipPath id="63bbfef550"><path d="M 54.566406 478.082031 L 101.296875 522.417969 L 46.648438 580.015625 L -0.0820312 535.675781 Z M 54.566406 478.082031 " clip-rule="nonzero"/></clipPath><clipPath id="cf587594a1"><path d="M 54.566406 478.082031 L 101.296875 522.417969 L 46.648438 580.015625 L -0.0820312 535.675781 Z M 54.566406 478.082031 " clip-rule="nonzero"/></clipPath><clipPath id="1c82a923cb"><path d="M 10 519 L 41 519 L 41 553 L 10 553 Z M 10 519 " clip-rule="nonzero"/></clipPath><clipPath id="051c6e3afe"><path d="M 54.566406 478.082031 L 101.296875 522.417969 L 46.648438 580.015625 L -0.0820312 535.675781 Z M 54.566406 478.082031 " clip-rule="nonzero"/></clipPath><clipPath id="1a10333c14"><path d="M 54.566406 478.082031 L 101.296875 522.417969 L 46.648438 580.015625 L -0.0820312 535.675781 Z M 54.566406 478.082031 " clip-rule="nonzero"/></clipPath><clipPath id="92fcb35764"><path d="M 20 520 L 32 520 L 32 553 L 20 553 Z M 20 520 " clip-rule="nonzero"/></clipPath><clipPath id="78244b8728"><path d="M 54.566406 478.082031 L 101.296875 522.417969 L 46.648438 580.015625 L -0.0820312 535.675781 Z M 54.566406 478.082031 " clip-rule="nonzero"/></clipPath><clipPath id="0dbc41b942"><path d="M 54.566406 478.082031 L 101.296875 522.417969 L 46.648438 580.015625 L -0.0820312 535.675781 Z M 54.566406 478.082031 " clip-rule="nonzero"/></clipPath><clipPath id="b6d40a22ce"><path d="M 21 521 L 34 521 L 34 552 L 21 552 Z M 21 521 " clip-rule="nonzero"/></clipPath><clipPath id="8b1bd7862c"><path d="M 54.566406 478.082031 L 101.296875 522.417969 L 46.648438 580.015625 L -0.0820312 535.675781 Z M 54.566406 478.082031 " clip-rule="nonzero"/></clipPath><clipPath id="f6a5fff2aa"><path d="M 54.566406 478.082031 L 101.296875 522.417969 L 46.648438 580.015625 L -0.0820312 535.675781 Z M 54.566406 478.082031 " clip-rule="nonzero"/></clipPath><clipPath id="f7ef0c1898"><path d="M 93 422 L 127 422 L 127 463 L 93 463 Z M 93 422 " clip-rule="nonzero"/></clipPath><clipPath id="b73c8d50be"><path d="M 96.648438 419.835938 L 167.53125 431.933594 L 152.660156 519.058594 L 81.78125 506.960938 Z M 96.648438 419.835938 " clip-rule="nonzero"/></clipPath><clipPath id="cffa627dab"><path d="M 96.648438 419.835938 L 167.53125 431.933594 L 152.660156 519.058594 L 81.78125 506.960938 Z M 96.648438 419.835938 " clip-rule="nonzero"/></clipPath><clipPath id="f64a4786cd"><path d="M 103 423 L 114 423 L 114 462 L 103 462 Z M 103 423 " clip-rule="nonzero"/></clipPath><clipPath id="d24822754e"><path d="M 96.648438 419.835938 L 167.53125 431.933594 L 152.660156 519.058594 L 81.78125 506.960938 Z M 96.648438 419.835938 " clip-rule="nonzero"/></clipPath><clipPath id="b9ee925c2a"><path d="M 96.648438 419.835938 L 167.53125 431.933594 L 152.660156 519.058594 L 81.78125 506.960938 Z M 96.648438 419.835938 " clip-rule="nonzero"/></clipPath><clipPath id="2cf68d291f"><path d="M 105 423 L 118 423 L 118 463 L 105 463 Z M 105 423 " clip-rule="nonzero"/></clipPath><clipPath id="9646a0158d"><path d="M 96.648438 419.835938 L 167.53125 431.933594 L 152.660156 519.058594 L 81.78125 506.960938 Z M 96.648438 419.835938 " clip-rule="nonzero"/></clipPath><clipPath id="8e70415bd4"><path d="M 96.648438 419.835938 L 167.53125 431.933594 L 152.660156 519.058594 L 81.78125 506.960938 Z M 96.648438 419.835938 " clip-rule="nonzero"/></clipPath><clipPath id="61ddabf85d"><path d="M 124 447 L 163 447 L 163 487 L 124 487 Z M 124 447 " clip-rule="nonzero"/></clipPath><clipPath id="4c30b2f95a"><path d="M 96.648438 419.835938 L 167.53125 431.933594 L 152.660156 519.058594 L 81.78125 506.960938 Z M 96.648438 419.835938 " clip-rule="nonzero"/></clipPath><clipPath id="416b4d98e7"><path d="M 96.648438 419.835938 L 167.53125 431.933594 L 152.660156 519.058594 L 81.78125 506.960938 Z M 96.648438 419.835938 " clip-rule="nonzero"/></clipPath><clipPath id="fd89f735e8"><path d="M 124 450 L 160 450 L 160 480 L 124 480 Z M 124 450 " clip-rule="nonzero"/></clipPath><clipPath id="818f596504"><path d="M 96.648438 419.835938 L 167.53125 431.933594 L 152.660156 519.058594 L 81.78125 506.960938 Z M 96.648438 419.835938 " clip-rule="nonzero"/></clipPath><clipPath id="a5e9420c41"><path d="M 96.648438 419.835938 L 167.53125 431.933594 L 152.660156 519.058594 L 81.78125 506.960938 Z M 96.648438 419.835938 " clip-rule="nonzero"/></clipPath><clipPath id="3edaf41ee8"><path d="M 125 451 L 161 451 L 161 481 L 125 481 Z M 125 451 " clip-rule="nonzero"/></clipPath><clipPath id="16d8f651e2"><path d="M 96.648438 419.835938 L 167.53125 431.933594 L 152.660156 519.058594 L 81.78125 506.960938 Z M 96.648438 419.835938 " clip-rule="nonzero"/></clipPath><clipPath id="6077155b96"><path d="M 96.648438 419.835938 L 167.53125 431.933594 L 152.660156 519.058594 L 81.78125 506.960938 Z M 96.648438 419.835938 " clip-rule="nonzero"/></clipPath><clipPath id="6bc262f520"><path d="M 89 472 L 122 472 L 122 512 L 89 512 Z M 89 472 " clip-rule="nonzero"/></clipPath><clipPath id="3ae36873b7"><path d="M 96.648438 419.835938 L 167.53125 431.933594 L 152.660156 519.058594 L 81.78125 506.960938 Z M 96.648438 419.835938 " clip-rule="nonzero"/></clipPath><clipPath id="fe7c0a2c15"><path d="M 96.648438 419.835938 L 167.53125 431.933594 L 152.660156 519.058594 L 81.78125 506.960938 Z M 96.648438 419.835938 " clip-rule="nonzero"/></clipPath><clipPath id="bc4eaac458"><path d="M 100 474 L 113 474 L 113 510 L 100 510 Z M 100 474 " clip-rule="nonzero"/></clipPath><clipPath id="946eb9dfae"><path d="M 96.648438 419.835938 L 167.53125 431.933594 L 152.660156 519.058594 L 81.78125 506.960938 Z M 96.648438 419.835938 " clip-rule="nonzero"/></clipPath><clipPath id="2a572eafc1"><path d="M 96.648438 419.835938 L 167.53125 431.933594 L 152.660156 519.058594 L 81.78125 506.960938 Z M 96.648438 419.835938 " clip-rule="nonzero"/></clipPath><clipPath id="640ca869fb"><path d="M 100 474 L 113 474 L 113 509 L 100 509 Z M 100 474 " clip-rule="nonzero"/></clipPath><clipPath id="bc00c381b7"><path d="M 96.648438 419.835938 L 167.53125 431.933594 L 152.660156 519.058594 L 81.78125 506.960938 Z M 96.648438 419.835938 " clip-rule="nonzero"/></clipPath><clipPath id="d48cf366a8"><path d="M 96.648438 419.835938 L 167.53125 431.933594 L 152.660156 519.058594 L 81.78125 506.960938 Z M 96.648438 419.835938 " clip-rule="nonzero"/></clipPath></defs><g clip-path="url(#9fb6435001)"><g clip-path="url(#f3d7664049)"><g clip-path="url(#1445389854)"><path fill="#ffffff" d="M 87.585938 57.167969 C 81.871094 58.851562 75.15625 59.84375 69.722656 56.785156 C 59.207031 50.019531 51.71875 31.105469 65.046875 23.550781 C 68.847656 21.050781 73.242188 21.949219 77.503906 22.058594 C 81.105469 23.074219 83.824219 26.21875 86.839844 28.34375 C 96.328125 34.730469 99.925781 51.898438 87.585938 57.167969 Z M 65.917969 24.339844 C 55.277344 30.445312 61.664062 49.175781 70.867188 54.121094 C 75.421875 55.503906 80.109375 57.890625 84.808594 55.804688 C 87.65625 55.152344 91.421875 54.867188 92.699219 51.777344 C 98.503906 41.984375 90.605469 30.667969 81.949219 25.777344 C 77.667969 21.4375 71.085938 21.859375 65.917969 24.339844 Z M 65.917969 24.339844 " fill-opacity="1" fill-rule="nonzero"/></g></g></g><g clip-path="url(#6efbaa12cf)"><g clip-path="url(#567edc1e9e)"><g clip-path="url(#95c329ebcb)"><path fill="#ffffff" d="M 88.5625 54.753906 C 74.972656 28.847656 64.269531 43.84375 62.15625 27.410156 C 65.855469 36.363281 66.054688 34.101562 74.429688 37.171875 C 81.113281 41.269531 85.140625 47.808594 89.296875 54.1875 C 89.628906 54.6875 88.964844 55.3125 88.558594 54.753906 Z M 88.5625 54.753906 " fill-opacity="1" fill-rule="nonzero"/></g></g></g><g clip-path="url(#8a8d6553af)"><g clip-path="url(#0b37c3cd5c)"><g clip-path="url(#06ad01e572)"><path fill="#ffffff" d="M 89.539062 55.351562 C 87.273438 47.484375 84.515625 35.742188 75.125 33.476562 C 71.261719 32.089844 66.3125 32.171875 63.441406 29.039062 C 62.949219 28.371094 62.113281 27.769531 62.058594 26.894531 C 62.21875 26.199219 62.851562 26.839844 63.089844 27.140625 C 67.109375 33.046875 75.640625 29.394531 80.203125 34.3125 C 84.773438 37.644531 90.269531 49.949219 89.539062 55.351562 Z M 89.539062 55.351562 " fill-opacity="1" fill-rule="nonzero"/></g></g></g><g clip-path="url(#1517198c90)"><g clip-path="url(#fea6a4acb3)"><g clip-path="url(#ca35ff2113)"><path fill="#ffffff" d="M 119.082031 64.503906 C 109.792969 68 106.214844 62.035156 103.710938 53.984375 C 100.230469 42.832031 104.46875 26 115.667969 20.75 C 131.492188 14.363281 134.4375 36.929688 131.652344 47.726562 C 130 54.46875 125.703125 61.761719 119.078125 64.5 Z M 109.554688 62.042969 C 110.894531 64.75 114.066406 63.082031 116.230469 62.429688 C 119.367188 61.691406 122.332031 60.082031 123.988281 57.210938 C 127.601562 51.386719 128.769531 44.207031 130.132812 37.558594 C 129.914062 32.207031 127.96875 26.664062 124.898438 22.289062 C 120.617188 18.261719 113.675781 23.453125 109.972656 26.3125 C 102.675781 36.753906 100.902344 51.558594 108.550781 62.320312 C 108.671875 61.882812 109.21875 61.753906 109.554688 62.042969 Z M 109.554688 62.042969 " fill-opacity="1" fill-rule="nonzero"/></g></g></g><g clip-path="url(#1278c89cab)"><g clip-path="url(#b2ada5831e)"><g clip-path="url(#cade338b39)"><path fill="#ffffff" d="M 109.316406 63.128906 C 109.417969 62.683594 108.4375 62.757812 108.554688 62.3125 C 110.234375 55.980469 114.40625 48.691406 114.21875 41.886719 C 113.667969 37.960938 111.664062 33.808594 113.136719 29.886719 C 115.710938 26.585938 118.367188 22.011719 122.445312 20.675781 C 123.203125 21.289062 122.066406 21.792969 121.621094 22.125 C 116.894531 25.398438 112.601562 31.226562 114.582031 37.210938 C 116.457031 40.847656 114.917969 44.484375 114.289062 48.199219 C 113.839844 51.320312 113.542969 54.429688 111.707031 57.113281 C 110.621094 58.789062 111.507812 62.609375 109.3125 63.128906 Z M 109.316406 63.128906 " fill-opacity="1" fill-rule="nonzero"/></g></g></g><g clip-path="url(#608e5f4c49)"><g clip-path="url(#002eee66aa)"><g clip-path="url(#4d3aa1d647)"><path fill="#ffffff" d="M 110.039062 63.53125 C 109.863281 63.355469 109.785156 63.015625 109.953125 62.8125 C 111.742188 60.414062 112.683594 57.53125 114.574219 55.179688 C 115.699219 52.089844 116.953125 49.003906 117.957031 45.871094 C 118.695312 34.792969 116.257812 30.082031 123.394531 20.019531 C 124.722656 20.074219 123.351562 21.535156 123.109375 22.109375 C 120.621094 26.378906 118.847656 30.796875 119.324219 35.84375 C 120.488281 44.542969 116.664062 53.089844 112.300781 60.410156 C 111.613281 61.269531 111.347656 63.910156 110.039062 63.527344 Z M 110.039062 63.53125 " fill-opacity="1" fill-rule="nonzero"/></g></g></g><g clip-path="url(#5d98769096)"><g clip-path="url(#39f03a2e38)"><g clip-path="url(#f2747dea60)"><path fill="#ffffff" d="M 98.992188 101.664062 C 87.371094 100.449219 76.671875 82.097656 84.464844 72.421875 C 93.90625 56.878906 112.84375 69.148438 115.75 83.035156 C 116.019531 87.171875 117.085938 91.738281 114.847656 95.535156 C 114.648438 95.871094 114.195312 95.449219 114.371094 95.160156 C 117.359375 89.132812 115.1875 81.703125 112.246094 76.050781 C 103.667969 63.109375 85.585938 61.691406 84.363281 80.316406 C 84.191406 87.921875 90.316406 94.425781 96.394531 98.242188 C 101.785156 101.046875 108.261719 98.847656 113.152344 95.953125 C 112.996094 94.636719 114.421875 95.402344 114.183594 96.332031 C 111.574219 101.179688 104.171875 103.078125 98.996094 101.65625 Z M 98.992188 101.664062 " fill-opacity="1" fill-rule="nonzero"/></g></g></g><g clip-path="url(#ccc8cb6bab)"><g clip-path="url(#9b5c8efa84)"><g clip-path="url(#72bc3fb05d)"><path fill="#ffffff" d="M 113.921875 96.101562 C 104.695312 92.761719 96.933594 85.832031 93.289062 76.554688 C 91.792969 72.507812 85.476562 74.011719 85.804688 72.011719 C 94.0625 70.929688 95.777344 80.945312 100.597656 85.476562 C 103.984375 88.441406 107.070312 91.960938 111.230469 93.859375 C 112.113281 94.144531 113.035156 94.292969 113.953125 94.394531 C 114.992188 94.507812 115.023438 96.347656 113.917969 96.105469 Z M 113.921875 96.101562 " fill-opacity="1" fill-rule="nonzero"/></g></g></g><g clip-path="url(#d0abffaed1)"><g clip-path="url(#1cca098f65)"><g clip-path="url(#6cb2dcdc83)"><path fill="#ffffff" d="M 113.597656 94.894531 C 106.152344 91.160156 102.550781 82.871094 98.21875 76.171875 C 95.503906 73.96875 91.378906 70.785156 87.882812 72.429688 C 87.402344 72.515625 86.941406 72.992188 86.460938 72.882812 C 86.304688 71.222656 91.386719 70.871094 92.644531 71.53125 C 99.628906 72.992188 101.777344 80.054688 105.050781 85.371094 C 107.234375 87.867188 109.34375 90.507812 111.96875 92.546875 C 112.652344 92.890625 115.640625 94.839844 113.597656 94.898438 Z M 113.597656 94.894531 " fill-opacity="1" fill-rule="nonzero"/></g></g></g><g clip-path="url(#6508116586)"><g clip-path="url(#e922c1b9ff)"><g clip-path="url(#a82f4c4e12)"><path fill="#ffffff" d="M 183.097656 302.515625 C 181.96875 296.664062 181.625 289.882812 185.191406 284.769531 C 192.9375 274.953125 212.480469 269.3125 218.71875 283.304688 C 220.84375 287.332031 219.53125 291.617188 219.011719 295.847656 C 217.652344 299.339844 214.265625 301.742188 211.859375 304.535156 C 204.589844 313.367188 187.15625 315.304688 183.097656 302.515625 Z M 217.851562 284.097656 C 212.796875 272.921875 193.539062 277.476562 187.730469 286.167969 C 185.917969 290.566406 183.09375 295.003906 184.71875 299.882812 C 185.09375 302.777344 185.019531 306.554688 187.96875 308.121094 C 197.164062 314.839844 209.183594 308.066406 214.882812 299.917969 C 219.613281 296.070312 219.824219 289.480469 217.851562 284.097656 Z M 217.851562 284.097656 " fill-opacity="1" fill-rule="nonzero"/></g></g></g><g clip-path="url(#0bafdc87dd)"><g clip-path="url(#dc4c2ff989)"><g clip-path="url(#a61a2f7384)"><path fill="#ffffff" d="M 185.40625 303.71875 C 212.496094 292.679688 198.597656 280.582031 215.15625 280.058594 C 205.890625 282.882812 208.121094 283.296875 204.261719 291.339844 C 199.542969 297.597656 192.644531 300.980469 185.898438 304.503906 C 185.367188 304.785156 184.8125 304.066406 185.402344 303.710938 Z M 185.40625 303.71875 " fill-opacity="1" fill-rule="nonzero"/></g></g></g><g clip-path="url(#f90d841cd6)"><g clip-path="url(#5b7cf97ced)"><g clip-path="url(#c6af65d08a)"><path fill="#ffffff" d="M 184.71875 304.632812 C 192.765625 303.132812 204.714844 301.511719 207.875 292.386719 C 209.625 288.671875 210.019531 283.742188 213.414062 281.183594 C 214.125 280.757812 214.804688 279.984375 215.679688 280.011719 C 216.359375 280.238281 215.660156 280.804688 215.335938 281.011719 C 209.074219 284.449219 211.890625 293.289062 206.554688 297.359375 C 202.800781 301.589844 190.023438 305.878906 184.71875 304.632812 Z M 184.71875 304.632812 " fill-opacity="1" fill-rule="nonzero"/></g></g></g><g clip-path="url(#8c5878287a)"><g clip-path="url(#6c59524b86)"><g clip-path="url(#c0c85a6382)"><path fill="#ffffff" d="M 172.773438 333.160156 C 170.183594 323.578125 176.464844 320.589844 184.714844 318.871094 C 196.152344 316.476562 212.496094 322.3125 216.648438 333.964844 C 221.488281 350.328125 198.742188 351.09375 188.265625 347.28125 C 181.710938 344.988281 174.863281 340.011719 172.777344 333.15625 Z M 176.136719 323.914062 C 173.3125 324.984375 174.667969 328.304688 175.109375 330.519531 C 175.542969 333.714844 176.855469 336.820312 179.558594 338.742188 C 185.007812 342.902344 192.042969 344.75 198.527344 346.746094 C 203.875 347.042969 209.582031 345.636719 214.230469 343.003906 C 218.652344 339.128906 214.148438 331.71875 211.65625 327.761719 C 201.964844 319.496094 187.398438 316.308594 175.957031 322.886719 C 176.378906 323.046875 176.453125 323.605469 176.136719 323.914062 Z M 176.136719 323.914062 " fill-opacity="1" fill-rule="nonzero"/></g></g></g><g clip-path="url(#7ebb1a532f)"><g clip-path="url(#7bdc2013c6)"><g clip-path="url(#fcfff473f6)"><path fill="#ffffff" d="M 175.078125 323.574219 C 175.507812 323.71875 175.53125 322.734375 175.960938 322.890625 C 182.101562 325.171875 188.957031 330.023438 195.75 330.492188 C 199.707031 330.320312 204.039062 328.722656 207.800781 330.566406 C 210.835938 333.445312 215.132812 336.527344 216.074219 340.71875 C 215.390625 341.410156 214.996094 340.230469 214.710938 339.753906 C 211.90625 334.738281 206.515625 329.90625 200.371094 331.300781 C 196.570312 332.820312 193.097656 330.9375 189.460938 329.953125 C 186.394531 329.210938 183.328125 328.613281 180.835938 326.527344 C 179.269531 325.285156 175.382812 325.804688 175.074219 323.570312 Z M 175.078125 323.574219 " fill-opacity="1" fill-rule="nonzero"/></g></g></g><g clip-path="url(#8922b8c824)"><g clip-path="url(#7cea45a664)"><g clip-path="url(#8b180956e1)"><path fill="#ffffff" d="M 174.605469 324.253906 C 174.796875 324.09375 175.144531 324.046875 175.332031 324.238281 C 177.546875 326.246094 180.324219 327.460938 182.484375 329.570312 C 185.453125 330.984375 188.402344 332.527344 191.425781 333.832031 C 202.378906 335.628906 207.304688 333.65625 216.636719 341.722656 C 216.453125 343.039062 215.128906 341.535156 214.582031 341.242188 C 210.570312 338.355469 206.34375 336.164062 201.273438 336.152344 C 192.503906 336.476562 184.363281 331.851562 177.496094 326.800781 C 176.707031 326.039062 174.101562 325.519531 174.609375 324.25 Z M 174.605469 324.253906 " fill-opacity="1" fill-rule="nonzero"/></g></g></g><g clip-path="url(#b5a91bfdc1)"><g clip-path="url(#5b8f2762cc)"><g clip-path="url(#93eacb8e5a)"><path fill="#ffffff" d="M 137.710938 309.59375 C 140.035156 298.144531 159.332031 289.253906 168.210938 297.941406 C 182.777344 308.832031 168.746094 326.507812 154.644531 328.0625 C 150.5 327.933594 145.851562 328.558594 142.289062 325.964844 C 141.972656 325.738281 142.4375 325.328125 142.710938 325.527344 C 148.421875 329.078125 156.023438 327.632812 161.933594 325.246094 C 175.640625 317.949219 178.785156 300.089844 160.363281 297.085938 C 152.808594 296.183594 145.746094 301.65625 141.367188 307.335938 C 138.058594 312.433594 139.625 319.09375 142.035156 324.238281 C 143.359375 324.207031 142.464844 325.554688 141.558594 325.226562 C 136.984375 322.167969 135.808594 314.617188 137.71875 309.597656 Z M 137.710938 309.59375 " fill-opacity="1" fill-rule="nonzero"/></g></g></g><g clip-path="url(#3a4d30961c)"><g clip-path="url(#66c8afcaa7)"><g clip-path="url(#ab7b476069)"><path fill="#ffffff" d="M 141.8125 324.992188 C 146.023438 316.128906 153.667969 309.066406 163.253906 306.332031 C 167.425781 305.226562 166.535156 298.796875 168.492188 299.316406 C 168.777344 307.636719 158.640625 308.386719 153.667969 312.75 C 150.390625 315.832031 146.59375 318.566406 144.304688 322.527344 C 143.9375 323.378906 143.699219 324.28125 143.507812 325.183594 C 143.296875 326.207031 141.464844 326.0625 141.8125 324.984375 Z M 141.8125 324.992188 " fill-opacity="1" fill-rule="nonzero"/></g></g></g><g clip-path="url(#39ebf2a11e)"><g clip-path="url(#4373d11d4d)"><g clip-path="url(#ad29dc4d47)"><path fill="#ffffff" d="M 143.046875 324.78125 C 147.480469 317.730469 156.074219 314.941406 163.15625 311.273438 C 165.613281 308.785156 169.179688 304.984375 167.875 301.34375 C 167.835938 300.859375 167.40625 300.351562 167.5625 299.886719 C 169.230469 299.886719 169.09375 304.984375 168.3125 306.171875 C 166.1875 312.980469 158.953125 314.441406 153.347656 317.191406 C 150.652344 319.121094 147.820312 320.96875 145.539062 323.386719 C 145.132812 324.035156 142.90625 326.820312 143.039062 324.785156 Z M 143.046875 324.78125 " fill-opacity="1" fill-rule="nonzero"/></g></g></g><g clip-path="url(#9cc68ee62f)"><g clip-path="url(#fbb9b651d3)"><g clip-path="url(#1f47c29a1d)"><path fill="#ffffff" d="M 155.277344 235.472656 C 150.164062 232.421875 144.878906 228.160156 143.441406 222.089844 C 141.28125 209.777344 150.09375 191.445312 164.683594 196.109375 C 169.101562 197.210938 171.421875 201.042969 174.230469 204.25 C 175.929688 207.589844 175.464844 211.714844 175.945312 215.375 C 177.691406 226.679688 167.519531 240.96875 155.277344 235.472656 Z M 164.699219 197.285156 C 152.996094 193.609375 143.5625 211.007812 146.175781 221.128906 C 148.246094 225.410156 149.675781 230.472656 154.394531 232.511719 C 156.804688 234.160156 159.570312 236.730469 162.707031 235.574219 C 173.839844 233.195312 176.796875 219.71875 174.519531 210.039062 C 174.800781 203.949219 170.023438 199.398438 164.699219 197.285156 Z M 164.699219 197.285156 " fill-opacity="1" fill-rule="nonzero"/></g></g></g><g clip-path="url(#4123d9a4e2)"><g clip-path="url(#2efa60604c)"><g clip-path="url(#83fdee909b)"><path fill="#ffffff" d="M 157.714844 234.554688 C 167.527344 207 149.25 209.304688 159.890625 196.609375 C 155.824219 205.398438 157.617188 204.011719 161.042969 212.246094 C 162.566406 219.9375 160.496094 227.332031 158.628906 234.710938 C 158.484375 235.292969 157.578125 235.230469 157.707031 234.554688 Z M 157.714844 234.554688 " fill-opacity="1" fill-rule="nonzero"/></g></g></g><g clip-path="url(#ae58985480)"><g clip-path="url(#835f549c23)"><g clip-path="url(#e0c9419139)"><path fill="#ffffff" d="M 157.9375 235.679688 C 162.179688 228.675781 168.933594 218.683594 164.230469 210.25 C 162.628906 206.46875 159.210938 202.890625 159.566406 198.65625 C 159.722656 197.839844 159.597656 196.820312 160.199219 196.183594 C 160.824219 195.828125 160.78125 196.730469 160.71875 197.109375 C 159.109375 204.066406 167.582031 207.855469 167.0625 214.546875 C 167.714844 220.164062 162.402344 232.550781 157.9375 235.679688 Z M 157.9375 235.679688 " fill-opacity="1" fill-rule="nonzero"/></g></g></g><g clip-path="url(#84cf11f9a3)"><g clip-path="url(#5eaf947399)"><g clip-path="url(#8727e03c33)"><path fill="#ffffff" d="M 171.253906 263.589844 C 162.382812 259.140625 164.339844 252.464844 168.554688 245.164062 C 174.386719 235.042969 189.628906 226.738281 201.082031 231.40625 C 216.511719 238.695312 201.929688 256.167969 192.105469 261.445312 C 186.03125 264.804688 177.757812 266.597656 171.253906 263.585938 Z M 166.597656 254.921875 C 165.519531 257.742188 168.894531 258.945312 170.84375 260.089844 C 173.515625 261.894531 176.707031 262.984375 179.941406 262.25 C 186.671875 260.953125 192.738281 256.941406 198.546875 253.433594 C 202.328125 249.644531 205.082031 244.453125 206.214844 239.226562 C 206.269531 233.351562 197.746094 231.773438 193.132812 230.992188 C 180.511719 232.714844 168.429688 241.453125 165.714844 254.375 C 166.117188 254.164062 166.582031 254.480469 166.597656 254.921875 Z M 166.597656 254.921875 " fill-opacity="1" fill-rule="nonzero"/></g></g></g><g clip-path="url(#de97b8375c)"><g clip-path="url(#161f65b0da)"><g clip-path="url(#14ff7e6c32)"><path fill="#ffffff" d="M 165.640625 255.484375 C 166.035156 255.257812 165.316406 254.585938 165.722656 254.371094 C 171.511719 251.3125 179.695312 249.429688 184.574219 244.679688 C 187.082031 241.609375 188.773438 237.320312 192.65625 235.738281 C 196.824219 235.394531 201.984375 234.242188 205.738281 236.332031 C 205.800781 237.304688 204.65625 236.8125 204.113281 236.707031 C 198.5 235.457031 191.308594 236.257812 188.253906 241.769531 C 186.855469 245.617188 183.136719 246.953125 179.980469 249.011719 C 177.386719 250.800781 174.898438 252.691406 171.679688 253.160156 C 169.710938 253.5 167.507812 256.742188 165.636719 255.484375 Z M 165.640625 255.484375 " fill-opacity="1" fill-rule="nonzero"/></g></g></g><g clip-path="url(#80616add56)"><g clip-path="url(#89fb823d3b)"><g clip-path="url(#4af96895ad)"><path fill="#ffffff" d="M 165.832031 256.289062 C 165.84375 256.039062 166.039062 255.75 166.304688 255.738281 C 169.277344 255.425781 172.035156 254.164062 175.046875 253.957031 C 178.082031 252.683594 181.195312 251.515625 184.183594 250.128906 C 192.820312 243.15625 194.628906 238.167969 206.863281 236.582031 C 207.722656 237.597656 205.71875 237.582031 205.136719 237.792969 C 200.308594 238.863281 195.859375 240.554688 192.472656 244.328125 C 186.871094 251.085938 178 254.074219 169.660156 255.832031 C 168.566406 255.910156 166.441406 257.507812 165.835938 256.285156 Z M 165.832031 256.289062 " fill-opacity="1" fill-rule="nonzero"/></g></g></g><g clip-path="url(#e33fe0eae8)"><g clip-path="url(#928bc76bab)"><g clip-path="url(#6e0a18f7d2)"><path fill="#ffffff" d="M 130.324219 274.039062 C 123.332031 264.679688 129.558594 244.367188 141.953125 243.53125 C 159.777344 239.925781 163.609375 262.160156 155.375 273.71875 C 152.519531 276.722656 149.886719 280.601562 145.582031 281.53125 C 145.203125 281.613281 145.203125 280.996094 145.535156 280.925781 C 151.988281 279.035156 155.976562 272.398438 158.132812 266.402344 C 161.820312 251.320312 150.597656 237.078125 136.082031 248.8125 C 130.378906 253.84375 129.753906 262.757812 131.074219 269.808594 C 132.671875 275.671875 138.679688 278.941406 144.125 280.570312 C 144.984375 279.5625 145.390625 281.128906 144.542969 281.585938 C 139.214844 282.957031 132.800781 278.804688 130.328125 274.039062 Z M 130.324219 274.039062 " fill-opacity="1" fill-rule="nonzero"/></g></g></g><g clip-path="url(#0720f4fd73)"><g clip-path="url(#05e1430758)"><g clip-path="url(#3c18b4d5a8)"><path fill="#ffffff" d="M 144.539062 281.238281 C 140.734375 272.191406 140.558594 261.789062 144.90625 252.816406 C 146.859375 248.972656 141.472656 245.351562 143.164062 244.234375 C 149.558594 249.566406 143.363281 257.625 143.304688 264.242188 C 143.421875 268.738281 142.929688 273.394531 144.359375 277.738281 C 144.75 278.582031 145.265625 279.355469 145.8125 280.101562 C 146.433594 280.941406 145.105469 282.210938 144.53125 281.234375 Z M 144.539062 281.238281 " fill-opacity="1" fill-rule="nonzero"/></g></g></g><g clip-path="url(#efe9392d31)"><g clip-path="url(#f706f4da54)"><g clip-path="url(#cf596c95ff)"><path fill="#ffffff" d="M 145.203125 280.179688 C 142.898438 272.175781 146.542969 263.90625 148.527344 256.179688 C 148.304688 252.691406 147.847656 247.5 144.265625 246.050781 C 143.875 245.753906 143.210938 245.738281 142.96875 245.308594 C 144.082031 244.066406 147.789062 247.566406 148.15625 248.9375 C 151.820312 255.058594 148.089844 261.429688 146.40625 267.441406 C 146.050781 270.734375 145.542969 274.078125 145.824219 277.390625 C 146.035156 278.125 146.628906 281.644531 145.199219 280.183594 Z M 145.203125 280.179688 " fill-opacity="1" fill-rule="nonzero"/></g></g></g><g clip-path="url(#fc58e8c6cf)"><g clip-path="url(#58940303aa)"><g clip-path="url(#12b895125c)"><path fill="#ffffff" d="M 161.859375 178.210938 C 157.386719 180.214844 153.726562 181.554688 149.945312 182.554688 C 148.722656 182.878906 147.476562 183.097656 146.207031 183.132812 C 144.003906 183.191406 142.109375 182.472656 140.515625 180.953125 C 139.390625 179.886719 138.503906 178.628906 137.664062 177.339844 C 135.792969 174.480469 134.238281 171.445312 132.777344 168.367188 C 130.558594 163.679688 127.878906 159.273438 124.917969 155.027344 C 122.179688 151.097656 119.820312 146.945312 117.53125 142.746094 C 116.664062 141.152344 115.726562 139.597656 114.851562 138.011719 C 114.570312 137.503906 114.21875 137.339844 113.648438 137.421875 C 113.164062 137.492188 112.660156 137.5 112.171875 137.441406 C 110.90625 137.296875 109.988281 136.625 109.6875 135.367188 C 109.359375 133.980469 109.097656 132.570312 108.925781 131.15625 C 108.765625 129.8125 109.199219 128.644531 110.429688 127.914062 C 110.832031 127.679688 110.964844 127.417969 110.84375 126.984375 C 110.375 125.339844 110.65625 123.71875 110.992188 122.101562 C 111.15625 121.3125 111.617188 120.714844 112.175781 120.164062 C 113.207031 119.15625 114.414062 118.394531 115.628906 117.648438 C 117.742188 116.351562 119.960938 115.253906 122.207031 114.214844 C 126.546875 112.199219 130.734375 109.886719 134.933594 107.597656 C 137.507812 106.195312 140.199219 105.117188 143.089844 104.570312 C 144.230469 104.351562 145.378906 104.25 146.53125 104.40625 C 147.917969 104.589844 148.992188 105.136719 149.578125 106.5625 C 150.042969 107.6875 151.039062 108.46875 151.929688 109.285156 C 152.027344 109.375 152.238281 109.410156 152.375 109.375 C 152.582031 109.328125 152.769531 109.191406 152.972656 109.105469 C 153.800781 108.75 154.605469 108.808594 155.296875 109.382812 C 156.523438 110.398438 157.71875 111.453125 158.910156 112.511719 C 159.148438 112.726562 159.324219 113.027344 159.492188 113.308594 C 160.171875 114.445312 160.273438 115.605469 159.425781 116.691406 C 159.085938 117.128906 158.953125 117.488281 159.160156 118.027344 C 160.679688 121.988281 161.632812 126.117188 162.667969 130.21875 C 163.9375 135.230469 165.386719 140.183594 167.132812 145.050781 C 169.214844 150.855469 170.890625 156.773438 172.207031 162.792969 C 172.5 164.132812 172.804688 165.476562 173.042969 166.824219 C 173.15625 167.46875 173.148438 168.136719 173.148438 168.792969 C 173.148438 169.347656 173.011719 169.894531 172.714844 170.367188 C 171.582031 172.207031 170.3125 173.917969 168.34375 174.972656 C 167.8125 175.253906 167.316406 175.617188 166.777344 175.878906 C 164.84375 176.8125 162.902344 177.71875 161.859375 178.210938 Z M 123.441406 145.992188 C 123.683594 146.425781 123.808594 146.660156 123.941406 146.890625 C 125.285156 149.222656 126.652344 151.535156 127.886719 153.929688 C 130 158.027344 132.109375 162.132812 134.316406 166.179688 C 135.59375 168.519531 135.175781 168.210938 137.597656 167.78125 C 142.652344 166.878906 147.476562 165.199219 152.136719 163.078125 C 156.941406 160.890625 161.421875 158.113281 165.835938 155.222656 C 166.695312 154.660156 166.832031 154.613281 166.542969 153.519531 C 166.148438 152.035156 165.785156 150.539062 165.507812 149.027344 C 164.429688 143.234375 162.777344 137.609375 160.695312 132.101562 C 160.558594 131.742188 160.417969 131.382812 160.257812 131.035156 C 160.113281 130.722656 159.863281 130.703125 159.585938 130.859375 C 159.394531 130.964844 159.214844 131.09375 159.03125 131.210938 C 155.34375 133.632812 151.453125 135.652344 147.300781 137.140625 C 144.195312 138.253906 141.140625 139.476562 138.152344 140.871094 C 136.359375 141.707031 134.574219 142.558594 132.769531 143.367188 C 130.917969 144.203125 129.042969 144.976562 127.054688 145.457031 C 125.9375 145.722656 124.785156 145.769531 123.441406 145.992188 Z M 139.292969 138.558594 C 139.636719 138.382812 139.980469 138.207031 140.324219 138.03125 C 144.675781 135.804688 149.039062 133.605469 153.371094 131.347656 C 155.171875 130.410156 156.90625 129.347656 158.683594 128.363281 C 159.09375 128.132812 159.191406 127.84375 159.054688 127.414062 C 158.203125 124.742188 157.433594 122.054688 156.953125 119.289062 C 156.84375 118.65625 156.605469 118.53125 156.046875 118.789062 C 154.101562 119.695312 152.1875 120.652344 150.351562 121.761719 C 146.925781 123.835938 143.542969 125.992188 140.089844 128.019531 C 137.578125 129.492188 134.96875 130.777344 132.226562 131.792969 C 128.207031 133.277344 124.066406 134.394531 119.992188 135.703125 C 119.15625 135.972656 118.328125 136.261719 117.5 136.554688 C 117.203125 136.660156 117.070312 136.894531 117.222656 137.195312 C 117.425781 137.585938 117.625 137.984375 117.882812 138.335938 C 119.152344 140.058594 120.449219 141.761719 121.71875 143.484375 C 121.988281 143.847656 122.316406 143.933594 122.71875 143.851562 C 123.792969 143.636719 124.878906 143.441406 125.941406 143.1875 C 130.542969 142.078125 135.0625 140.722656 139.292969 138.558594 Z M 136.945312 170.265625 C 136.992188 170.539062 136.980469 170.664062 137.035156 170.75 C 138.445312 173.039062 139.933594 175.277344 141.511719 177.457031 C 143.40625 180.074219 145.9375 180.914062 149.03125 180.371094 C 149.140625 180.351562 149.246094 180.328125 149.351562 180.308594 C 152.34375 179.726562 155.183594 178.714844 157.800781 177.148438 C 160.441406 175.574219 163.050781 173.945312 165.667969 172.332031 C 167.023438 171.496094 168.3125 170.5625 169.617188 169.652344 C 170.722656 168.878906 171.070312 167.933594 170.785156 166.679688 C 170.625 165.984375 170.476562 165.285156 170.265625 164.601562 C 169.953125 163.609375 169.597656 162.625 169.238281 161.644531 C 168.84375 160.558594 168.433594 159.480469 168.011719 158.40625 C 167.757812 157.757812 167.625 157.71875 167.074219 158.054688 C 165.335938 159.113281 163.53125 160.042969 161.675781 160.882812 C 159.925781 161.679688 158.167969 162.464844 156.457031 163.339844 C 153.71875 164.742188 151.019531 166.21875 148.296875 167.65625 C 146.148438 168.792969 143.882812 169.613281 141.496094 170.089844 C 140.035156 170.382812 138.558594 170.347656 136.945312 170.265625 Z M 129.867188 130.183594 C 131.601562 129.457031 133.609375 128.320312 135.679688 127.304688 C 141.988281 124.207031 148.171875 120.875 154.375 117.574219 C 155.148438 117.160156 155.878906 116.667969 156.59375 116.15625 C 157.183594 115.734375 157.386719 115.125 157.148438 114.40625 C 157.058594 114.148438 156.992188 113.875 156.855469 113.640625 C 156.097656 112.359375 154.878906 111.621094 153.601562 110.96875 C 153.355469 110.839844 153.035156 111.039062 152.976562 111.320312 C 152.890625 111.75 152.875 112.199219 152.722656 112.601562 C 152.375 113.527344 151.621094 114.078125 150.78125 114.53125 C 149.332031 115.3125 147.867188 116.0625 146.441406 116.886719 C 141.96875 119.464844 137.390625 121.84375 132.75 124.105469 C 130.582031 125.160156 128.375 126.160156 126.140625 127.074219 C 122.929688 128.390625 119.566406 129.191406 116.128906 129.664062 C 114.867188 129.835938 113.605469 129.882812 112.429688 129.253906 C 112.117188 129.085938 111.878906 129.179688 111.742188 129.453125 C 111.023438 130.898438 110.957031 132.402344 111.417969 133.929688 C 111.585938 134.5 112.007812 134.855469 112.609375 134.929688 C 113.039062 134.984375 113.480469 135.003906 113.917969 134.996094 C 115.132812 134.976562 116.320312 134.761719 117.492188 134.46875 C 121.605469 133.4375 125.601562 132.078125 129.867188 130.183594 Z M 128.359375 118.296875 C 131.582031 117.046875 135.453125 114.839844 139.433594 112.863281 C 140.710938 112.226562 141.996094 111.601562 143.257812 110.933594 C 144.613281 110.214844 145.980469 109.496094 147.066406 108.371094 C 147.4375 107.988281 147.9375 107.574219 147.621094 106.964844 C 147.351562 106.457031 146.757812 106.53125 146.277344 106.550781 C 145.066406 106.589844 143.882812 106.847656 142.734375 107.238281 C 140.398438 108.039062 138.050781 108.8125 135.738281 109.675781 C 133.011719 110.699219 130.316406 111.804688 127.769531 113.226562 C 124.273438 115.1875 120.78125 117.148438 117.292969 119.121094 C 116.046875 119.828125 114.894531 120.664062 113.949219 121.753906 C 113.742188 121.992188 113.855469 122.308594 114.152344 122.390625 C 115.070312 122.640625 115.996094 122.613281 116.929688 122.492188 C 118.46875 122.292969 119.914062 121.761719 121.339844 121.195312 C 123.378906 120.382812 125.402344 119.519531 128.359375 118.296875 Z M 113.324219 125.304688 C 113.210938 126.058594 113.382812 126.578125 113.5625 127.097656 C 113.875 128.011719 114.285156 128.304688 115.269531 128.324219 C 115.59375 128.332031 115.925781 128.273438 116.246094 128.230469 C 117.242188 128.097656 118.144531 127.695312 119.054688 127.300781 C 121.472656 126.257812 123.886719 125.210938 126.382812 124.351562 C 129.601562 123.246094 132.828125 122.148438 135.875 120.605469 C 139.011719 119.023438 142.140625 117.429688 145.246094 115.78125 C 146.402344 115.164062 147.492188 114.40625 148.582031 113.671875 C 149.261719 113.207031 149.847656 112.625 150.316406 111.933594 C 150.757812 111.273438 150.800781 110.601562 150.386719 109.921875 C 150.214844 109.644531 150.011719 109.382812 149.792969 109.140625 C 149.359375 108.65625 149.152344 108.652344 148.761719 109.15625 C 147.058594 111.378906 144.824219 112.9375 142.410156 114.28125 C 140.4375 115.382812 138.367188 116.261719 136.28125 117.113281 C 134.960938 117.648438 133.621094 118.160156 132.34375 118.789062 C 128.101562 120.878906 123.765625 122.730469 119.332031 124.363281 C 117.40625 125.074219 115.484375 125.660156 113.324219 125.304688 Z M 113.324219 125.304688 " fill-opacity="1" fill-rule="nonzero"/></g></g></g><g clip-path="url(#49fa2466f8)"><g clip-path="url(#4be7af89d6)"><g clip-path="url(#aa4eacd83e)"><path fill="#ffffff" d="M 149.460938 159.832031 C 147.878906 160.554688 146.5625 160.902344 145.160156 160.890625 C 141.320312 160.855469 138.34375 158.136719 137.832031 154.199219 C 137.617188 152.53125 137.785156 150.890625 138.382812 149.328125 C 139.96875 145.175781 142.554688 141.882812 146.6875 139.976562 C 147.035156 139.816406 147.367188 139.621094 147.695312 139.425781 C 151.070312 137.386719 154.871094 138.261719 157.03125 141.570312 C 157.898438 142.898438 158.292969 144.359375 158.320312 145.9375 C 158.335938 146.765625 158.261719 147.585938 158.074219 148.390625 C 157.097656 152.546875 154.996094 155.992188 151.570312 158.59375 C 150.816406 159.164062 149.984375 159.574219 149.460938 159.832031 Z M 150.125 140.890625 C 149.660156 140.910156 149.488281 140.882812 149.34375 140.933594 C 149.035156 141.039062 148.726562 141.164062 148.445312 141.328125 C 145.25 143.191406 142.707031 145.71875 140.824219 148.898438 C 140.464844 149.503906 140.21875 150.191406 139.996094 150.863281 C 139.660156 151.875 139.632812 152.921875 139.867188 153.957031 C 140.273438 155.753906 141.371094 156.960938 143.085938 157.628906 C 143.824219 157.914062 144.4375 157.804688 145.078125 157.324219 C 147.046875 155.832031 148.074219 153.867188 148.199219 151.417969 C 148.257812 150.316406 148.125 149.226562 148 148.136719 C 147.691406 145.527344 148.035156 143.089844 150.125 140.890625 Z M 149.257812 156.480469 C 149.363281 156.457031 149.484375 156.460938 149.574219 156.410156 C 152.621094 154.527344 154.808594 151.945312 155.980469 148.539062 C 156.304688 147.597656 156.453125 146.621094 156.40625 145.625 C 156.324219 143.871094 155.617188 142.453125 154.132812 141.46875 C 153.527344 141.0625 153.359375 141.078125 152.871094 141.609375 C 151.535156 143.078125 150.796875 144.832031 150.519531 146.773438 C 150.355469 147.910156 150.308594 149.066406 150.230469 150.214844 C 150.101562 152.132812 149.929688 154.042969 149.234375 155.863281 C 149.15625 156.074219 149.113281 156.28125 149.257812 156.480469 Z M 149.257812 156.480469 " fill-opacity="1" fill-rule="nonzero"/></g></g></g><g clip-path="url(#aad2747055)"><g clip-path="url(#20626bae4e)"><g clip-path="url(#26ffdc8479)"><path fill="#ffffff" d="M 143.757812 109.972656 C 143.386719 110.121094 143.066406 110.242188 142.742188 110.125 C 142.621094 110.082031 142.441406 109.859375 142.46875 109.789062 C 142.746094 109.082031 142.992188 108.355469 143.378906 107.710938 C 143.6875 107.195312 144.605469 107.460938 144.828125 108.074219 C 144.96875 108.464844 144.90625 108.839844 144.695312 109.175781 C 144.457031 109.550781 144.117188 109.832031 143.757812 109.972656 Z M 143.757812 109.972656 " fill-opacity="1" fill-rule="nonzero"/></g></g></g><g clip-path="url(#543197127f)"><g clip-path="url(#d658a8c4bb)"><g clip-path="url(#a2f9bc3bd2)"><path fill="#ffffff" d="M 138.140625 420.199219 C 133.710938 419.128906 130.257812 418.039062 126.910156 416.625 C 125.824219 416.171875 124.789062 415.625 123.832031 414.925781 C 122.179688 413.722656 121.195312 412.113281 120.882812 410.09375 C 120.664062 408.667969 120.726562 407.246094 120.839844 405.816406 C 121.085938 402.652344 121.667969 399.535156 122.34375 396.441406 C 123.371094 391.734375 123.898438 386.972656 124.136719 382.171875 C 124.351562 377.722656 124.972656 373.328125 125.675781 368.941406 C 125.941406 367.277344 126.136719 365.601562 126.394531 363.9375 C 126.476562 363.402344 126.308594 363.082031 125.84375 362.820312 C 125.449219 362.597656 125.070312 362.316406 124.746094 361.996094 C 123.898438 361.167969 123.601562 360.15625 124.097656 359.058594 C 124.640625 357.851562 125.25 356.667969 125.929688 355.53125 C 126.574219 354.449219 127.558594 353.835938 128.875 354 C 129.300781 354.054688 129.550781 353.941406 129.707031 353.546875 C 130.296875 352.074219 131.425781 351.042969 132.589844 350.042969 C 133.15625 349.554688 133.835938 349.378906 134.558594 349.292969 C 135.890625 349.132812 137.210938 349.257812 138.53125 349.402344 C 140.820312 349.648438 143.074219 350.101562 145.316406 350.609375 C 149.652344 351.59375 154.046875 352.269531 158.433594 352.96875 C 161.125 353.402344 163.714844 354.140625 166.152344 355.375 C 167.113281 355.863281 168.019531 356.4375 168.777344 357.207031 C 169.691406 358.132812 170.171875 359.144531 169.796875 360.523438 C 169.496094 361.617188 169.785156 362.757812 169.976562 363.859375 C 169.996094 363.984375 170.132812 364.128906 170.253906 364.183594 C 170.433594 364.265625 170.648438 364.269531 170.84375 364.320312 C 171.65625 364.53125 172.214844 365.03125 172.398438 365.847656 C 172.722656 367.292969 173.003906 368.746094 173.277344 370.199219 C 173.332031 370.492188 173.289062 370.8125 173.253906 371.117188 C 173.109375 372.339844 172.523438 373.25 171.285156 373.566406 C 170.785156 373.695312 170.484375 373.886719 170.332031 374.398438 C 169.199219 378.175781 167.554688 381.753906 165.988281 385.359375 C 164.078125 389.765625 162.328125 394.234375 160.847656 398.804688 C 159.085938 404.253906 156.957031 409.558594 154.503906 414.734375 C 153.960938 415.886719 153.421875 417.046875 152.832031 418.171875 C 152.550781 418.710938 152.164062 419.199219 151.792969 419.679688 C 151.476562 420.089844 151.066406 420.410156 150.578125 420.59375 C 148.703125 421.300781 146.796875 421.84375 144.75 421.496094 C 144.195312 421.402344 143.628906 421.386719 143.082031 421.273438 C 141.132812 420.863281 139.1875 420.425781 138.140625 420.199219 Z M 128.179688 374.683594 C 128.109375 375.140625 128.070312 375.382812 128.035156 375.628906 C 127.699219 378.105469 127.394531 380.585938 126.941406 383.046875 C 126.167969 387.261719 125.390625 391.476562 124.714844 395.710938 C 124.324219 398.15625 124.191406 397.691406 126.21875 398.75 C 130.449219 400.953125 134.949219 402.460938 139.582031 403.546875 C 144.359375 404.664062 149.234375 405.167969 154.121094 405.546875 C 155.070312 405.621094 155.199219 405.664062 155.605469 404.695312 C 156.160156 403.378906 156.742188 402.074219 157.394531 400.804688 C 159.894531 395.933594 161.875 390.855469 163.46875 385.621094 C 163.570312 385.28125 163.671875 384.9375 163.753906 384.589844 C 163.824219 384.277344 163.648438 384.121094 163.359375 384.078125 C 163.15625 384.050781 162.953125 384.039062 162.75 384.023438 C 158.664062 383.710938 154.652344 382.984375 150.753906 381.722656 C 147.835938 380.777344 144.894531 379.941406 141.90625 379.269531 C 140.113281 378.867188 138.320312 378.480469 136.53125 378.054688 C 134.695312 377.617188 132.875 377.121094 131.140625 376.34375 C 130.167969 375.902344 129.292969 375.285156 128.179688 374.683594 Z M 144.0625 378.21875 C 144.414062 378.285156 144.761719 378.347656 145.117188 378.417969 C 149.582031 379.25 154.039062 380.109375 158.511719 380.90625 C 160.367188 381.242188 162.246094 381.449219 164.109375 381.730469 C 164.542969 381.792969 164.78125 381.636719 164.925781 381.242188 C 165.8125 378.796875 166.773438 376.378906 167.992188 374.074219 C 168.269531 373.546875 168.164062 373.316406 167.605469 373.191406 C 165.664062 372.753906 163.710938 372.371094 161.730469 372.144531 C 158.03125 371.722656 154.324219 371.390625 150.628906 370.917969 C 147.949219 370.578125 145.296875 370.039062 142.703125 369.230469 C 138.902344 368.039062 135.226562 366.507812 131.484375 365.15625 C 130.71875 364.878906 129.945312 364.621094 129.167969 364.371094 C 128.890625 364.28125 128.65625 364.375 128.601562 364.683594 C 128.527344 365.085938 128.449219 365.488281 128.4375 365.894531 C 128.394531 367.882812 128.378906 369.875 128.335938 371.859375 C 128.328125 372.28125 128.519531 372.53125 128.863281 372.699219 C 129.777344 373.152344 130.683594 373.625 131.613281 374.042969 C 135.625 375.839844 139.71875 377.40625 144.0625 378.21875 Z M 124.328125 400.203125 C 124.207031 400.433594 124.128906 400.519531 124.117188 400.613281 C 123.859375 403.097656 123.679688 405.589844 123.601562 408.089844 C 123.507812 411.089844 124.898438 413.144531 127.476562 414.5 C 127.570312 414.546875 127.660156 414.59375 127.75 414.640625 C 130.28125 415.910156 132.945312 416.777344 135.757812 417.113281 C 138.59375 417.453125 141.4375 417.734375 144.28125 418.035156 C 145.75 418.191406 147.230469 418.238281 148.707031 418.308594 C 149.957031 418.367188 150.753906 417.867188 151.253906 416.785156 C 151.53125 416.183594 151.820312 415.582031 152.050781 414.964844 C 152.386719 414.054688 152.683594 413.128906 152.976562 412.203125 C 153.300781 411.179688 153.609375 410.15625 153.910156 409.125 C 154.089844 408.503906 154.015625 408.398438 153.421875 408.332031 C 151.539062 408.125 149.6875 407.785156 147.84375 407.351562 C 146.105469 406.9375 144.367188 406.519531 142.609375 406.191406 C 139.800781 405.667969 136.976562 405.222656 134.160156 404.734375 C 131.933594 404.347656 129.800781 403.664062 127.773438 402.660156 C 126.53125 402.046875 125.464844 401.183594 124.328125 400.203125 Z M 141.882812 366.707031 C 143.570312 367.15625 145.691406 367.460938 147.792969 367.886719 C 154.191406 369.191406 160.632812 370.253906 167.070312 371.347656 C 167.871094 371.484375 168.691406 371.539062 169.503906 371.566406 C 170.179688 371.589844 170.675781 371.257812 170.90625 370.59375 C 170.988281 370.351562 171.09375 370.113281 171.125 369.863281 C 171.296875 368.492188 170.820312 367.253906 170.25 366.050781 C 170.140625 365.816406 169.792969 365.78125 169.589844 365.953125 C 169.285156 366.21875 169.019531 366.546875 168.679688 366.753906 C 167.898438 367.238281 167.027344 367.214844 166.15625 367.070312 C 164.644531 366.820312 163.140625 366.539062 161.625 366.335938 C 156.871094 365.695312 152.152344 364.84375 147.457031 363.871094 C 145.257812 363.417969 143.070312 362.898438 140.910156 362.304688 C 137.796875 361.445312 134.871094 360.125 132.074219 358.519531 C 131.046875 357.933594 130.089844 357.25 129.582031 356.117188 C 129.449219 355.820312 129.21875 355.753906 128.964844 355.875 C 127.617188 356.53125 126.714844 357.597656 126.183594 358.984375 C 125.988281 359.5 126.09375 360 126.492188 360.394531 C 126.78125 360.679688 127.09375 360.945312 127.417969 361.191406 C 128.320312 361.863281 129.320312 362.378906 130.347656 362.832031 C 133.957031 364.410156 137.667969 365.679688 141.882812 366.707031 Z M 147.523438 357.105469 C 150.601562 358.015625 154.703125 358.59375 158.753906 359.398438 C 160.054688 359.65625 161.355469 359.925781 162.664062 360.152344 C 164.070312 360.390625 165.484375 360.640625 166.917969 360.429688 C 167.410156 360.355469 168.015625 360.335938 168.125 359.710938 C 168.214844 359.183594 167.734375 358.902344 167.375 358.644531 C 166.457031 357.984375 165.441406 357.5 164.378906 357.136719 C 162.203125 356.398438 160.039062 355.632812 157.84375 354.957031 C 155.261719 354.160156 152.652344 353.441406 149.96875 353.042969 C 146.285156 352.5 142.601562 351.957031 138.917969 351.429688 C 137.601562 351.242188 136.273438 351.203125 134.960938 351.46875 C 134.675781 351.523438 134.578125 351.820312 134.75 352.050781 C 135.28125 352.753906 135.980469 353.261719 136.734375 353.699219 C 137.980469 354.429688 139.34375 354.859375 140.714844 355.253906 C 142.675781 355.8125 144.652344 356.328125 147.523438 357.105469 Z M 132.488281 353.722656 C 131.976562 354.210938 131.804688 354.695312 131.640625 355.175781 C 131.355469 356.027344 131.488281 356.476562 132.203125 357.050781 C 132.4375 357.238281 132.710938 357.382812 132.976562 357.535156 C 133.78125 358 134.675781 358.21875 135.566406 358.445312 C 137.9375 359.054688 140.308594 359.652344 142.632812 360.4375 C 145.625 361.453125 148.625 362.476562 151.742188 363.074219 C 154.945312 363.691406 158.15625 364.292969 161.371094 364.84375 C 162.574219 365.050781 163.804688 365.109375 165.023438 365.1875 C 165.789062 365.234375 166.550781 365.136719 167.285156 364.894531 C 167.984375 364.660156 168.398438 364.191406 168.480469 363.457031 C 168.511719 363.15625 168.511719 362.84375 168.488281 362.542969 C 168.441406 361.941406 168.292969 361.820312 167.722656 361.96875 C 165.203125 362.636719 162.679688 362.515625 160.136719 362.132812 C 158.0625 361.820312 156.039062 361.292969 154.023438 360.734375 C 152.746094 360.378906 151.472656 359.996094 150.175781 359.730469 C 145.867188 358.859375 141.628906 357.761719 137.4375 356.441406 C 135.617188 355.871094 133.871094 355.214844 132.488281 353.722656 Z M 132.488281 353.722656 " fill-opacity="1" fill-rule="nonzero"/></g></g></g><g clip-path="url(#6a36798ea6)"><g clip-path="url(#ab16b98cab)"><g clip-path="url(#df78325e70)"><path fill="#ffffff" d="M 139.457031 399.636719 C 137.882812 399.273438 136.71875 398.78125 135.695312 397.976562 C 132.890625 395.769531 132.242188 392.078125 134.105469 388.890625 C 134.894531 387.542969 135.949219 386.433594 137.273438 385.625 C 140.800781 383.46875 144.570312 382.515625 148.695312 383.460938 C 149.039062 383.539062 149.394531 383.585938 149.75 383.625 C 153.386719 384.042969 155.6875 386.847656 155.394531 390.507812 C 155.28125 391.976562 154.738281 393.273438 153.863281 394.449219 C 153.40625 395.066406 152.886719 395.628906 152.289062 396.113281 C 149.210938 398.617188 145.710938 399.957031 141.714844 399.925781 C 140.835938 399.917969 139.992188 399.746094 139.457031 399.636719 Z M 150.703125 386.082031 C 150.347656 385.835938 150.238281 385.714844 150.105469 385.671875 C 149.816406 385.578125 149.519531 385.492188 149.21875 385.453125 C 145.808594 385.011719 142.503906 385.425781 139.3125 386.691406 C 138.703125 386.933594 138.132812 387.296875 137.589844 387.667969 C 136.769531 388.222656 136.15625 388.976562 135.738281 389.871094 C 135.019531 391.421875 135.136719 392.933594 136.019531 394.398438 C 136.402344 395.027344 136.914062 395.296875 137.660156 395.304688 C 139.953125 395.324219 141.824219 394.464844 143.308594 392.734375 C 143.976562 391.957031 144.5 391.082031 145.027344 390.207031 C 146.28125 388.113281 147.914062 386.515625 150.703125 386.082031 Z M 141.210938 397.058594 C 141.300781 397.101562 141.390625 397.175781 141.484375 397.183594 C 144.792969 397.53125 147.871094 396.878906 150.664062 395.035156 C 151.4375 394.527344 152.101562 393.894531 152.632812 393.132812 C 153.566406 391.796875 153.855469 390.355469 153.324219 388.785156 C 153.105469 388.144531 152.976562 388.058594 152.3125 388.175781 C 150.496094 388.496094 148.957031 389.363281 147.652344 390.632812 C 146.886719 391.378906 146.195312 392.199219 145.484375 393 C 144.300781 394.339844 143.085938 395.648438 141.542969 396.59375 C 141.367188 396.699219 141.21875 396.828125 141.210938 397.058594 Z M 141.210938 397.058594 " fill-opacity="1" fill-rule="nonzero"/></g></g></g><g clip-path="url(#cfb097797b)"><g clip-path="url(#d8c7141ef9)"><g clip-path="url(#d9289a07de)"><path fill="#ffffff" d="M 163.578125 359.726562 C 163.21875 359.628906 162.917969 359.535156 162.742188 359.265625 C 162.679688 359.164062 162.671875 358.898438 162.734375 358.863281 C 163.335938 358.5 163.933594 358.105469 164.582031 357.847656 C 165.101562 357.644531 165.625 358.359375 165.441406 358.941406 C 165.324219 359.308594 165.0625 359.550781 164.71875 359.671875 C 164.328125 359.8125 163.921875 359.832031 163.578125 359.726562 Z M 163.578125 359.726562 " fill-opacity="1" fill-rule="nonzero"/></g></g></g><g clip-path="url(#7390e6dec3)"><g clip-path="url(#030b4fd765)"><g clip-path="url(#893100679c)"><path fill="#ffffff" d="M 43.332031 516.714844 C 39.949219 512.597656 36.785156 507.410156 37.410156 501.863281 C 39.3125 490.839844 52.28125 478.0625 63.160156 486.40625 C 66.550781 488.667969 67.34375 492.601562 68.738281 496.152344 C 69.160156 499.476562 67.519531 502.8125 66.820312 506.039062 C 64.871094 516.085938 51.980469 525.046875 43.332031 516.714844 Z M 62.816406 487.402344 C 54.070312 480.765625 40.867188 492.566406 40.003906 501.878906 C 40.453125 506.113281 40.125 510.8125 43.484375 513.953125 C 45.015625 516.074219 46.566406 519.074219 49.554688 519.046875 C 59.652344 520.410156 66.222656 509.953125 67.230469 501.113281 C 69.308594 496.070312 66.664062 490.792969 62.816406 487.402344 Z M 62.816406 487.402344 " fill-opacity="1" fill-rule="nonzero"/></g></g></g><g clip-path="url(#63d906e936)"><g clip-path="url(#7284d2341c)"><g clip-path="url(#565fcd53bd)"><path fill="#ffffff" d="M 45.660156 516.679688 C 62.261719 496.4375 46.167969 492.851562 58.972656 485.375 C 52.886719 491.550781 54.820312 490.925781 55.214844 498.894531 C 54.171875 505.835938 50.1875 511.4375 46.382812 517.089844 C 46.085938 517.535156 45.339844 517.207031 45.65625 516.675781 Z M 45.660156 516.679688 " fill-opacity="1" fill-rule="nonzero"/></g></g></g><g clip-path="url(#ef7d425f75)"><g clip-path="url(#443f95ed1d)"><g clip-path="url(#fa441a14bd)"><path fill="#ffffff" d="M 45.507812 517.695312 C 51.199219 513.078125 59.910156 506.707031 58.5 498.179688 C 58.296875 494.511719 56.5 490.464844 58.078125 487.003906 C 58.457031 486.363281 58.660156 485.464844 59.363281 485.113281 C 59.992188 485 59.683594 485.75 59.519531 486.046875 C 56.058594 491.421875 62.046875 497.175781 59.585938 502.65625 C 58.4375 507.582031 50.214844 516.410156 45.507812 517.695312 Z M 45.507812 517.695312 " fill-opacity="1" fill-rule="nonzero"/></g></g></g><g clip-path="url(#a6f3eb1db9)"><g clip-path="url(#117de4790d)"><g clip-path="url(#5cfdc4cbb1)"><path fill="#ffffff" d="M 48.28125 545.230469 C 42.15625 538.796875 45.824219 533.765625 51.582031 528.894531 C 59.554688 522.132812 74.90625 519.746094 83.140625 527.144531 C 93.929688 537.953125 76.363281 548.257812 66.496094 549.730469 C 60.363281 550.722656 52.851562 549.730469 48.285156 545.226562 Z M 46.984375 536.519531 C 45.21875 538.570312 47.703125 540.601562 48.996094 542.15625 C 50.699219 544.484375 53.058594 546.367188 56.003906 546.726562 C 62.0625 547.671875 68.386719 546.128906 74.339844 544.929688 C 78.675781 542.882812 82.5625 539.34375 85.097656 535.285156 C 86.921875 530.351562 80.21875 526.445312 76.570312 524.394531 C 65.417969 522.023438 52.601562 525.730469 46.40625 535.792969 C 46.804688 535.738281 47.105469 536.144531 46.984375 536.519531 Z M 46.984375 536.519531 " fill-opacity="1" fill-rule="nonzero"/></g></g></g><g clip-path="url(#84968ae446)"><g clip-path="url(#1e2a955958)"><g clip-path="url(#d55c87f9b6)"><path fill="#ffffff" d="M 46.007812 536.707031 C 46.40625 536.632812 46.003906 535.851562 46.410156 535.792969 C 52.214844 534.964844 59.675781 535.855469 65.21875 533.328125 C 68.261719 531.503906 70.984375 528.402344 74.730469 528.246094 C 78.347656 529.214844 83.042969 529.808594 85.570312 532.703125 C 85.328125 533.539062 84.515625 532.78125 84.089844 532.527344 C 79.742188 529.773438 73.441406 528.273438 69.199219 531.992188 C 66.859375 534.8125 63.324219 534.8125 60.042969 535.589844 C 57.316406 536.308594 54.648438 537.152344 51.796875 536.574219 C 50.035156 536.265625 47.199219 538.328125 46.003906 536.703125 Z M 46.007812 536.707031 " fill-opacity="1" fill-rule="nonzero"/></g></g></g><g clip-path="url(#6f63de8968)"><g clip-path="url(#63bbfef550)"><g clip-path="url(#cf587594a1)"><path fill="#ffffff" d="M 45.921875 537.441406 C 46.007812 537.234375 46.261719 537.050781 46.488281 537.117188 C 49.085938 537.753906 51.792969 537.523438 54.390625 538.261719 C 57.332031 538.109375 60.308594 538.066406 63.242188 537.800781 C 72.628906 534.539062 75.660156 530.886719 86.441406 533.253906 C 86.859375 534.367188 85.179688 533.746094 84.621094 533.75 C 80.234375 533.191406 75.972656 533.269531 71.980469 535.425781 C 65.21875 539.421875 56.839844 539.253906 49.285156 538.214844 C 48.339844 537.949219 46.070312 538.652344 45.925781 537.4375 Z M 45.921875 537.441406 " fill-opacity="1" fill-rule="nonzero"/></g></g></g><g clip-path="url(#1c82a923cb)"><g clip-path="url(#051c6e3afe)"><g clip-path="url(#1a10333c14)"><path fill="#ffffff" d="M 10.648438 541.652344 C 7.589844 531.652344 18.976562 516.425781 29.667969 519.472656 C 45.773438 521.824219 42.277344 541.710938 31.847656 548.957031 C 28.53125 550.621094 25.140625 553.09375 21.234375 552.574219 C 20.886719 552.53125 21.078125 552.007812 21.375 552.050781 C 27.382812 552.410156 32.75 548.027344 36.382812 543.628906 C 44.050781 532.042969 38.902344 516.648438 23.128906 522.144531 C 16.804688 524.65625 13.582031 531.976562 12.558594 538.3125 C 12.132812 543.734375 16.203125 548.304688 20.296875 551.324219 C 21.324219 550.738281 21.195312 552.175781 20.34375 552.308594 C 15.4375 551.851562 11.292969 546.414062 10.652344 541.652344 Z M 10.648438 541.652344 " fill-opacity="1" fill-rule="nonzero"/></g></g></g><g clip-path="url(#92fcb35764)"><g clip-path="url(#78244b8728)"><g clip-path="url(#0dbc41b942)"><path fill="#ffffff" d="M 20.441406 552.011719 C 19.972656 543.242188 22.972656 534.425781 29.347656 528.1875 C 32.160156 525.539062 28.714844 520.859375 30.476562 520.429688 C 34.25 526.855469 26.597656 531.769531 24.546875 537.324219 C 23.285156 541.148438 21.460938 544.917969 21.351562 549.011719 C 21.425781 549.839844 21.625 550.648438 21.859375 551.441406 C 22.128906 552.335938 20.625 553.003906 20.4375 552.007812 Z M 20.441406 552.011719 " fill-opacity="1" fill-rule="nonzero"/></g></g></g><g clip-path="url(#b6d40a22ce)"><g clip-path="url(#8b1bd7862c)"><g clip-path="url(#f6a5fff2aa)"><path fill="#ffffff" d="M 21.324219 551.320312 C 21.800781 543.882812 27.375 538.019531 31.382812 532.113281 C 32.25 529.109375 33.4375 524.597656 30.855469 522.292969 C 30.617188 521.925781 30.066406 521.710938 29.988281 521.277344 C 31.300781 520.566406 33.367188 524.632812 33.261719 525.902344 C 34.496094 532.164062 29.425781 536.402344 26.1875 540.957031 C 24.894531 543.625 23.453125 546.285156 22.6875 549.160156 C 22.644531 549.84375 22.082031 552.984375 21.320312 551.324219 Z M 21.324219 551.320312 " fill-opacity="1" fill-rule="nonzero"/></g></g></g><g clip-path="url(#f7ef0c1898)"><g clip-path="url(#b73c8d50be)"><g clip-path="url(#cffa627dab)"><path fill="#ffffff" d="M 110.242188 462.695312 C 104.542969 460.972656 98.378906 458.125 95.507812 452.585938 C 90.421875 441.167969 94.519531 421.242188 109.808594 422.226562 C 114.359375 422.21875 117.542969 425.375 121.046875 427.800781 C 123.503906 430.628906 124.054688 434.742188 125.410156 438.175781 C 129.847656 448.71875 123.453125 465.050781 110.242188 462.695312 Z M 110.105469 423.363281 C 97.863281 422.636719 92.9375 441.804688 97.925781 450.988281 C 100.976562 454.640625 103.59375 459.203125 108.667969 460.035156 C 111.40625 461.050781 114.714844 462.871094 117.472656 460.988281 C 127.695312 455.976562 127.289062 442.183594 122.730469 433.347656 C 121.523438 427.375 115.785156 424.117188 110.105469 423.363281 Z M 110.105469 423.363281 " fill-opacity="1" fill-rule="nonzero"/></g></g></g><g clip-path="url(#f64a4786cd)"><g clip-path="url(#d24822754e)"><g clip-path="url(#b9ee925c2a)"><path fill="#ffffff" d="M 112.382812 461.210938 C 115.210938 432.097656 98.039062 438.773438 105.277344 423.871094 C 103.46875 433.382812 104.871094 431.605469 110.195312 438.757812 C 113.539062 445.851562 113.324219 453.527344 113.308594 461.140625 C 113.308594 461.742188 112.414062 461.898438 112.378906 461.210938 Z M 112.382812 461.210938 " fill-opacity="1" fill-rule="nonzero"/></g></g></g><g clip-path="url(#2cf68d291f)"><g clip-path="url(#9646a0158d)"><g clip-path="url(#8e70415bd4)"><path fill="#ffffff" d="M 112.875 462.246094 C 115.285156 454.425781 119.414062 443.089844 112.800781 436.050781 C 110.328125 432.773438 106.144531 430.132812 105.457031 425.9375 C 105.414062 425.105469 105.042969 424.148438 105.476562 423.386719 C 105.992188 422.886719 106.171875 423.773438 106.203125 424.15625 C 106.332031 431.296875 115.46875 432.914062 116.59375 439.53125 C 118.585938 444.820312 116.441406 458.128906 112.875 462.246094 Z M 112.875 462.246094 " fill-opacity="1" fill-rule="nonzero"/></g></g></g><g clip-path="url(#61ddabf85d)"><g clip-path="url(#4c30b2f95a)"><g clip-path="url(#416b4d98e7)"><path fill="#ffffff" d="M 132.570312 486.089844 C 122.882812 483.925781 123.160156 476.972656 125.476562 468.871094 C 128.675781 457.632812 141.441406 445.875 153.6875 447.621094 C 170.425781 450.949219 160.523438 471.4375 152.277344 478.941406 C 147.199219 483.675781 139.609375 487.425781 132.570312 486.085938 Z M 125.949219 478.808594 C 125.585938 481.808594 129.152344 482.152344 131.320312 482.792969 C 134.351562 483.894531 137.710938 484.175781 140.667969 482.679688 C 146.886719 479.789062 151.792969 474.421875 156.578125 469.609375 C 159.328125 465.011719 160.738281 459.308594 160.566406 453.964844 C 159.191406 448.25 150.539062 448.789062 145.875 449.152344 C 134.050781 453.890625 124.457031 465.300781 124.957031 478.492188 C 125.296875 478.191406 125.824219 478.386719 125.949219 478.808594 Z M 125.949219 478.808594 " fill-opacity="1" fill-rule="nonzero"/></g></g></g><g clip-path="url(#fd89f735e8)"><g clip-path="url(#818f596504)"><g clip-path="url(#a5e9420c41)"><path fill="#ffffff" d="M 125.15625 479.589844 C 125.484375 479.273438 124.621094 478.796875 124.964844 478.488281 C 129.839844 474.113281 137.320312 470.300781 140.894531 464.507812 C 142.585938 460.921875 143.183594 456.347656 146.566406 453.875 C 150.523438 452.523438 155.253906 450.15625 159.402344 451.273438 C 159.699219 452.199219 158.46875 452 157.914062 452.03125 C 152.167969 452.179688 145.382812 454.703125 143.757812 460.792969 C 143.339844 464.863281 140.054688 467.0625 137.496094 469.824219 C 135.410156 472.191406 133.457031 474.628906 130.449219 475.867188 C 128.621094 476.675781 127.273438 480.355469 125.152344 479.589844 Z M 125.15625 479.589844 " fill-opacity="1" fill-rule="nonzero"/></g></g></g><g clip-path="url(#3edaf41ee8)"><g clip-path="url(#16d8f651e2)"><g clip-path="url(#6077155b96)"><path fill="#ffffff" d="M 125.535156 480.324219 C 125.484375 480.078125 125.605469 479.75 125.863281 479.671875 C 128.667969 478.648438 131.035156 476.753906 133.90625 475.820312 C 136.542969 473.851562 139.28125 471.960938 141.839844 469.890625 C 148.527344 461.027344 149.070312 455.75 160.554688 451.242188 C 161.632812 452.015625 159.6875 452.484375 159.171875 452.835938 C 154.75 455.042969 150.84375 457.765625 148.476562 462.25 C 144.683594 470.164062 136.800781 475.21875 129.136719 478.949219 C 128.09375 479.292969 126.425781 481.359375 125.539062 480.320312 Z M 125.535156 480.324219 " fill-opacity="1" fill-rule="nonzero"/></g></g></g><g clip-path="url(#6bc262f520)"><g clip-path="url(#3ae36873b7)"><g clip-path="url(#fe7c0a2c15)"><path fill="#ffffff" d="M 95.402344 506.167969 C 86.347656 498.785156 87.453125 477.566406 99.273438 473.746094 C 115.6875 465.917969 124.808594 486.558594 119.625 499.769531 C 117.585938 503.375 115.976562 507.777344 112.023438 509.726562 C 111.675781 509.898438 111.527344 509.300781 111.828125 509.152344 C 117.632812 505.746094 119.886719 498.34375 120.523438 492.003906 C 120.4375 476.476562 106.089844 465.386719 94.863281 480.292969 C 90.550781 486.5625 92.109375 495.359375 95.101562 501.878906 C 98.074219 507.179688 104.699219 508.890625 110.375 509.148438 C 110.964844 507.964844 111.738281 509.382812 111.03125 510.03125 C 106.191406 512.65625 98.960938 510.1875 95.40625 506.164062 Z M 95.402344 506.167969 " fill-opacity="1" fill-rule="nonzero"/></g></g></g><g clip-path="url(#bc4eaac458)"><g clip-path="url(#946eb9dfae)"><g clip-path="url(#2a572eafc1)"><path fill="#ffffff" d="M 110.9375 509.695312 C 105.050781 501.84375 102.355469 491.796875 104.390625 482.035156 C 105.355469 477.832031 99.25 475.628906 100.617188 474.132812 C 108.117188 477.753906 104.066406 487.074219 105.617188 493.507812 C 106.820312 497.84375 107.476562 502.476562 109.917969 506.34375 C 110.5 507.066406 111.1875 507.695312 111.898438 508.285156 C 112.707031 508.949219 111.722656 510.503906 110.933594 509.695312 Z M 110.9375 509.695312 " fill-opacity="1" fill-rule="nonzero"/></g></g></g><g clip-path="url(#640ca869fb)"><g clip-path="url(#bc00c381b7)"><g clip-path="url(#d48cf366a8)"><path fill="#ffffff" d="M 111.328125 508.507812 C 107.144531 501.300781 108.675781 492.394531 108.722656 484.421875 C 107.660156 481.089844 105.957031 476.164062 102.128906 475.628906 C 101.679688 475.433594 101.03125 475.578125 100.691406 475.222656 C 101.46875 473.75 105.914062 476.242188 106.605469 477.484375 C 111.644531 482.53125 109.570312 489.617188 109.398438 495.859375 C 109.855469 499.140625 110.171875 502.507812 111.253906 505.652344 C 111.636719 506.3125 113.066406 509.582031 111.324219 508.511719 Z M 111.328125 508.507812 " fill-opacity="1" fill-rule="nonzero"/></g></g></g></svg>