<svg xmlns="http://www.w3.org/2000/svg" xmlns:xlink="http://www.w3.org/1999/xlink" width="733" zoomAndPan="magnify" viewBox="0 0 549.75 93.749996" height="125" preserveAspectRatio="xMidYMid meet" version="1.0"><defs><filter x="0%" y="0%" width="100%" height="100%" id="f99bfbe436"><feColorMatrix values="0 0 0 0 1 0 0 0 0 1 0 0 0 0 1 0 0 0 1 0" color-interpolation-filters="sRGB"/></filter><clipPath id="120a6e4ce1"><path d="M 481 3 L 548.894531 3 L 548.894531 76 L 481 76 Z M 481 3 " clip-rule="nonzero"/></clipPath><mask id="2107a8ab8e"><g filter="url(#f99bfbe436)"><rect x="-54.975" width="659.7" fill="#000000" y="-9.375" height="112.499995" fill-opacity="0.35"/></g></mask><clipPath id="0923b003b1"><path d="M 0.246094 9 L 67 9 L 67 60 L 0.246094 60 Z M 0.246094 9 " clip-rule="nonzero"/></clipPath><clipPath id="06f22d5130"><path d="M 11 40 L 67 40 L 67 72.878906 L 11 72.878906 Z M 11 40 " clip-rule="nonzero"/></clipPath><clipPath id="1cd35e1802"><path d="M 18 0.351562 L 34 0.351562 L 34 18 L 18 18 Z M 18 0.351562 " clip-rule="nonzero"/></clipPath><clipPath id="086ce95c77"><rect x="0" width="68" y="0" height="73"/></clipPath><clipPath id="535b2055e0"><path d="M 0.605469 0 L 113 0 L 113 93.5 L 0.605469 93.5 Z M 0.605469 0 " clip-rule="nonzero"/></clipPath><mask id="5fd388f167"><g filter="url(#f99bfbe436)"><rect x="-54.975" width="659.7" fill="#000000" y="-9.375" height="112.499995" fill-opacity="0.35"/></g></mask><clipPath id="4905593924"><path d="M 31 29 L 43 29 L 43 38 L 31 38 Z M 31 29 " clip-rule="nonzero"/></clipPath><clipPath id="63d244640b"><path d="M 0.605469 13.511719 L 102.1875 -0.00390625 L 112.746094 79.332031 L 11.164062 92.851562 Z M 0.605469 13.511719 " clip-rule="nonzero"/></clipPath><clipPath id="eee883e745"><path d="M 0.605469 13.511719 L 102.1875 -0.00390625 L 112.746094 79.332031 L 11.164062 92.851562 Z M 0.605469 13.511719 " clip-rule="nonzero"/></clipPath><clipPath id="ee79045631"><path d="M 28 42 L 58 42 L 58 74 L 28 74 Z M 28 42 " clip-rule="nonzero"/></clipPath><clipPath id="c1ef6d81bf"><path d="M 0.605469 13.511719 L 102.1875 -0.00390625 L 112.746094 79.332031 L 11.164062 92.851562 Z M 0.605469 13.511719 " clip-rule="nonzero"/></clipPath><clipPath id="2c9c8d627e"><path d="M 0.605469 13.511719 L 102.1875 -0.00390625 L 112.746094 79.332031 L 11.164062 92.851562 Z M 0.605469 13.511719 " clip-rule="nonzero"/></clipPath><clipPath id="4885ef915d"><path d="M 7 3 L 106 3 L 106 88 L 7 88 Z M 7 3 " clip-rule="nonzero"/></clipPath><clipPath id="8e85bc75b5"><path d="M 0.605469 13.511719 L 102.1875 -0.00390625 L 112.746094 79.332031 L 11.164062 92.851562 Z M 0.605469 13.511719 " clip-rule="nonzero"/></clipPath><clipPath id="39e4bcdab3"><path d="M 0.605469 13.511719 L 102.1875 -0.00390625 L 112.746094 79.332031 L 11.164062 92.851562 Z M 0.605469 13.511719 " clip-rule="nonzero"/></clipPath><clipPath id="e65eb312de"><rect x="0" width="113" y="0" height="94"/></clipPath></defs><g clip-path="url(#120a6e4ce1)"><g mask="url(#2107a8ab8e)"><g transform="matrix(1, 0, 0, 1, 481, 3)"><g clip-path="url(#086ce95c77)"><g clip-path="url(#0923b003b1)"><path fill="#ad3bce" d="M 8.183594 59.488281 C 4.664062 59.488281 2.390625 58.613281 1.425781 56.886719 C 0.078125 54.484375 1.914062 51.519531 1.992188 51.394531 C 2.125 51.183594 2.3125 51.050781 2.554688 50.996094 C 2.800781 50.941406 3.027344 50.980469 3.238281 51.113281 C 3.449219 51.246094 3.585938 51.433594 3.640625 51.675781 C 3.695312 51.921875 3.65625 52.148438 3.523438 52.359375 C 3.148438 52.960938 2.320312 54.792969 3.003906 56.007812 C 3.640625 57.136719 5.519531 57.714844 8.4375 57.679688 C 12.367188 57.628906 15.890625 56.273438 18.929688 53.648438 C 21.195312 51.6875 22.292969 49.75 22.300781 49.730469 C 22.367188 49.613281 22.453125 49.519531 22.5625 49.441406 C 22.671875 49.363281 22.789062 49.308594 22.921875 49.285156 C 23.050781 49.261719 23.183594 49.265625 23.3125 49.296875 C 23.441406 49.328125 23.558594 49.386719 23.660156 49.46875 C 23.679688 49.484375 25.527344 50.960938 28.34375 51.953125 C 32.046875 53.265625 35.59375 53.171875 38.890625 51.675781 C 42.484375 50.046875 44.847656 47.832031 45.90625 45.097656 C 46.691406 43.070312 46.433594 41.476562 46.429688 41.460938 C 46.40625 41.332031 46.410156 41.199219 46.445312 41.070312 C 46.480469 40.941406 46.539062 40.828125 46.625 40.722656 C 46.710938 40.621094 46.816406 40.542969 46.9375 40.484375 C 47.058594 40.429688 47.183594 40.398438 47.316406 40.398438 C 47.414062 40.398438 57.207031 40.3125 62.765625 36.570312 C 64.367188 35.492188 65.160156 34.332031 65.121094 33.128906 C 65.050781 31.003906 62.472656 28.863281 61.023438 27.902344 C 51.683594 34.582031 41.160156 39.644531 29.730469 42.945312 C 20.246094 45.6875 12.25 46.609375 7.210938 46.898438 C 7.085938 46.90625 6.960938 46.910156 6.839844 46.910156 C 6.089844 46.910156 5.359375 46.78125 4.65625 46.519531 C 3.953125 46.261719 3.316406 45.886719 2.746094 45.398438 C 2.175781 44.914062 1.707031 44.339844 1.339844 43.6875 C 0.972656 43.03125 0.730469 42.332031 0.617188 41.589844 C 0.0078125 37.808594 -0.0351562 32.113281 3.210938 26.480469 C 6.996094 19.914062 14.292969 15.023438 24.894531 11.933594 C 31.152344 10.109375 36.90625 9.433594 41.996094 9.925781 C 46.109375 10.324219 49.804688 11.476562 52.976562 13.355469 C 58.417969 16.582031 60.410156 20.792969 60.492188 20.972656 C 60.597656 21.199219 60.605469 21.429688 60.519531 21.664062 C 60.433594 21.898438 60.277344 22.066406 60.050781 22.171875 C 59.824219 22.277344 59.59375 22.285156 59.359375 22.199219 C 59.125 22.113281 58.957031 21.957031 58.851562 21.730469 C 58.832031 21.695312 56.957031 17.785156 51.953125 14.855469 C 45.296875 10.960938 36.117188 10.550781 25.402344 13.671875 C 2.59375 20.308594 1.199219 33.835938 2.398438 41.304688 C 2.488281 41.855469 2.667969 42.371094 2.949219 42.855469 C 3.226562 43.339844 3.585938 43.753906 4.019531 44.105469 C 4.453125 44.457031 4.9375 44.714844 5.46875 44.886719 C 6 45.058594 6.546875 45.125 7.101562 45.09375 C 15.964844 44.582031 38.894531 41.707031 60.457031 26.082031 C 60.773438 25.851562 61.101562 25.835938 61.441406 26.03125 C 61.660156 26.15625 66.800781 29.179688 66.933594 33.066406 C 66.996094 34.933594 65.933594 36.621094 63.777344 38.070312 C 58.769531 41.441406 50.996094 42.066406 48.285156 42.183594 C 48.273438 43.371094 48.058594 44.523438 47.636719 45.632812 C 46.804688 47.867188 44.738281 51.011719 39.640625 53.324219 C 37.660156 54.222656 35.585938 54.671875 33.410156 54.667969 C 31.53125 54.667969 29.601562 54.324219 27.679688 53.636719 C 26.144531 53.085938 24.695312 52.363281 23.335938 51.460938 C 22.40625 52.777344 21.335938 53.960938 20.117188 55.015625 C 17.800781 57.015625 13.902344 59.417969 8.464844 59.488281 Z M 8.183594 59.488281 " fill-opacity="1" fill-rule="nonzero"/></g><path fill="#ad3bce" d="M 18.316406 65.355469 C 16.195312 65.359375 14.117188 65.078125 12.078125 64.503906 C 7.296875 63.171875 5.683594 59.078125 5.617188 58.90625 C 5.527344 58.675781 5.53125 58.445312 5.632812 58.214844 C 5.734375 57.988281 5.902344 57.828125 6.136719 57.738281 C 6.367188 57.648438 6.597656 57.65625 6.828125 57.753906 C 7.054688 57.855469 7.214844 58.023438 7.304688 58.257812 C 7.367188 58.414062 8.695312 61.679688 12.566406 62.761719 C 19.394531 64.664062 26.863281 63.183594 41.105469 57.097656 C 47.089844 54.542969 51.835938 52.378906 55.542969 50.140625 C 59.566406 47.714844 61.949219 45.40625 62.835938 43.085938 C 63.480469 41.390625 63.355469 39.628906 62.449219 37.703125 C 62.34375 37.476562 62.335938 37.246094 62.417969 37.011719 C 62.503906 36.777344 62.660156 36.605469 62.886719 36.5 C 63.113281 36.394531 63.34375 36.382812 63.578125 36.46875 C 63.8125 36.550781 63.980469 36.707031 64.089844 36.933594 C 65.195312 39.296875 65.34375 41.582031 64.523438 43.730469 C 63.472656 46.480469 60.917969 49.011719 56.476562 51.691406 C 52.675781 53.984375 47.863281 56.175781 41.8125 58.761719 C 31.167969 63.316406 24.148438 65.355469 18.316406 65.355469 Z M 18.316406 65.355469 " fill-opacity="1" fill-rule="nonzero"/><g clip-path="url(#06f22d5130)"><path fill="#ad3bce" d="M 26.851562 72.765625 C 26.648438 72.765625 26.441406 72.761719 26.238281 72.761719 C 22.953125 72.710938 20.070312 72.277344 17.675781 71.476562 C 14.988281 70.578125 12.992188 69.234375 11.742188 67.484375 C 11.597656 67.28125 11.546875 67.058594 11.585938 66.8125 C 11.628906 66.5625 11.75 66.367188 11.953125 66.222656 C 12.15625 66.078125 12.382812 66.027344 12.628906 66.066406 C 12.875 66.109375 13.070312 66.230469 13.214844 66.433594 C 15.226562 69.25 19.859375 70.855469 26.265625 70.953125 C 32.164062 71.042969 39.042969 69.785156 44.667969 67.59375 C 54.855469 63.628906 61.191406 58.515625 63.496094 52.398438 C 65.664062 46.660156 63.363281 42.105469 63.339844 42.0625 C 63.226562 41.839844 63.207031 41.609375 63.28125 41.371094 C 63.359375 41.132812 63.507812 40.957031 63.726562 40.84375 C 63.949219 40.726562 64.179688 40.707031 64.417969 40.785156 C 64.65625 40.859375 64.832031 41.007812 64.945312 41.230469 C 65.058594 41.445312 67.636719 46.550781 65.191406 53.039062 C 64.066406 56.019531 62.042969 58.816406 59.183594 61.34375 C 55.765625 64.359375 51.105469 67.03125 45.328125 69.28125 C 39.691406 71.476562 32.832031 72.765625 26.851562 72.765625 Z M 26.851562 72.765625 " fill-opacity="1" fill-rule="nonzero"/></g><g clip-path="url(#1cd35e1802)"><path fill="#ad3bce" d="M 24.910156 17.316406 C 24.714844 17.316406 24.542969 17.261719 24.386719 17.152344 C 24.230469 17.042969 24.121094 16.894531 24.054688 16.714844 C 24.035156 16.660156 23.113281 14.058594 21.957031 10.941406 C 21.621094 10.972656 21.28125 10.992188 20.9375 11.003906 C 20.6875 11.007812 20.472656 10.925781 20.289062 10.753906 C 20.109375 10.582031 20.015625 10.371094 20.007812 10.125 C 20 9.875 20.085938 9.65625 20.253906 9.476562 C 20.425781 9.296875 20.636719 9.199219 20.886719 9.195312 C 21.023438 9.195312 21.160156 9.183594 21.292969 9.175781 C 20.21875 6.339844 19.050781 3.394531 18.234375 1.703125 C 18.152344 1.535156 18.128906 1.359375 18.15625 1.171875 C 18.183594 0.988281 18.261719 0.828125 18.390625 0.691406 C 18.515625 0.558594 18.671875 0.46875 18.851562 0.429688 C 19.035156 0.386719 19.210938 0.402344 19.386719 0.472656 C 19.457031 0.5 26.828125 3.414062 32.792969 3.078125 C 33.171875 3.058594 33.453125 3.214844 33.636719 3.546875 C 33.820312 3.882812 33.800781 4.203125 33.578125 4.511719 C 33.53125 4.578125 32.402344 6.121094 30.292969 7.6875 C 28.339844 9.152344 26.171875 10.144531 23.785156 10.664062 C 24.855469 13.550781 25.6875 15.90625 25.761719 16.113281 C 25.8125 16.253906 25.824219 16.394531 25.804688 16.539062 C 25.785156 16.683594 25.734375 16.816406 25.648438 16.9375 C 25.5625 17.058594 25.457031 17.152344 25.324219 17.21875 C 25.195312 17.285156 25.058594 17.320312 24.910156 17.320312 Z M 20.738281 2.871094 C 21.488281 4.640625 22.351562 6.847656 23.144531 8.953125 C 25.273438 8.546875 27.289062 7.648438 29.160156 6.273438 C 29.738281 5.847656 30.285156 5.386719 30.800781 4.890625 C 26.957031 4.722656 23.039062 3.628906 20.738281 2.871094 Z M 20.738281 2.871094 " fill-opacity="1" fill-rule="nonzero"/></g><path fill="#ad3bce" d="M 6.460938 41.734375 C 6.210938 41.738281 5.996094 41.652344 5.820312 41.476562 C 5.640625 41.300781 5.550781 41.089844 5.546875 40.839844 C 5.546875 40.589844 5.632812 40.375 5.804688 40.199219 C 5.980469 40.019531 6.191406 39.929688 6.441406 39.925781 C 6.476562 39.925781 10.035156 39.835938 15.308594 39.035156 C 20.167969 38.300781 27.523438 36.792969 34.964844 33.789062 C 49.257812 28.027344 55.769531 22.914062 55.835938 22.863281 C 56.03125 22.710938 56.25 22.648438 56.496094 22.679688 C 56.746094 22.707031 56.945312 22.820312 57.097656 23.011719 C 57.253906 23.207031 57.316406 23.429688 57.292969 23.675781 C 57.265625 23.921875 57.15625 24.121094 56.960938 24.277344 C 56.695312 24.496094 50.214844 29.59375 35.640625 35.472656 C 28.023438 38.539062 20.507812 40.078125 15.546875 40.832031 C 10.167969 41.644531 6.628906 41.730469 6.480469 41.734375 Z M 6.460938 41.734375 " fill-opacity="1" fill-rule="nonzero"/></g></g></g></g><g clip-path="url(#535b2055e0)"><g mask="url(#5fd388f167)"><g transform="matrix(1, 0, 0, 1, 0.000000000000000111, 0.000000000000013659)"><g clip-path="url(#e65eb312de)"><g clip-path="url(#4905593924)"><g clip-path="url(#63d244640b)"><g clip-path="url(#eee883e745)"><path fill="#ad3bce" d="M 32.46875 37.839844 C 32.273438 37.867188 32.066406 37.808594 31.910156 37.667969 C 31.621094 37.414062 31.59375 36.972656 31.851562 36.683594 C 32 36.511719 35.609375 32.492188 41.824219 29.328125 C 42.171875 29.152344 42.589844 29.289062 42.765625 29.632812 C 42.941406 29.976562 42.804688 30.398438 42.460938 30.574219 C 36.492188 33.613281 32.933594 37.570312 32.898438 37.613281 C 32.78125 37.742188 32.628906 37.820312 32.46875 37.839844 Z M 32.46875 37.839844 " fill-opacity="1" fill-rule="nonzero"/></g></g></g><g clip-path="url(#ee79045631)"><g clip-path="url(#c1ef6d81bf)"><g clip-path="url(#2c9c8d627e)"><path fill="#ad3bce" d="M 36.800781 71.890625 C 39.5625 72.917969 41.9375 73.375 42.101562 73.40625 C 44.664062 73.921875 47.375 74.023438 49.84375 73.691406 C 50.199219 73.644531 50.542969 73.589844 50.886719 73.527344 C 52.285156 73.261719 53.515625 72.863281 54.546875 72.34375 C 55.679688 71.773438 56.539062 71.066406 57.105469 70.242188 C 57.910156 69.074219 58.5 67.097656 56.738281 64.328125 C 55.6875 62.675781 54.164062 61.347656 52.210938 60.378906 C 50.675781 59.621094 48.875 59.082031 46.855469 58.777344 C 44.933594 58.488281 43.195312 58.472656 42.023438 58.511719 C 42.761719 57.296875 43.527344 55.484375 44.011719 52.820312 C 44.476562 50.261719 44.535156 47.574219 44.175781 45.625 C 43.910156 44.199219 43.433594 43.300781 42.757812 42.949219 C 42.351562 42.738281 41.851562 42.757812 41.277344 43.007812 C 39.355469 43.839844 36.441406 47.296875 34.355469 50.257812 C 31.488281 54.320312 29.316406 58.519531 28.402344 61.78125 C 27.921875 63.496094 28.152344 65.121094 29.082031 66.621094 C 30.371094 68.691406 32.96875 70.464844 36.800781 71.890625 Z M 29.75 62.160156 C 30.691406 58.800781 33.082031 54.320312 36.140625 50.171875 C 37.46875 48.371094 38.828125 46.78125 39.96875 45.699219 C 41.195312 44.53125 41.867188 44.234375 42.09375 44.207031 C 42.109375 44.203125 42.121094 44.203125 42.128906 44.203125 C 42.214844 44.261719 42.554688 44.578125 42.800781 45.882812 C 43.125 47.644531 43.0625 50.207031 42.632812 52.570312 C 42.136719 55.300781 41.222656 57.527344 40.054688 58.847656 C 39.863281 59.066406 39.824219 59.378906 39.957031 59.636719 C 40.09375 59.894531 40.375 60.039062 40.660156 60.003906 C 40.6875 60.003906 43.453125 59.679688 46.679688 60.167969 C 48.546875 60.449219 50.207031 60.945312 51.605469 61.640625 C 53.320312 62.492188 54.648438 63.648438 55.558594 65.078125 C 56.640625 66.785156 56.777344 68.253906 55.953125 69.449219 C 55.089844 70.707031 53.195312 71.667969 50.628906 72.148438 C 48.097656 72.625 45.089844 72.582031 42.375 72.03125 C 42.371094 72.03125 42.367188 72.03125 42.363281 72.03125 C 42.273438 72.011719 32.976562 70.234375 30.269531 65.878906 C 29.542969 64.714844 29.375 63.496094 29.75 62.160156 Z M 29.75 62.160156 " fill-opacity="1" fill-rule="nonzero"/></g></g></g><g clip-path="url(#4885ef915d)"><g clip-path="url(#8e85bc75b5)"><g clip-path="url(#39e4bcdab3)"><path fill="#ad3bce" d="M 104.886719 25.304688 C 103.519531 23.753906 100.929688 23.296875 99.695312 23.164062 C 99.667969 21.988281 99.421875 19.601562 97.972656 18.332031 C 97.121094 17.585938 96.019531 17.335938 94.699219 17.59375 C 93.347656 17.859375 92.375 18.542969 91.8125 19.625 C 91.1875 20.820312 91.109375 22.453125 91.566406 24.476562 C 91.773438 25.378906 92.042969 26.152344 92.222656 26.617188 L 88.554688 30.09375 C 87.71875 29.925781 86.828125 30.152344 86.160156 30.738281 C 85.398438 31.402344 83.921875 32.578125 82.582031 32.984375 C 82.21875 33.09375 81.074219 33.003906 79.804688 32.875 C 78.316406 30.695312 76.757812 28.761719 75.152344 27.09375 C 75.664062 25.113281 76.613281 23.410156 77.152344 22.542969 C 77.492188 21.992188 77.625 21.347656 77.546875 20.71875 L 81.503906 16.84375 C 81.972656 16.886719 82.863281 16.941406 83.886719 16.878906 C 85.949219 16.75 87.488281 16.21875 88.46875 15.300781 C 89.339844 14.484375 89.734375 13.40625 89.648438 12.09375 C 89.574219 11.019531 89.132812 10.140625 88.335938 9.484375 C 86.738281 8.171875 84.109375 8.136719 82.867188 8.203125 C 82.652344 7.042969 82.03125 4.730469 80.398438 3.707031 C 79.4375 3.105469 78.3125 3.035156 77.050781 3.5 C 75.753906 3.976562 74.90625 4.804688 74.523438 5.960938 C 74.097656 7.246094 74.277344 8.871094 75.054688 10.789062 C 75.402344 11.652344 75.792969 12.371094 76.042969 12.804688 L 72.976562 16.820312 C 72.125 16.785156 71.28125 17.152344 70.714844 17.835938 C 70.070312 18.613281 68.796875 20.011719 67.539062 20.625 C 67.414062 20.683594 67.089844 20.773438 66.253906 20.851562 C 64.136719 20.019531 61.976562 19.605469 59.789062 19.609375 C 55.917969 19.621094 51.832031 20.496094 47.632812 22.214844 C 44.164062 23.632812 40.597656 25.636719 37.03125 28.164062 C 29.882812 33.234375 25.136719 38.660156 24.257812 39.695312 C 22.171875 42.15625 20.195312 45.625 18.972656 48.96875 C 18.6875 49.738281 18.445312 50.503906 18.242188 51.257812 C 15.960938 52.910156 13.992188 54.726562 12.394531 56.652344 C 10.109375 59.40625 8.648438 62.320312 8.042969 65.308594 C 7.695312 67.035156 7.8125 68.8125 8.390625 70.601562 C 8.960938 72.371094 9.972656 74.101562 11.390625 75.746094 C 14.605469 79.460938 19.683594 82.5 26.085938 84.523438 C 29.542969 85.621094 33.355469 86.40625 37.417969 86.867188 C 41.765625 87.355469 46.429688 87.472656 51.277344 87.210938 C 54.585938 87.035156 57.800781 86.734375 60.910156 86.324219 C 71.210938 84.953125 80.328125 82.308594 87.640625 78.535156 C 92.257812 76.15625 96.039062 73.378906 98.886719 70.285156 C 101.789062 67.132812 103.667969 63.707031 104.46875 60.101562 C 105.363281 56.066406 104.800781 52.550781 102.800781 49.640625 C 101.292969 47.449219 98.980469 45.632812 95.933594 44.253906 C 93.277344 43.046875 90.550781 42.398438 88.53125 42.054688 C 89.234375 39.589844 90.8125 37.507812 91.765625 36.410156 C 92.191406 35.921875 92.421875 35.304688 92.445312 34.675781 L 96.972656 31.476562 C 97.425781 31.59375 98.296875 31.792969 99.320312 31.890625 C 101.371094 32.09375 102.980469 31.816406 104.09375 31.066406 C 105.082031 30.402344 105.644531 29.398438 105.769531 28.085938 C 105.867188 27.015625 105.574219 26.082031 104.886719 25.304688 Z M 77.445312 13.273438 C 77.625 13.035156 77.636719 12.710938 77.472656 12.464844 C 76.804688 11.4375 75.203125 8.347656 75.847656 6.398438 C 76.09375 5.65625 76.644531 5.136719 77.53125 4.8125 C 78.375 4.5 79.070312 4.527344 79.652344 4.890625 C 80.972656 5.714844 81.492188 8.152344 81.578125 9.023438 C 81.597656 9.210938 81.691406 9.382812 81.839844 9.5 C 81.984375 9.617188 82.175781 9.671875 82.363281 9.648438 C 82.398438 9.640625 85.820312 9.226562 87.445312 10.566406 C 87.941406 10.972656 88.203125 11.503906 88.25 12.183594 C 88.308594 13.070312 88.070312 13.757812 87.515625 14.277344 C 86.019531 15.679688 82.550781 15.578125 81.339844 15.417969 C 81.125 15.390625 80.914062 15.460938 80.757812 15.613281 L 76.972656 19.320312 C 76.964844 19.3125 76.960938 19.300781 76.953125 19.289062 C 76.917969 19.242188 76.882812 19.195312 76.851562 19.152344 C 76.839844 19.136719 76.828125 19.121094 76.816406 19.109375 C 76.773438 19.050781 76.730469 18.996094 76.6875 18.941406 C 76.675781 18.925781 76.664062 18.914062 76.652344 18.902344 C 76.617188 18.859375 76.582031 18.816406 76.546875 18.777344 C 76.535156 18.761719 76.519531 18.746094 76.507812 18.730469 C 76.460938 18.679688 76.414062 18.628906 76.371094 18.582031 C 76.367188 18.578125 76.363281 18.574219 76.359375 18.570312 C 76.316406 18.523438 76.273438 18.480469 76.230469 18.4375 C 76.214844 18.421875 76.199219 18.410156 76.1875 18.394531 C 76.148438 18.359375 76.109375 18.324219 76.074219 18.289062 C 76.0625 18.277344 76.050781 18.269531 76.039062 18.257812 C 75.996094 18.214844 75.949219 18.175781 75.902344 18.136719 C 75.886719 18.125 75.875 18.113281 75.859375 18.101562 C 75.824219 18.070312 75.789062 18.042969 75.75 18.011719 C 75.738281 18 75.722656 17.988281 75.707031 17.980469 C 75.660156 17.941406 75.613281 17.90625 75.566406 17.871094 C 75.558594 17.863281 75.550781 17.859375 75.539062 17.851562 C 75.5 17.824219 75.460938 17.792969 75.421875 17.765625 C 75.40625 17.757812 75.390625 17.746094 75.375 17.734375 C 75.335938 17.710938 75.296875 17.683594 75.257812 17.660156 C 75.25 17.652344 75.238281 17.644531 75.230469 17.640625 C 75.183594 17.609375 75.136719 17.582031 75.085938 17.550781 C 75.074219 17.542969 75.058594 17.535156 75.042969 17.527344 C 75.007812 17.507812 74.972656 17.484375 74.9375 17.464844 C 74.921875 17.457031 74.910156 17.449219 74.894531 17.441406 C 74.847656 17.417969 74.804688 17.390625 74.757812 17.367188 C 74.746094 17.363281 74.734375 17.359375 74.722656 17.351562 C 74.6875 17.332031 74.652344 17.316406 74.613281 17.296875 C 74.597656 17.289062 74.585938 17.285156 74.570312 17.277344 C 74.53125 17.257812 74.488281 17.238281 74.449219 17.222656 C 74.445312 17.21875 74.441406 17.214844 74.433594 17.214844 L 77.445312 13.269531 Z M 68.3125 21.800781 C 69.671875 21.085938 70.949219 19.746094 71.792969 18.726562 C 72.113281 18.339844 72.605469 18.15625 73.082031 18.234375 C 73.101562 18.238281 73.121094 18.246094 73.140625 18.25 C 73.164062 18.253906 73.191406 18.257812 73.214844 18.261719 C 73.21875 18.265625 73.226562 18.265625 73.230469 18.265625 C 73.246094 18.269531 73.257812 18.273438 73.269531 18.277344 C 73.28125 18.28125 73.292969 18.285156 73.304688 18.285156 C 73.316406 18.292969 73.332031 18.296875 73.347656 18.300781 C 73.355469 18.304688 73.367188 18.308594 73.378906 18.308594 C 73.394531 18.316406 73.410156 18.320312 73.425781 18.324219 C 73.433594 18.328125 73.445312 18.332031 73.457031 18.335938 C 73.472656 18.339844 73.488281 18.347656 73.507812 18.351562 C 73.515625 18.355469 73.523438 18.359375 73.535156 18.363281 C 73.550781 18.367188 73.570312 18.375 73.589844 18.382812 C 73.597656 18.386719 73.605469 18.386719 73.617188 18.390625 C 73.632812 18.398438 73.652344 18.40625 73.671875 18.414062 C 73.679688 18.417969 73.6875 18.417969 73.699219 18.421875 C 73.714844 18.429688 73.734375 18.4375 73.753906 18.445312 C 73.765625 18.449219 73.773438 18.453125 73.78125 18.457031 C 73.800781 18.464844 73.820312 18.472656 73.839844 18.484375 C 73.847656 18.488281 73.855469 18.488281 73.863281 18.492188 C 73.886719 18.503906 73.90625 18.511719 73.929688 18.523438 C 73.9375 18.523438 73.941406 18.527344 73.949219 18.53125 C 73.972656 18.542969 73.996094 18.554688 74.015625 18.5625 C 74.023438 18.566406 74.03125 18.570312 74.035156 18.574219 C 74.058594 18.585938 74.082031 18.597656 74.105469 18.609375 C 74.109375 18.609375 74.117188 18.613281 74.125 18.617188 C 74.148438 18.628906 74.171875 18.640625 74.195312 18.65625 C 74.199219 18.65625 74.207031 18.660156 74.210938 18.664062 C 74.234375 18.675781 74.261719 18.691406 74.285156 18.703125 C 74.289062 18.707031 74.292969 18.710938 74.300781 18.714844 C 74.324219 18.726562 74.347656 18.742188 74.375 18.757812 C 74.378906 18.761719 74.382812 18.761719 74.390625 18.765625 C 74.414062 18.78125 74.4375 18.796875 74.464844 18.8125 C 74.46875 18.816406 74.472656 18.816406 74.476562 18.820312 C 74.503906 18.835938 74.53125 18.855469 74.554688 18.871094 C 74.558594 18.875 74.5625 18.875 74.566406 18.878906 C 74.59375 18.898438 74.621094 18.914062 74.644531 18.933594 C 74.648438 18.933594 74.652344 18.9375 74.65625 18.941406 C 74.683594 18.960938 74.710938 18.980469 74.738281 19 C 74.742188 19 74.742188 19.003906 74.746094 19.003906 C 74.773438 19.023438 74.800781 19.046875 74.828125 19.066406 C 74.832031 19.070312 74.832031 19.070312 74.835938 19.074219 C 74.863281 19.09375 74.890625 19.117188 74.917969 19.140625 C 74.921875 19.140625 74.921875 19.140625 74.925781 19.144531 C 74.953125 19.167969 74.980469 19.191406 75.011719 19.214844 C 75.011719 19.214844 75.011719 19.21875 75.011719 19.21875 C 75.339844 19.496094 75.65625 19.847656 75.941406 20.285156 C 75.941406 20.289062 75.941406 20.292969 75.945312 20.292969 C 76.015625 20.410156 76.074219 20.535156 76.113281 20.675781 C 76.117188 20.683594 76.121094 20.691406 76.121094 20.699219 C 76.222656 21.070312 76.167969 21.472656 75.964844 21.800781 C 75.347656 22.796875 74.5625 24.257812 74.019531 25.972656 C 73.238281 25.234375 72.445312 24.558594 71.644531 23.945312 C 70.671875 23.199219 69.683594 22.550781 68.683594 22 C 68.675781 21.996094 68.667969 21.988281 68.660156 21.984375 C 68.550781 21.925781 68.445312 21.867188 68.335938 21.8125 C 68.328125 21.804688 68.320312 21.800781 68.316406 21.796875 Z M 25.324219 40.597656 C 27.699219 37.796875 32.402344 33.160156 37.839844 29.304688 C 41.316406 26.839844 44.789062 24.886719 48.160156 23.507812 C 50.980469 22.355469 53.742188 21.597656 56.410156 21.242188 C 57.554688 21.089844 58.683594 21.011719 59.789062 21.007812 C 62.496094 21 65.164062 21.699219 67.761719 23.09375 C 67.773438 23.101562 67.789062 23.109375 67.804688 23.117188 C 67.886719 23.160156 67.96875 23.207031 68.050781 23.25 C 68.085938 23.269531 68.121094 23.289062 68.15625 23.308594 C 68.214844 23.339844 68.269531 23.375 68.328125 23.40625 C 68.445312 23.476562 68.566406 23.546875 68.6875 23.617188 C 68.6875 23.621094 68.691406 23.625 68.695312 23.625 C 70.464844 24.695312 72.199219 26.089844 73.882812 27.796875 C 73.882812 27.796875 73.882812 27.796875 73.886719 27.800781 C 75.285156 29.21875 76.648438 30.851562 77.964844 32.6875 C 77.925781 32.683594 77.882812 32.679688 77.84375 32.675781 C 77.820312 32.671875 77.800781 32.667969 77.777344 32.667969 C 77.703125 32.660156 77.628906 32.652344 77.554688 32.644531 C 77.535156 32.644531 77.519531 32.640625 77.5 32.640625 C 77.410156 32.632812 77.324219 32.621094 77.234375 32.613281 C 77.226562 32.613281 77.222656 32.613281 77.21875 32.613281 C 77.027344 32.59375 76.832031 32.574219 76.632812 32.558594 C 76.613281 32.554688 76.597656 32.554688 76.578125 32.550781 C 76.5 32.546875 76.421875 32.539062 76.339844 32.53125 C 76.3125 32.527344 76.285156 32.527344 76.257812 32.523438 C 76.1875 32.519531 76.117188 32.511719 76.042969 32.503906 C 76.011719 32.503906 75.980469 32.5 75.949219 32.496094 C 75.878906 32.492188 75.8125 32.488281 75.742188 32.480469 C 75.707031 32.476562 75.675781 32.476562 75.640625 32.472656 C 75.570312 32.46875 75.503906 32.460938 75.433594 32.457031 C 75.398438 32.453125 75.367188 32.453125 75.332031 32.449219 C 75.261719 32.445312 75.1875 32.4375 75.117188 32.433594 C 75.085938 32.429688 75.054688 32.429688 75.023438 32.425781 C 74.941406 32.421875 74.863281 32.414062 74.785156 32.410156 C 74.757812 32.410156 74.734375 32.40625 74.710938 32.40625 C 74.496094 32.390625 74.285156 32.378906 74.066406 32.367188 C 74.046875 32.367188 74.03125 32.363281 74.011719 32.363281 C 73.925781 32.359375 73.835938 32.355469 73.746094 32.347656 C 73.714844 32.347656 73.679688 32.347656 73.648438 32.34375 C 73.574219 32.339844 73.5 32.335938 73.421875 32.332031 C 73.386719 32.332031 73.347656 32.332031 73.308594 32.328125 C 73.238281 32.324219 73.167969 32.324219 73.097656 32.320312 C 73.054688 32.320312 73.015625 32.316406 72.976562 32.316406 C 72.90625 32.3125 72.835938 32.3125 72.765625 32.308594 C 72.722656 32.308594 72.683594 32.304688 72.644531 32.304688 C 72.570312 32.304688 72.5 32.300781 72.425781 32.300781 C 72.386719 32.296875 72.347656 32.296875 72.308594 32.296875 C 72.234375 32.292969 72.15625 32.292969 72.078125 32.292969 C 72.042969 32.292969 72.011719 32.289062 71.976562 32.289062 C 71.882812 32.289062 71.789062 32.285156 71.695312 32.285156 C 71.675781 32.285156 71.660156 32.285156 71.640625 32.285156 C 71.527344 32.285156 71.410156 32.285156 71.296875 32.285156 C 71.289062 32.285156 71.28125 32.285156 71.273438 32.285156 C 71.167969 32.28125 71.0625 32.28125 70.957031 32.285156 C 70.925781 32.285156 70.894531 32.285156 70.863281 32.285156 C 70.78125 32.285156 70.699219 32.285156 70.617188 32.289062 C 70.578125 32.289062 70.539062 32.289062 70.503906 32.289062 C 70.425781 32.289062 70.351562 32.292969 70.273438 32.292969 C 70.234375 32.292969 70.191406 32.296875 70.152344 32.296875 C 70.078125 32.296875 70.003906 32.300781 69.929688 32.304688 C 69.886719 32.304688 69.847656 32.304688 69.804688 32.308594 C 69.730469 32.308594 69.65625 32.3125 69.582031 32.316406 C 69.539062 32.316406 69.5 32.320312 69.457031 32.320312 C 69.378906 32.324219 69.300781 32.328125 69.226562 32.332031 C 69.1875 32.332031 69.148438 32.335938 69.113281 32.335938 C 69.023438 32.34375 68.9375 32.347656 68.847656 32.351562 C 68.820312 32.355469 68.792969 32.355469 68.765625 32.355469 C 68.648438 32.363281 68.535156 32.371094 68.417969 32.378906 C 66.675781 32.507812 65.0625 32.765625 63.609375 33.152344 C 63.28125 33.238281 62.960938 33.332031 62.652344 33.429688 C 61.316406 33.855469 60.105469 34.410156 59.027344 35.082031 C 58.492188 35.414062 57.988281 35.777344 57.523438 36.167969 C 57.4375 36.238281 57.355469 36.308594 57.273438 36.382812 C 57.25 36.402344 57.226562 36.425781 57.203125 36.445312 C 57.148438 36.496094 57.089844 36.546875 57.035156 36.601562 C 57.007812 36.625 56.980469 36.652344 56.953125 36.679688 C 56.902344 36.726562 56.851562 36.777344 56.804688 36.824219 C 56.777344 36.851562 56.75 36.878906 56.722656 36.90625 C 56.675781 36.957031 56.625 37.003906 56.578125 37.054688 C 56.550781 37.082031 56.527344 37.109375 56.503906 37.132812 C 56.453125 37.1875 56.402344 37.242188 56.355469 37.296875 C 56.335938 37.320312 56.3125 37.339844 56.292969 37.363281 C 56.242188 37.425781 56.1875 37.484375 56.136719 37.546875 C 56.121094 37.5625 56.105469 37.582031 56.09375 37.597656 C 56.035156 37.667969 55.976562 37.742188 55.917969 37.8125 C 55.910156 37.820312 55.90625 37.828125 55.898438 37.835938 C 54.40625 39.722656 53.527344 42.078125 53.285156 44.871094 C 53.125 46.707031 53.261719 48.53125 53.515625 50.140625 C 53.519531 50.15625 53.523438 50.171875 53.523438 50.191406 C 53.535156 50.246094 53.542969 50.304688 53.550781 50.359375 C 53.558594 50.394531 53.5625 50.429688 53.570312 50.460938 C 53.574219 50.503906 53.582031 50.542969 53.589844 50.582031 C 53.597656 50.632812 53.605469 50.679688 53.613281 50.726562 C 53.621094 50.753906 53.625 50.78125 53.628906 50.808594 C 53.640625 50.867188 53.652344 50.925781 53.664062 50.984375 C 53.667969 51 53.667969 51.015625 53.671875 51.03125 C 53.683594 51.101562 53.699219 51.167969 53.710938 51.230469 C 53.714844 51.242188 53.714844 51.25 53.714844 51.257812 C 53.730469 51.332031 53.746094 51.402344 53.761719 51.476562 L 53.761719 51.488281 C 53.777344 51.5625 53.792969 51.636719 53.8125 51.710938 C 53.8125 51.714844 53.8125 51.714844 53.8125 51.714844 C 53.828125 51.792969 53.84375 51.867188 53.859375 51.941406 C 53.863281 51.945312 53.863281 51.945312 53.863281 51.949219 C 53.878906 52.019531 53.894531 52.09375 53.914062 52.164062 C 53.914062 52.167969 53.914062 52.175781 53.917969 52.179688 C 53.933594 52.25 53.949219 52.316406 53.964844 52.382812 C 53.96875 52.390625 53.96875 52.402344 53.972656 52.414062 C 53.988281 52.472656 54 52.535156 54.015625 52.59375 C 54.019531 52.613281 54.027344 52.632812 54.03125 52.652344 C 54.042969 52.703125 54.054688 52.753906 54.070312 52.800781 C 54.078125 52.835938 54.085938 52.867188 54.09375 52.898438 C 54.101562 52.933594 54.113281 52.96875 54.121094 53.003906 C 54.140625 53.074219 54.15625 53.140625 54.175781 53.207031 C 54.269531 53.550781 54.375 53.894531 54.492188 54.226562 C 55.308594 56.566406 56.679688 58.589844 58.488281 60.121094 C 58.566406 60.1875 58.648438 60.25 58.726562 60.316406 C 58.742188 60.328125 58.761719 60.34375 58.777344 60.355469 C 58.855469 60.417969 58.933594 60.480469 59.011719 60.539062 C 59.027344 60.550781 59.039062 60.558594 59.050781 60.570312 C 59.125 60.625 59.195312 60.675781 59.269531 60.730469 C 59.285156 60.738281 59.296875 60.75 59.3125 60.757812 C 59.390625 60.816406 59.472656 60.871094 59.554688 60.925781 C 59.570312 60.9375 59.589844 60.949219 59.605469 60.960938 C 59.6875 61.015625 59.769531 61.070312 59.851562 61.125 C 59.855469 61.125 59.855469 61.125 59.859375 61.128906 C 59.941406 61.179688 60.027344 61.234375 60.113281 61.285156 C 60.128906 61.296875 60.148438 61.304688 60.167969 61.316406 C 60.25 61.367188 60.335938 61.414062 60.417969 61.464844 C 60.433594 61.472656 60.445312 61.476562 60.460938 61.484375 C 60.539062 61.527344 60.617188 61.570312 60.695312 61.613281 C 60.710938 61.621094 60.722656 61.628906 60.738281 61.636719 C 60.824219 61.679688 60.910156 61.722656 61 61.765625 C 61.015625 61.777344 61.035156 61.785156 61.054688 61.792969 C 61.140625 61.835938 61.226562 61.878906 61.316406 61.917969 C 61.320312 61.917969 61.320312 61.917969 61.324219 61.921875 C 61.414062 61.960938 61.503906 62 61.597656 62.039062 C 61.617188 62.046875 61.636719 62.054688 61.65625 62.0625 C 61.746094 62.101562 61.835938 62.136719 61.925781 62.171875 C 61.9375 62.179688 61.953125 62.183594 61.964844 62.1875 C 62.050781 62.21875 62.132812 62.25 62.21875 62.28125 C 62.234375 62.289062 62.25 62.292969 62.265625 62.296875 C 62.355469 62.332031 62.449219 62.363281 62.542969 62.394531 C 62.5625 62.398438 62.582031 62.40625 62.601562 62.410156 C 62.691406 62.441406 62.785156 62.46875 62.878906 62.496094 C 62.882812 62.5 62.886719 62.5 62.886719 62.5 C 62.984375 62.527344 63.082031 62.554688 63.175781 62.582031 C 63.199219 62.585938 63.21875 62.589844 63.238281 62.597656 C 63.335938 62.621094 63.429688 62.644531 63.527344 62.667969 C 63.539062 62.671875 63.554688 62.675781 63.566406 62.679688 C 63.65625 62.699219 63.746094 62.71875 63.835938 62.738281 C 63.855469 62.742188 63.871094 62.746094 63.886719 62.75 C 63.984375 62.769531 64.082031 62.789062 64.183594 62.804688 C 64.203125 62.808594 64.222656 62.8125 64.242188 62.816406 C 64.339844 62.832031 64.4375 62.847656 64.535156 62.863281 C 64.539062 62.863281 64.542969 62.867188 64.546875 62.867188 C 64.648438 62.882812 64.753906 62.894531 64.855469 62.910156 C 64.875 62.910156 64.898438 62.914062 64.917969 62.917969 C 65.019531 62.929688 65.121094 62.941406 65.226562 62.949219 C 65.238281 62.953125 65.25 62.953125 65.261719 62.953125 C 65.359375 62.964844 65.457031 62.972656 65.554688 62.980469 C 65.570312 62.980469 65.585938 62.980469 65.605469 62.984375 C 65.707031 62.992188 65.8125 62.996094 65.917969 63.003906 C 65.9375 63.003906 65.957031 63.003906 65.976562 63.003906 C 66.078125 63.007812 66.183594 63.011719 66.289062 63.015625 C 66.292969 63.015625 66.296875 63.015625 66.300781 63.015625 C 66.410156 63.019531 66.519531 63.019531 66.628906 63.019531 C 66.648438 63.019531 66.667969 63.019531 66.691406 63.019531 C 66.800781 63.019531 66.90625 63.019531 67.015625 63.015625 C 67.027344 63.015625 67.039062 63.015625 67.046875 63.015625 C 67.152344 63.015625 67.257812 63.011719 67.359375 63.007812 C 67.378906 63.003906 67.394531 63.003906 67.414062 63.003906 C 67.523438 63 67.632812 62.992188 67.746094 62.984375 C 67.765625 62.984375 67.785156 62.980469 67.804688 62.980469 C 67.914062 62.972656 68.019531 62.964844 68.132812 62.957031 C 68.136719 62.953125 68.140625 62.953125 68.148438 62.953125 C 68.261719 62.945312 68.375 62.933594 68.488281 62.917969 C 68.511719 62.917969 68.535156 62.914062 68.554688 62.910156 C 68.667969 62.898438 68.785156 62.886719 68.898438 62.871094 C 68.902344 62.871094 68.90625 62.871094 68.90625 62.867188 C 68.914062 62.867188 68.921875 62.867188 68.929688 62.867188 C 69.039062 62.851562 69.152344 62.835938 69.261719 62.820312 C 69.28125 62.816406 69.300781 62.8125 69.316406 62.808594 C 69.433594 62.792969 69.550781 62.773438 69.667969 62.753906 C 69.6875 62.75 69.710938 62.746094 69.730469 62.742188 C 69.847656 62.722656 69.960938 62.699219 70.078125 62.675781 C 70.085938 62.675781 70.089844 62.675781 70.09375 62.675781 C 70.210938 62.652344 70.332031 62.625 70.453125 62.601562 C 70.476562 62.597656 70.5 62.589844 70.527344 62.585938 C 70.644531 62.558594 70.761719 62.53125 70.882812 62.503906 C 70.898438 62.5 70.914062 62.496094 70.933594 62.492188 C 71.042969 62.46875 71.152344 62.441406 71.265625 62.414062 C 71.285156 62.40625 71.304688 62.402344 71.324219 62.398438 C 71.445312 62.367188 71.5625 62.335938 71.683594 62.300781 C 71.710938 62.296875 71.734375 62.289062 71.761719 62.28125 C 71.886719 62.246094 72.007812 62.214844 72.132812 62.175781 C 72.25 62.140625 72.367188 62.105469 72.484375 62.070312 C 72.515625 62.0625 72.542969 62.050781 72.574219 62.042969 C 72.683594 62.007812 72.789062 61.972656 72.898438 61.9375 C 72.9375 61.925781 72.976562 61.914062 73.015625 61.898438 C 73.082031 61.875 73.152344 61.851562 73.222656 61.828125 C 73.3125 61.796875 73.40625 61.761719 73.5 61.730469 C 73.539062 61.714844 73.578125 61.699219 73.621094 61.683594 C 73.695312 61.65625 73.773438 61.628906 73.851562 61.597656 C 73.855469 61.59375 73.859375 61.59375 73.867188 61.589844 C 76.964844 60.398438 79.683594 58.515625 81.980469 55.976562 C 81.988281 55.96875 81.996094 55.960938 82.007812 55.949219 C 82.09375 55.855469 82.179688 55.757812 82.261719 55.660156 C 82.28125 55.640625 82.296875 55.621094 82.316406 55.601562 C 82.390625 55.511719 82.464844 55.425781 82.539062 55.335938 C 82.566406 55.308594 82.589844 55.277344 82.613281 55.246094 C 82.683594 55.167969 82.75 55.085938 82.816406 55.003906 C 82.84375 54.964844 82.875 54.929688 82.902344 54.894531 C 82.917969 54.875 82.933594 54.859375 82.949219 54.839844 C 83.113281 54.632812 83.273438 54.421875 83.429688 54.214844 C 83.441406 54.199219 83.449219 54.1875 83.460938 54.175781 C 84.910156 52.222656 85.945312 50.238281 86.675781 48.492188 C 86.683594 48.472656 86.691406 48.453125 86.699219 48.4375 C 86.714844 48.394531 86.734375 48.351562 86.75 48.308594 C 86.765625 48.273438 86.777344 48.242188 86.789062 48.210938 C 86.804688 48.171875 86.820312 48.136719 86.835938 48.101562 C 86.855469 48.042969 86.878906 47.992188 86.898438 47.9375 C 86.914062 47.902344 86.925781 47.871094 86.9375 47.839844 C 86.957031 47.789062 86.976562 47.738281 86.996094 47.691406 C 87.007812 47.660156 87.015625 47.632812 87.027344 47.605469 C 87.042969 47.5625 87.058594 47.519531 87.074219 47.476562 C 87.085938 47.449219 87.097656 47.421875 87.109375 47.390625 C 87.125 47.347656 87.140625 47.300781 87.15625 47.257812 C 87.179688 47.203125 87.199219 47.144531 87.21875 47.089844 C 87.226562 47.066406 87.234375 47.039062 87.242188 47.015625 C 87.261719 46.96875 87.277344 46.921875 87.292969 46.875 C 87.296875 46.867188 87.300781 46.855469 87.304688 46.847656 C 87.339844 46.738281 87.375 46.632812 87.410156 46.527344 C 87.453125 46.550781 87.492188 46.578125 87.535156 46.601562 C 87.554688 46.609375 87.570312 46.621094 87.589844 46.632812 C 87.660156 46.675781 87.738281 46.71875 87.8125 46.765625 C 87.832031 46.777344 87.847656 46.789062 87.867188 46.800781 C 87.925781 46.832031 87.984375 46.867188 88.039062 46.90625 C 88.066406 46.921875 88.09375 46.9375 88.121094 46.957031 C 88.171875 46.988281 88.226562 47.023438 88.277344 47.054688 C 88.304688 47.074219 88.332031 47.089844 88.359375 47.109375 C 88.421875 47.148438 88.484375 47.1875 88.546875 47.230469 C 88.5625 47.242188 88.578125 47.253906 88.597656 47.265625 C 88.675781 47.316406 88.753906 47.371094 88.832031 47.425781 C 88.855469 47.441406 88.878906 47.457031 88.902344 47.472656 C 88.957031 47.511719 89.015625 47.554688 89.074219 47.59375 C 89.101562 47.613281 89.128906 47.636719 89.15625 47.65625 C 89.210938 47.695312 89.265625 47.734375 89.320312 47.777344 C 89.347656 47.796875 89.375 47.816406 89.398438 47.835938 C 89.46875 47.886719 89.539062 47.941406 89.609375 47.996094 C 89.617188 48.003906 89.628906 48.011719 89.640625 48.019531 C 89.71875 48.082031 89.796875 48.144531 89.875 48.207031 C 89.898438 48.226562 89.917969 48.246094 89.941406 48.265625 C 89.996094 48.3125 90.054688 48.359375 90.109375 48.40625 C 90.136719 48.429688 90.160156 48.453125 90.1875 48.476562 C 90.242188 48.523438 90.296875 48.570312 90.347656 48.617188 C 90.371094 48.640625 90.394531 48.660156 90.421875 48.683594 C 90.496094 48.75 90.570312 48.820312 90.644531 48.890625 C 91.9375 50.136719 92.675781 51.417969 92.839844 52.703125 C 92.855469 52.835938 92.867188 52.96875 92.871094 53.101562 C 92.875 53.210938 92.875 53.324219 92.871094 53.433594 C 92.871094 53.449219 92.867188 53.464844 92.867188 53.480469 C 92.828125 54.386719 92.546875 55.460938 92.074219 56.585938 L 92.066406 56.601562 C 92.050781 56.644531 92.03125 56.683594 92.011719 56.726562 C 92.003906 56.75 91.992188 56.773438 91.984375 56.796875 C 91.972656 56.820312 91.964844 56.84375 91.953125 56.863281 C 91.9375 56.898438 91.921875 56.933594 91.90625 56.96875 C 91.902344 56.976562 91.898438 56.984375 91.894531 56.992188 C 91.859375 57.074219 91.820312 57.152344 91.785156 57.230469 C 91.78125 57.238281 91.777344 57.25 91.769531 57.257812 C 91.761719 57.28125 91.75 57.300781 91.738281 57.324219 C 91.722656 57.359375 91.703125 57.398438 91.683594 57.433594 C 91.679688 57.441406 91.675781 57.453125 91.671875 57.460938 C 91.503906 57.792969 91.324219 58.128906 91.128906 58.464844 C 91.117188 58.480469 91.109375 58.496094 91.101562 58.507812 C 91.074219 58.554688 91.046875 58.597656 91.023438 58.640625 C 91.011719 58.660156 91 58.679688 90.988281 58.695312 C 90.957031 58.75 90.921875 58.804688 90.890625 58.859375 C 90.871094 58.886719 90.855469 58.914062 90.839844 58.9375 C 90.808594 58.984375 90.78125 59.03125 90.75 59.078125 C 90.730469 59.109375 90.710938 59.140625 90.6875 59.171875 C 90.664062 59.214844 90.636719 59.253906 90.609375 59.296875 C 90.585938 59.332031 90.5625 59.367188 90.539062 59.402344 C 90.511719 59.441406 90.488281 59.476562 90.460938 59.515625 C 90.4375 59.550781 90.410156 59.589844 90.386719 59.625 C 90.359375 59.664062 90.332031 59.699219 90.308594 59.734375 C 90.285156 59.773438 90.257812 59.808594 90.230469 59.84375 C 90.203125 59.882812 90.179688 59.917969 90.148438 59.957031 C 90.125 59.992188 90.101562 60.023438 90.078125 60.054688 C 90.046875 60.097656 90.019531 60.136719 89.988281 60.179688 C 89.964844 60.207031 89.945312 60.234375 89.925781 60.261719 C 89.890625 60.308594 89.855469 60.355469 89.820312 60.402344 C 89.804688 60.421875 89.789062 60.445312 89.769531 60.464844 C 89.730469 60.519531 89.691406 60.570312 89.648438 60.625 C 89.636719 60.636719 89.628906 60.652344 89.617188 60.664062 C 89.570312 60.726562 89.519531 60.785156 89.472656 60.847656 L 89.464844 60.855469 C 88.324219 62.273438 86.9375 63.636719 85.363281 64.894531 C 85.339844 64.914062 85.316406 64.933594 85.292969 64.953125 C 85.285156 64.957031 85.277344 64.964844 85.269531 64.96875 C 85.179688 65.042969 85.089844 65.113281 84.996094 65.183594 C 84.980469 65.195312 84.964844 65.207031 84.949219 65.21875 C 84.875 65.277344 84.796875 65.335938 84.71875 65.394531 C 84.683594 65.421875 84.648438 65.449219 84.609375 65.476562 C 84.542969 65.527344 84.476562 65.578125 84.40625 65.628906 C 84.371094 65.65625 84.332031 65.683594 84.292969 65.710938 C 84.226562 65.757812 84.160156 65.808594 84.09375 65.855469 C 84.054688 65.886719 84.011719 65.914062 83.972656 65.941406 C 83.90625 65.988281 83.839844 66.035156 83.773438 66.082031 C 83.730469 66.113281 83.691406 66.140625 83.648438 66.171875 C 83.582031 66.214844 83.515625 66.261719 83.449219 66.308594 C 83.40625 66.335938 83.363281 66.367188 83.316406 66.398438 C 83.253906 66.441406 83.1875 66.484375 83.121094 66.527344 C 83.074219 66.558594 83.03125 66.589844 82.984375 66.621094 C 82.917969 66.660156 82.855469 66.703125 82.789062 66.746094 C 82.742188 66.777344 82.695312 66.808594 82.644531 66.839844 C 82.582031 66.882812 82.515625 66.921875 82.453125 66.964844 C 82.402344 66.996094 82.355469 67.027344 82.304688 67.058594 C 82.242188 67.097656 82.175781 67.136719 82.113281 67.175781 C 82.0625 67.207031 82.007812 67.238281 81.957031 67.273438 C 81.894531 67.3125 81.828125 67.351562 81.765625 67.390625 C 81.714844 67.421875 81.660156 67.453125 81.609375 67.484375 C 81.542969 67.523438 81.480469 67.558594 81.414062 67.597656 C 81.359375 67.628906 81.308594 67.660156 81.253906 67.691406 C 81.1875 67.730469 81.125 67.765625 81.058594 67.804688 C 81.003906 67.835938 80.949219 67.867188 80.894531 67.898438 C 80.832031 67.933594 80.765625 67.972656 80.699219 68.007812 C 80.644531 68.039062 80.589844 68.070312 80.535156 68.101562 C 80.46875 68.136719 80.402344 68.175781 80.332031 68.210938 C 80.277344 68.242188 80.222656 68.273438 80.167969 68.300781 C 80.097656 68.339844 80.03125 68.375 79.964844 68.410156 C 79.90625 68.441406 79.851562 68.46875 79.796875 68.5 C 79.726562 68.535156 79.65625 68.574219 79.589844 68.609375 C 79.53125 68.636719 79.476562 68.667969 79.421875 68.695312 C 79.351562 68.730469 79.277344 68.769531 79.207031 68.804688 C 79.152344 68.832031 79.097656 68.859375 79.042969 68.886719 C 78.96875 68.921875 78.894531 68.960938 78.820312 68.996094 C 78.769531 69.023438 78.714844 69.050781 78.660156 69.074219 C 78.585938 69.113281 78.507812 69.152344 78.429688 69.1875 C 78.378906 69.210938 78.328125 69.238281 78.273438 69.261719 C 78.195312 69.300781 78.113281 69.339844 78.03125 69.378906 C 77.980469 69.398438 77.933594 69.421875 77.886719 69.445312 C 77.796875 69.484375 77.710938 69.527344 77.621094 69.566406 C 77.578125 69.585938 77.535156 69.605469 77.492188 69.625 C 77.398438 69.667969 77.300781 69.710938 77.207031 69.753906 C 77.167969 69.769531 77.132812 69.789062 77.09375 69.804688 C 76.988281 69.851562 76.886719 69.894531 76.785156 69.941406 C 76.753906 69.953125 76.722656 69.964844 76.691406 69.980469 C 76.574219 70.03125 76.460938 70.078125 76.34375 70.128906 C 76.324219 70.136719 76.304688 70.144531 76.285156 70.152344 C 76.152344 70.207031 76.019531 70.261719 75.886719 70.316406 C 75.882812 70.320312 75.878906 70.320312 75.875 70.324219 C 75.039062 70.664062 74.175781 70.988281 73.292969 71.296875 C 73.128906 71.351562 72.964844 71.410156 72.796875 71.464844 C 72.75 71.480469 72.703125 71.496094 72.652344 71.511719 C 72.527344 71.554688 72.398438 71.597656 72.269531 71.640625 C 72.222656 71.65625 72.171875 71.671875 72.125 71.6875 C 71.996094 71.726562 71.863281 71.769531 71.734375 71.8125 C 71.683594 71.824219 71.636719 71.839844 71.589844 71.855469 C 71.457031 71.898438 71.324219 71.9375 71.195312 71.976562 C 71.144531 71.992188 71.09375 72.007812 71.046875 72.023438 C 70.914062 72.0625 70.78125 72.101562 70.648438 72.140625 C 70.597656 72.15625 70.546875 72.167969 70.496094 72.183594 C 70.363281 72.222656 70.230469 72.261719 70.101562 72.296875 C 70.046875 72.3125 69.992188 72.328125 69.941406 72.34375 C 69.808594 72.378906 69.679688 72.414062 69.546875 72.449219 C 69.492188 72.464844 69.433594 72.480469 69.378906 72.496094 C 69.25 72.53125 69.117188 72.566406 68.988281 72.601562 C 68.929688 72.617188 68.871094 72.632812 68.8125 72.648438 C 68.683594 72.679688 68.554688 72.714844 68.425781 72.746094 C 68.363281 72.761719 68.300781 72.777344 68.238281 72.792969 C 68.113281 72.824219 67.984375 72.855469 67.855469 72.886719 C 67.792969 72.902344 67.726562 72.917969 67.664062 72.933594 C 67.535156 72.964844 67.410156 72.996094 67.285156 73.023438 C 67.21875 73.039062 67.148438 73.054688 67.082031 73.070312 C 66.957031 73.101562 66.832031 73.128906 66.707031 73.15625 C 66.636719 73.171875 66.566406 73.1875 66.496094 73.203125 C 66.371094 73.230469 66.246094 73.257812 66.125 73.285156 C 66.050781 73.300781 65.976562 73.316406 65.902344 73.332031 C 65.78125 73.359375 65.660156 73.386719 65.535156 73.410156 C 65.460938 73.425781 65.382812 73.441406 65.308594 73.457031 C 65.1875 73.484375 65.066406 73.507812 64.945312 73.53125 C 64.867188 73.546875 64.785156 73.5625 64.707031 73.578125 C 64.585938 73.601562 64.46875 73.625 64.347656 73.648438 C 64.265625 73.664062 64.183594 73.679688 64.101562 73.695312 C 63.984375 73.714844 63.863281 73.738281 63.746094 73.761719 C 63.660156 73.773438 63.578125 73.789062 63.496094 73.804688 C 63.375 73.828125 63.257812 73.847656 63.136719 73.867188 C 63.050781 73.882812 62.964844 73.898438 62.878906 73.914062 C 62.761719 73.933594 62.644531 73.953125 62.523438 73.972656 C 62.4375 73.988281 62.351562 74 62.261719 74.015625 C 62.144531 74.035156 62.023438 74.054688 61.90625 74.074219 C 61.816406 74.085938 61.726562 74.101562 61.640625 74.113281 C 61.519531 74.132812 61.402344 74.152344 61.28125 74.167969 C 61.191406 74.183594 61.101562 74.195312 61.011719 74.210938 C 60.894531 74.226562 60.773438 74.242188 60.652344 74.261719 C 60.5625 74.273438 60.472656 74.285156 60.382812 74.300781 C 60.261719 74.316406 60.136719 74.332031 60.015625 74.347656 C 59.925781 74.359375 59.835938 74.375 59.746094 74.386719 C 59.621094 74.402344 59.5 74.417969 59.375 74.433594 C 59.285156 74.445312 59.195312 74.457031 59.105469 74.46875 C 58.980469 74.484375 58.855469 74.5 58.726562 74.515625 C 58.640625 74.523438 58.550781 74.535156 58.460938 74.546875 C 58.332031 74.5625 58.203125 74.574219 58.070312 74.589844 C 57.984375 74.597656 57.898438 74.609375 57.8125 74.617188 C 57.675781 74.632812 57.542969 74.648438 57.40625 74.664062 C 57.324219 74.671875 57.242188 74.679688 57.160156 74.6875 C 57.015625 74.703125 56.875 74.71875 56.730469 74.730469 C 56.65625 74.738281 56.578125 74.746094 56.5 74.753906 C 56.347656 74.769531 56.195312 74.78125 56.042969 74.796875 C 55.976562 74.800781 55.90625 74.808594 55.835938 74.816406 C 55.667969 74.828125 55.496094 74.84375 55.324219 74.859375 C 55.273438 74.863281 55.222656 74.867188 55.171875 74.871094 C 54.957031 74.890625 54.742188 74.90625 54.527344 74.921875 C 54.519531 74.921875 54.507812 74.921875 54.5 74.921875 C 54.273438 74.941406 54.042969 74.957031 53.816406 74.972656 C 53.773438 74.976562 53.730469 74.976562 53.691406 74.980469 C 53.5 74.992188 53.308594 75.003906 53.121094 75.015625 C 53.027344 75.023438 52.929688 75.027344 52.835938 75.03125 C 52.699219 75.039062 52.566406 75.046875 52.429688 75.054688 C 52.324219 75.0625 52.214844 75.066406 52.109375 75.070312 C 51.988281 75.078125 51.867188 75.082031 51.746094 75.085938 C 51.632812 75.09375 51.519531 75.097656 51.40625 75.101562 C 51.292969 75.105469 51.179688 75.109375 51.070312 75.113281 C 50.953125 75.117188 50.835938 75.121094 50.71875 75.125 C 50.613281 75.128906 50.503906 75.132812 50.398438 75.136719 C 50.277344 75.136719 50.160156 75.140625 50.039062 75.144531 C 49.9375 75.144531 49.835938 75.148438 49.738281 75.148438 C 49.613281 75.152344 49.488281 75.152344 49.367188 75.15625 C 49.273438 75.15625 49.179688 75.15625 49.085938 75.160156 C 48.957031 75.160156 48.832031 75.160156 48.703125 75.160156 C 48.617188 75.160156 48.53125 75.160156 48.441406 75.160156 C 48.3125 75.160156 48.179688 75.160156 48.046875 75.160156 C 47.972656 75.160156 47.898438 75.160156 47.820312 75.160156 C 47.679688 75.15625 47.539062 75.15625 47.398438 75.15625 C 47.351562 75.152344 47.304688 75.152344 47.253906 75.152344 C 46.714844 75.144531 46.179688 75.128906 45.652344 75.105469 C 45.621094 75.105469 45.585938 75.101562 45.550781 75.101562 C 45.410156 75.09375 45.269531 75.089844 45.125 75.082031 C 45.058594 75.078125 44.992188 75.074219 44.929688 75.070312 C 44.796875 75.0625 44.667969 75.058594 44.539062 75.050781 C 44.460938 75.042969 44.386719 75.039062 44.308594 75.035156 C 44.1875 75.027344 44.0625 75.019531 43.941406 75.011719 C 43.859375 75.003906 43.777344 75 43.695312 74.992188 C 43.578125 74.984375 43.460938 74.976562 43.347656 74.964844 C 43.257812 74.960938 43.171875 74.953125 43.085938 74.945312 C 42.976562 74.9375 42.863281 74.925781 42.753906 74.914062 C 42.660156 74.90625 42.570312 74.898438 42.480469 74.890625 C 42.375 74.878906 42.269531 74.871094 42.164062 74.859375 C 42.066406 74.847656 41.972656 74.839844 41.875 74.828125 C 41.777344 74.816406 41.679688 74.808594 41.582031 74.796875 C 41.476562 74.785156 41.371094 74.773438 41.265625 74.757812 C 41.179688 74.75 41.089844 74.738281 41.003906 74.726562 C 40.878906 74.710938 40.753906 74.695312 40.632812 74.679688 C 40.5625 74.671875 40.496094 74.664062 40.429688 74.65625 C 40.042969 74.601562 39.660156 74.542969 39.277344 74.484375 C 39.257812 74.480469 39.238281 74.476562 39.21875 74.472656 C 39.050781 74.445312 38.878906 74.417969 38.714844 74.390625 C 38.675781 74.382812 38.636719 74.375 38.597656 74.367188 C 38.449219 74.34375 38.300781 74.316406 38.152344 74.289062 C 38.109375 74.28125 38.0625 74.273438 38.019531 74.261719 C 37.878906 74.234375 37.738281 74.210938 37.597656 74.179688 C 37.550781 74.171875 37.503906 74.160156 37.457031 74.152344 C 37.320312 74.125 37.183594 74.097656 37.046875 74.066406 C 37.003906 74.058594 36.957031 74.046875 36.910156 74.039062 C 36.773438 74.007812 36.636719 73.976562 36.503906 73.945312 C 36.460938 73.9375 36.414062 73.925781 36.367188 73.914062 C 36.234375 73.882812 36.097656 73.851562 35.964844 73.820312 C 35.921875 73.808594 35.878906 73.800781 35.835938 73.789062 C 35.699219 73.753906 35.566406 73.71875 35.429688 73.6875 C 35.390625 73.675781 35.347656 73.664062 35.308594 73.65625 C 34.980469 73.566406 34.652344 73.476562 34.332031 73.382812 C 34.296875 73.375 34.265625 73.363281 34.234375 73.355469 C 34.09375 73.3125 33.957031 73.273438 33.820312 73.230469 C 33.796875 73.222656 33.769531 73.214844 33.746094 73.207031 C 33.648438 73.175781 33.550781 73.144531 33.453125 73.117188 C 33.425781 73.105469 33.394531 73.097656 33.363281 73.085938 C 33.257812 73.050781 33.152344 73.015625 33.046875 72.980469 C 33.027344 72.972656 33.003906 72.96875 32.984375 72.960938 C 32.734375 72.875 32.484375 72.789062 32.238281 72.699219 C 32.191406 72.683594 32.144531 72.664062 32.097656 72.648438 C 32.023438 72.621094 31.949219 72.59375 31.878906 72.566406 C 31.8125 72.539062 31.75 72.515625 31.683594 72.492188 C 31.628906 72.46875 31.578125 72.449219 31.523438 72.429688 C 31.449219 72.398438 31.378906 72.371094 31.308594 72.34375 C 31.261719 72.324219 31.21875 72.308594 31.171875 72.289062 C 31.097656 72.257812 31.019531 72.226562 30.945312 72.195312 C 30.90625 72.179688 30.867188 72.160156 30.828125 72.144531 C 30.75 72.113281 30.667969 72.078125 30.589844 72.042969 C 30.554688 72.027344 30.523438 72.015625 30.488281 72 C 30.40625 71.964844 30.324219 71.925781 30.242188 71.890625 C 30.214844 71.878906 30.183594 71.863281 30.152344 71.851562 C 30.070312 71.8125 29.984375 71.773438 29.902344 71.734375 C 29.875 71.722656 29.847656 71.710938 29.820312 71.699219 C 29.738281 71.65625 29.652344 71.617188 29.566406 71.578125 C 29.542969 71.566406 29.519531 71.554688 29.496094 71.542969 C 29.410156 71.5 29.324219 71.457031 29.238281 71.417969 C 29.21875 71.40625 29.195312 71.394531 29.175781 71.386719 C 29.089844 71.339844 29 71.296875 28.914062 71.25 C 28.894531 71.242188 28.878906 71.234375 28.863281 71.226562 C 28.773438 71.179688 28.683594 71.132812 28.59375 71.085938 C 28.578125 71.078125 28.566406 71.070312 28.550781 71.0625 C 28.460938 71.011719 28.371094 70.964844 28.277344 70.914062 C 28.269531 70.90625 28.257812 70.902344 28.25 70.898438 C 28.15625 70.84375 28.0625 70.792969 27.96875 70.738281 C 27.964844 70.738281 27.960938 70.734375 27.957031 70.734375 C 27.285156 70.347656 26.644531 69.941406 26.035156 69.511719 C 26.007812 69.488281 25.976562 69.46875 25.945312 69.445312 C 25.898438 69.414062 25.851562 69.378906 25.804688 69.34375 C 25.757812 69.308594 25.710938 69.273438 25.660156 69.238281 C 25.625 69.210938 25.589844 69.1875 25.554688 69.160156 C 25.496094 69.113281 25.4375 69.070312 25.382812 69.027344 C 25.355469 69.007812 25.328125 68.984375 25.300781 68.964844 C 25.234375 68.914062 25.167969 68.863281 25.101562 68.808594 C 25.085938 68.796875 25.066406 68.78125 25.046875 68.765625 C 24.972656 68.703125 24.894531 68.644531 24.820312 68.582031 C 24.816406 68.578125 24.8125 68.574219 24.808594 68.570312 C 24.460938 68.285156 24.125 67.988281 23.800781 67.683594 C 23.789062 67.667969 23.773438 67.65625 23.757812 67.644531 C 23.703125 67.589844 23.644531 67.53125 23.585938 67.476562 C 23.546875 67.4375 23.507812 67.398438 23.46875 67.359375 C 21.933594 65.835938 20.980469 64.367188 20.421875 63.304688 C 19.644531 61.835938 19.433594 60.8125 19.433594 60.804688 C 19.429688 60.78125 19.421875 60.757812 19.414062 60.734375 C 19.394531 60.660156 19.371094 60.589844 19.351562 60.515625 C 19.34375 60.488281 19.335938 60.464844 19.332031 60.4375 C 19.316406 60.390625 19.304688 60.34375 19.292969 60.296875 C 19.285156 60.265625 19.277344 60.230469 19.269531 60.199219 C 19.257812 60.164062 19.25 60.125 19.242188 60.089844 C 18.625 57.558594 18.835938 54.945312 19.339844 52.664062 C 19.351562 52.609375 19.363281 52.554688 19.378906 52.5 C 19.382812 52.480469 19.386719 52.460938 19.390625 52.4375 C 19.4375 52.242188 19.484375 52.046875 19.539062 51.847656 C 19.539062 51.839844 19.539062 51.835938 19.539062 51.832031 C 19.765625 50.96875 20.023438 50.164062 20.289062 49.449219 C 21.460938 46.246094 23.34375 42.9375 25.328125 40.597656 Z M 93.910156 55.582031 C 94.335938 56.785156 94.355469 58.117188 93.960938 59.515625 C 93.324219 61.789062 91.570312 64.160156 88.898438 66.378906 C 85.71875 69.019531 81.277344 71.449219 75.703125 73.601562 C 57.304688 80.703125 35.265625 79.441406 26.222656 73.804688 C 24.835938 72.941406 23.960938 71.925781 23.621094 70.792969 C 23.480469 70.3125 23.429688 69.804688 23.476562 69.285156 C 23.621094 69.410156 23.769531 69.535156 23.917969 69.660156 C 23.9375 69.671875 23.953125 69.6875 23.972656 69.699219 C 23.980469 69.707031 23.988281 69.710938 23.992188 69.71875 C 24.070312 69.78125 24.148438 69.84375 24.226562 69.90625 C 24.242188 69.917969 24.257812 69.933594 24.277344 69.945312 C 24.347656 70 24.414062 70.054688 24.484375 70.109375 C 24.527344 70.140625 24.570312 70.171875 24.609375 70.203125 C 24.65625 70.238281 24.703125 70.277344 24.75 70.3125 C 24.9375 70.449219 25.125 70.585938 25.316406 70.722656 C 25.324219 70.726562 25.328125 70.726562 25.332031 70.730469 C 25.421875 70.796875 25.515625 70.859375 25.609375 70.921875 C 25.617188 70.925781 25.621094 70.933594 25.628906 70.9375 C 25.722656 71 25.8125 71.058594 25.90625 71.121094 C 25.914062 71.125 25.921875 71.128906 25.929688 71.136719 C 26.019531 71.195312 26.113281 71.253906 26.207031 71.316406 C 26.214844 71.320312 26.222656 71.324219 26.230469 71.332031 C 26.324219 71.390625 26.417969 71.449219 26.511719 71.507812 C 26.519531 71.511719 26.527344 71.515625 26.535156 71.519531 C 26.632812 71.578125 26.726562 71.636719 26.824219 71.695312 C 26.832031 71.699219 26.835938 71.703125 26.84375 71.707031 C 26.941406 71.765625 27.039062 71.824219 27.140625 71.878906 C 27.144531 71.882812 27.152344 71.886719 27.160156 71.890625 C 27.257812 71.949219 27.359375 72.007812 27.460938 72.0625 C 27.464844 72.066406 27.46875 72.070312 27.476562 72.070312 C 27.578125 72.128906 27.683594 72.1875 27.785156 72.242188 C 27.789062 72.246094 27.792969 72.246094 27.796875 72.25 C 27.902344 72.304688 28.011719 72.363281 28.117188 72.417969 C 28.121094 72.421875 28.121094 72.421875 28.125 72.421875 C 29.003906 72.882812 29.925781 73.304688 30.894531 73.6875 C 30.917969 73.699219 30.9375 73.707031 30.960938 73.714844 C 31.058594 73.753906 31.152344 73.789062 31.25 73.828125 C 31.289062 73.839844 31.324219 73.855469 31.363281 73.867188 C 31.441406 73.898438 31.523438 73.929688 31.605469 73.960938 C 31.652344 73.980469 31.703125 73.996094 31.75 74.011719 C 31.820312 74.039062 31.894531 74.066406 31.964844 74.089844 C 32.019531 74.109375 32.074219 74.128906 32.132812 74.148438 C 32.195312 74.171875 32.265625 74.195312 32.332031 74.21875 C 32.390625 74.238281 32.449219 74.261719 32.511719 74.28125 C 32.574219 74.300781 32.636719 74.324219 32.699219 74.34375 C 32.761719 74.363281 32.828125 74.386719 32.890625 74.40625 C 32.949219 74.425781 33.007812 74.445312 33.070312 74.464844 C 33.136719 74.484375 33.203125 74.507812 33.273438 74.527344 C 33.300781 74.535156 33.324219 74.546875 33.351562 74.554688 C 33.375 74.558594 33.394531 74.566406 33.414062 74.574219 C 33.464844 74.589844 33.515625 74.605469 33.5625 74.617188 C 33.652344 74.644531 33.742188 74.671875 33.835938 74.699219 C 33.855469 74.707031 33.878906 74.714844 33.902344 74.71875 C 34.074219 74.769531 34.246094 74.820312 34.417969 74.867188 C 34.425781 74.871094 34.4375 74.871094 34.445312 74.875 C 34.550781 74.902344 34.65625 74.933594 34.761719 74.960938 C 34.8125 74.972656 34.863281 74.988281 34.910156 75 C 34.957031 75.011719 35.003906 75.023438 35.054688 75.035156 C 35.1875 75.070312 35.324219 75.105469 35.464844 75.140625 C 35.503906 75.152344 35.546875 75.160156 35.589844 75.171875 C 35.734375 75.207031 35.878906 75.242188 36.023438 75.277344 C 36.0625 75.285156 36.097656 75.292969 36.136719 75.300781 C 36.289062 75.335938 36.441406 75.371094 36.597656 75.40625 C 36.628906 75.410156 36.660156 75.417969 36.691406 75.425781 C 36.855469 75.460938 37.023438 75.496094 37.191406 75.53125 C 37.210938 75.535156 37.230469 75.539062 37.25 75.542969 C 38.015625 75.695312 38.800781 75.832031 39.601562 75.953125 C 39.628906 75.957031 39.65625 75.960938 39.683594 75.964844 C 39.847656 75.988281 40.019531 76.015625 40.1875 76.035156 C 40.242188 76.042969 40.300781 76.050781 40.355469 76.058594 C 40.496094 76.078125 40.636719 76.097656 40.777344 76.113281 C 40.851562 76.121094 40.921875 76.132812 40.996094 76.140625 C 41.121094 76.15625 41.246094 76.171875 41.375 76.183594 C 41.457031 76.195312 41.539062 76.203125 41.621094 76.210938 C 41.738281 76.226562 41.859375 76.238281 41.976562 76.25 C 42.066406 76.257812 42.15625 76.269531 42.246094 76.277344 C 42.359375 76.289062 42.472656 76.296875 42.585938 76.308594 C 42.679688 76.316406 42.777344 76.324219 42.871094 76.332031 C 42.980469 76.34375 43.089844 76.351562 43.199219 76.359375 C 43.300781 76.371094 43.402344 76.378906 43.5 76.386719 C 43.605469 76.390625 43.710938 76.398438 43.816406 76.40625 C 43.921875 76.414062 44.027344 76.421875 44.136719 76.429688 C 44.234375 76.433594 44.335938 76.441406 44.4375 76.449219 C 44.550781 76.453125 44.660156 76.460938 44.773438 76.46875 C 44.867188 76.472656 44.960938 76.476562 45.058594 76.480469 C 45.175781 76.488281 45.296875 76.492188 45.414062 76.5 C 45.46875 76.5 45.523438 76.503906 45.578125 76.503906 C 45.863281 76.515625 46.152344 76.527344 46.441406 76.535156 C 46.523438 76.539062 46.601562 76.539062 46.679688 76.542969 C 46.804688 76.546875 46.929688 76.546875 47.058594 76.550781 C 47.152344 76.550781 47.242188 76.554688 47.339844 76.554688 C 47.460938 76.558594 47.582031 76.558594 47.707031 76.558594 C 47.804688 76.558594 47.90625 76.5625 48.003906 76.5625 C 48.125 76.5625 48.246094 76.5625 48.367188 76.5625 C 48.46875 76.5625 48.574219 76.5625 48.679688 76.5625 C 48.796875 76.5625 48.914062 76.5625 49.035156 76.5625 C 49.140625 76.558594 49.25 76.558594 49.359375 76.558594 C 49.476562 76.554688 49.59375 76.554688 49.710938 76.550781 C 49.824219 76.550781 49.9375 76.546875 50.050781 76.546875 C 50.164062 76.542969 50.277344 76.539062 50.390625 76.539062 C 50.511719 76.535156 50.628906 76.53125 50.746094 76.527344 C 50.859375 76.523438 50.96875 76.519531 51.082031 76.515625 C 51.207031 76.511719 51.332031 76.507812 51.457031 76.503906 C 51.5625 76.5 51.671875 76.496094 51.777344 76.488281 C 51.914062 76.484375 52.046875 76.476562 52.183594 76.472656 C 52.28125 76.464844 52.382812 76.460938 52.480469 76.457031 C 52.636719 76.449219 52.789062 76.441406 52.945312 76.429688 C 53.027344 76.425781 53.109375 76.421875 53.191406 76.417969 C 53.425781 76.402344 53.667969 76.386719 53.90625 76.371094 C 54.136719 76.355469 54.367188 76.339844 54.597656 76.320312 C 54.617188 76.320312 54.636719 76.320312 54.65625 76.316406 C 54.722656 76.3125 54.789062 76.308594 54.855469 76.300781 C 54.996094 76.289062 55.140625 76.28125 55.28125 76.269531 C 55.320312 76.265625 55.355469 76.261719 55.394531 76.257812 C 55.476562 76.253906 55.558594 76.246094 55.640625 76.238281 C 55.75 76.230469 55.855469 76.21875 55.960938 76.210938 C 56.015625 76.207031 56.070312 76.199219 56.128906 76.195312 C 56.214844 76.1875 56.300781 76.179688 56.390625 76.171875 C 56.472656 76.164062 56.554688 76.15625 56.636719 76.148438 C 56.710938 76.140625 56.785156 76.132812 56.859375 76.125 C 56.945312 76.117188 57.03125 76.109375 57.117188 76.101562 C 57.179688 76.09375 57.246094 76.089844 57.308594 76.082031 C 57.390625 76.074219 57.472656 76.0625 57.550781 76.054688 C 57.570312 76.054688 57.589844 76.050781 57.605469 76.050781 C 57.683594 76.042969 57.761719 76.035156 57.835938 76.023438 C 57.882812 76.019531 57.929688 76.015625 57.972656 76.011719 C 58.058594 76 58.140625 75.992188 58.226562 75.980469 C 58.304688 75.972656 58.382812 75.964844 58.460938 75.957031 C 58.492188 75.953125 58.519531 75.949219 58.546875 75.945312 C 58.574219 75.941406 58.605469 75.9375 58.632812 75.9375 C 58.71875 75.925781 58.804688 75.914062 58.890625 75.90625 C 59.015625 75.890625 59.136719 75.875 59.261719 75.859375 C 59.28125 75.859375 59.296875 75.855469 59.316406 75.851562 C 59.394531 75.84375 59.472656 75.832031 59.550781 75.824219 C 59.683594 75.804688 59.8125 75.789062 59.941406 75.773438 C 59.96875 75.769531 59.996094 75.765625 60.019531 75.761719 C 60.023438 75.761719 60.03125 75.761719 60.035156 75.761719 C 60.050781 75.757812 60.066406 75.757812 60.082031 75.753906 C 60.125 75.75 60.164062 75.742188 60.207031 75.738281 C 60.335938 75.71875 60.464844 75.703125 60.589844 75.683594 C 60.679688 75.671875 60.765625 75.660156 60.855469 75.648438 C 60.859375 75.648438 60.863281 75.644531 60.867188 75.644531 C 60.917969 75.636719 60.96875 75.632812 61.019531 75.625 C 61.09375 75.613281 61.164062 75.601562 61.234375 75.59375 C 61.320312 75.578125 61.40625 75.566406 61.496094 75.554688 C 61.617188 75.535156 61.734375 75.515625 61.855469 75.5 C 61.875 75.496094 61.894531 75.492188 61.917969 75.488281 C 61.988281 75.480469 62.058594 75.464844 62.132812 75.457031 C 62.257812 75.433594 62.382812 75.414062 62.503906 75.394531 C 62.582031 75.382812 62.65625 75.371094 62.734375 75.359375 C 62.777344 75.351562 62.824219 75.34375 62.867188 75.335938 C 62.957031 75.320312 63.046875 75.304688 63.132812 75.289062 C 63.21875 75.277344 63.304688 75.261719 63.386719 75.246094 C 63.492188 75.226562 63.59375 75.210938 63.695312 75.191406 C 63.71875 75.1875 63.742188 75.183594 63.765625 75.179688 C 63.847656 75.164062 63.925781 75.148438 64.007812 75.136719 C 64.132812 75.113281 64.253906 75.089844 64.378906 75.066406 C 64.441406 75.054688 64.503906 75.042969 64.566406 75.03125 C 64.601562 75.023438 64.636719 75.019531 64.671875 75.011719 C 64.78125 74.992188 64.886719 74.96875 64.996094 74.949219 C 65.074219 74.933594 65.152344 74.917969 65.230469 74.902344 C 65.320312 74.882812 65.40625 74.867188 65.492188 74.847656 C 65.5 74.847656 65.507812 74.847656 65.515625 74.84375 C 65.542969 74.839844 65.574219 74.832031 65.605469 74.828125 C 65.683594 74.808594 65.757812 74.792969 65.835938 74.777344 C 65.960938 74.753906 66.085938 74.726562 66.210938 74.699219 C 66.261719 74.6875 66.308594 74.679688 66.359375 74.667969 C 66.382812 74.664062 66.40625 74.65625 66.429688 74.652344 C 66.429688 74.652344 66.433594 74.652344 66.433594 74.652344 C 66.5625 74.625 66.6875 74.597656 66.8125 74.566406 C 66.886719 74.550781 66.957031 74.535156 67.027344 74.519531 C 67.15625 74.492188 67.285156 74.460938 67.410156 74.433594 C 67.480469 74.417969 67.550781 74.398438 67.617188 74.382812 C 67.746094 74.355469 67.875 74.324219 68.003906 74.292969 C 68.023438 74.285156 68.042969 74.28125 68.066406 74.277344 C 68.074219 74.273438 68.085938 74.273438 68.09375 74.269531 C 68.128906 74.261719 68.164062 74.253906 68.203125 74.246094 C 68.332031 74.210938 68.460938 74.179688 68.589844 74.148438 C 68.652344 74.132812 68.71875 74.117188 68.78125 74.101562 C 68.914062 74.066406 69.042969 74.03125 69.171875 74 C 69.234375 73.984375 69.292969 73.96875 69.355469 73.953125 C 69.472656 73.921875 69.589844 73.890625 69.707031 73.859375 C 69.738281 73.851562 69.765625 73.839844 69.796875 73.832031 C 69.839844 73.824219 69.882812 73.8125 69.925781 73.800781 C 70.058594 73.761719 70.191406 73.726562 70.324219 73.6875 C 70.378906 73.671875 70.433594 73.65625 70.488281 73.640625 C 70.625 73.605469 70.757812 73.566406 70.890625 73.527344 C 70.945312 73.511719 70.996094 73.496094 71.046875 73.480469 C 71.148438 73.453125 71.246094 73.421875 71.34375 73.394531 C 71.378906 73.382812 71.414062 73.371094 71.449219 73.359375 C 71.453125 73.359375 71.453125 73.359375 71.453125 73.359375 C 71.503906 73.34375 71.554688 73.332031 71.605469 73.316406 C 71.738281 73.273438 71.875 73.230469 72.007812 73.191406 C 72.058594 73.175781 72.105469 73.160156 72.15625 73.144531 C 72.160156 73.144531 72.164062 73.140625 72.167969 73.140625 C 72.175781 73.136719 72.183594 73.136719 72.191406 73.132812 C 72.3125 73.09375 72.433594 73.054688 72.554688 73.015625 C 72.605469 73.003906 72.652344 72.988281 72.699219 72.972656 C 72.777344 72.945312 72.851562 72.921875 72.929688 72.894531 C 72.964844 72.882812 73.003906 72.871094 73.042969 72.859375 C 73.058594 72.851562 73.078125 72.847656 73.097656 72.839844 C 73.144531 72.824219 73.191406 72.808594 73.242188 72.792969 C 73.265625 72.78125 73.292969 72.773438 73.320312 72.765625 C 74.382812 72.40625 75.410156 72.023438 76.40625 71.617188 C 76.425781 71.609375 76.441406 71.601562 76.457031 71.59375 C 76.582031 71.542969 76.707031 71.492188 76.832031 71.441406 C 76.863281 71.425781 76.894531 71.414062 76.925781 71.398438 C 77.035156 71.355469 77.144531 71.308594 77.25 71.261719 C 77.292969 71.242188 77.335938 71.226562 77.375 71.207031 C 77.472656 71.164062 77.570312 71.121094 77.667969 71.082031 C 77.714844 71.058594 77.761719 71.039062 77.8125 71.015625 C 77.898438 70.976562 77.988281 70.9375 78.078125 70.894531 C 78.132812 70.871094 78.183594 70.847656 78.238281 70.824219 C 78.320312 70.785156 78.402344 70.746094 78.484375 70.707031 C 78.542969 70.683594 78.597656 70.65625 78.65625 70.628906 C 78.734375 70.59375 78.8125 70.554688 78.886719 70.519531 C 78.949219 70.492188 79.003906 70.460938 79.0625 70.433594 C 79.140625 70.398438 79.214844 70.363281 79.289062 70.324219 C 79.347656 70.296875 79.40625 70.265625 79.46875 70.238281 C 79.539062 70.203125 79.613281 70.164062 79.683594 70.128906 C 79.746094 70.097656 79.804688 70.066406 79.863281 70.039062 C 79.933594 70.003906 80.003906 69.964844 80.074219 69.929688 C 80.136719 69.898438 80.195312 69.867188 80.257812 69.835938 C 80.324219 69.800781 80.394531 69.765625 80.460938 69.730469 C 80.523438 69.695312 80.582031 69.664062 80.644531 69.632812 C 80.710938 69.597656 80.777344 69.558594 80.84375 69.523438 C 80.90625 69.492188 80.964844 69.457031 81.027344 69.425781 C 81.09375 69.390625 81.160156 69.351562 81.226562 69.316406 C 81.285156 69.285156 81.34375 69.25 81.402344 69.21875 C 81.46875 69.179688 81.535156 69.144531 81.601562 69.105469 C 81.65625 69.074219 81.714844 69.039062 81.773438 69.007812 C 81.839844 68.96875 81.90625 68.929688 81.972656 68.890625 C 82.027344 68.859375 82.085938 68.824219 82.140625 68.792969 C 82.207031 68.753906 82.273438 68.714844 82.339844 68.675781 C 82.394531 68.640625 82.449219 68.609375 82.503906 68.578125 C 82.570312 68.535156 82.636719 68.496094 82.703125 68.457031 C 82.753906 68.421875 82.808594 68.390625 82.859375 68.359375 C 82.925781 68.316406 82.992188 68.277344 83.058594 68.234375 C 83.113281 68.203125 83.164062 68.167969 83.214844 68.136719 C 83.28125 68.09375 83.347656 68.050781 83.414062 68.007812 C 83.464844 67.976562 83.515625 67.945312 83.5625 67.914062 C 83.632812 67.867188 83.699219 67.824219 83.765625 67.78125 C 83.8125 67.75 83.859375 67.71875 83.90625 67.6875 C 83.976562 67.640625 84.042969 67.59375 84.113281 67.546875 C 84.15625 67.519531 84.203125 67.488281 84.246094 67.457031 C 84.316406 67.410156 84.386719 67.359375 84.453125 67.3125 C 84.496094 67.285156 84.539062 67.253906 84.582031 67.222656 C 84.652344 67.175781 84.722656 67.125 84.792969 67.078125 C 84.832031 67.046875 84.871094 67.019531 84.914062 66.988281 C 84.984375 66.9375 85.054688 66.886719 85.125 66.835938 C 85.164062 66.808594 85.203125 66.78125 85.238281 66.75 C 85.3125 66.699219 85.382812 66.644531 85.453125 66.59375 C 85.488281 66.566406 85.527344 66.539062 85.5625 66.511719 C 85.59375 66.488281 85.625 66.464844 85.65625 66.441406 C 85.714844 66.394531 85.773438 66.351562 85.832031 66.304688 C 85.832031 66.304688 85.835938 66.300781 85.839844 66.300781 C 85.945312 66.21875 86.046875 66.136719 86.152344 66.054688 C 86.152344 66.054688 86.152344 66.054688 86.15625 66.054688 C 86.160156 66.050781 86.164062 66.046875 86.167969 66.042969 C 86.242188 65.984375 86.320312 65.921875 86.394531 65.859375 C 86.40625 65.851562 86.421875 65.839844 86.433594 65.828125 C 86.503906 65.769531 86.578125 65.710938 86.648438 65.652344 C 86.65625 65.648438 86.664062 65.640625 86.671875 65.632812 C 88.347656 64.246094 89.703125 62.828125 90.78125 61.445312 C 90.804688 61.414062 90.828125 61.382812 90.851562 61.351562 C 90.875 61.320312 90.898438 61.289062 90.921875 61.261719 C 91.097656 61.03125 91.269531 60.796875 91.433594 60.566406 C 91.835938 59.992188 92.203125 59.410156 92.53125 58.828125 C 92.746094 58.441406 92.945312 58.050781 93.125 57.664062 C 93.125 57.664062 93.125 57.664062 93.125 57.660156 C 93.132812 57.652344 93.136719 57.644531 93.140625 57.632812 C 93.238281 57.421875 93.328125 57.210938 93.414062 57.003906 C 93.425781 56.96875 93.441406 56.9375 93.453125 56.902344 C 93.460938 56.890625 93.464844 56.875 93.46875 56.863281 C 93.492188 56.808594 93.511719 56.757812 93.53125 56.703125 C 93.535156 56.699219 93.535156 56.699219 93.535156 56.695312 C 93.683594 56.3125 93.808594 55.941406 93.910156 55.582031 Z M 101.648438 50.433594 C 103.417969 53.007812 103.90625 56.160156 103.101562 59.796875 C 102.351562 63.160156 100.589844 66.367188 97.855469 69.335938 C 95.121094 72.308594 91.46875 74.988281 86.996094 77.292969 C 77.65625 82.109375 65.277344 85.058594 51.203125 85.8125 C 46.429688 86.070312 41.84375 85.957031 37.574219 85.476562 C 33.601562 85.027344 29.878906 84.257812 26.507812 83.191406 C 20.351562 81.242188 15.492188 78.351562 12.449219 74.832031 C 11.152344 73.332031 10.230469 71.761719 9.71875 70.171875 C 9.21875 68.613281 9.113281 67.070312 9.414062 65.585938 C 9.972656 62.824219 11.335938 60.121094 13.46875 57.546875 C 14.683594 56.082031 16.125 54.683594 17.765625 53.371094 C 17.667969 53.917969 17.59375 54.457031 17.542969 54.988281 C 17.539062 55.023438 17.539062 55.058594 17.535156 55.09375 C 17.527344 55.171875 17.519531 55.25 17.515625 55.328125 C 17.511719 55.359375 17.507812 55.394531 17.507812 55.425781 C 17.496094 55.546875 17.488281 55.664062 17.484375 55.785156 C 17.480469 55.800781 17.480469 55.816406 17.480469 55.832031 C 17.394531 57.441406 17.523438 58.964844 17.871094 60.394531 C 17.871094 60.398438 17.871094 60.402344 17.871094 60.410156 C 17.898438 60.519531 17.925781 60.628906 17.957031 60.734375 C 17.960938 60.753906 17.964844 60.773438 17.972656 60.792969 C 18 60.898438 18.03125 61.003906 18.0625 61.109375 C 18.0625 61.109375 18.0625 61.109375 18.0625 61.113281 C 18.148438 61.523438 18.925781 64.734375 22.261719 68.140625 C 21.816406 69.871094 21.832031 72.714844 25.480469 74.992188 C 30.265625 77.972656 38.292969 79.753906 47.507812 79.878906 C 51.378906 79.929688 55.300781 79.6875 59.160156 79.175781 C 65.132812 78.378906 70.953125 76.933594 76.203125 74.90625 C 81.921875 72.699219 86.492188 70.191406 89.789062 67.457031 C 92.722656 65.023438 94.578125 62.476562 95.308594 59.894531 C 95.980469 57.503906 95.609375 55.167969 94.269531 53.292969 C 94.269531 53.210938 94.269531 53.128906 94.265625 53.050781 C 94.265625 52.992188 94.261719 52.933594 94.257812 52.878906 C 94.257812 52.863281 94.253906 52.851562 94.253906 52.835938 C 94.25 52.792969 94.246094 52.75 94.242188 52.707031 C 94.242188 52.691406 94.242188 52.679688 94.238281 52.667969 C 94.234375 52.621094 94.230469 52.578125 94.222656 52.53125 C 94.222656 52.523438 94.222656 52.515625 94.222656 52.507812 C 94.214844 52.460938 94.207031 52.410156 94.199219 52.359375 C 94.199219 52.359375 94.199219 52.359375 94.199219 52.355469 C 93.957031 50.808594 93.085938 49.308594 91.609375 47.882812 C 90.734375 47.042969 89.746094 46.328125 88.839844 45.757812 C 88.835938 45.753906 88.832031 45.753906 88.828125 45.75 C 88.820312 45.746094 88.8125 45.738281 88.804688 45.734375 C 88.496094 45.542969 88.199219 45.367188 87.914062 45.207031 C 87.910156 45.203125 87.90625 45.203125 87.90625 45.203125 C 87.878906 45.1875 87.851562 45.171875 87.824219 45.15625 C 87.988281 44.554688 88.128906 43.96875 88.230469 43.421875 C 90.171875 43.75 92.800781 44.367188 95.355469 45.527344 C 98.164062 46.800781 100.28125 48.453125 101.644531 50.4375 Z M 90.710938 35.492188 C 89.574219 36.796875 87.625 39.398438 86.984375 42.480469 C 86.984375 42.484375 86.984375 42.488281 86.980469 42.492188 C 86.972656 42.53125 86.964844 42.574219 86.957031 42.617188 C 86.9375 42.707031 86.925781 42.789062 86.910156 42.871094 C 86.894531 42.953125 86.878906 43.039062 86.863281 43.125 C 86.859375 43.144531 86.859375 43.164062 86.855469 43.183594 C 86.84375 43.242188 86.832031 43.304688 86.820312 43.363281 C 86.757812 43.660156 86.675781 44.027344 86.566406 44.457031 C 86.554688 44.503906 86.542969 44.546875 86.53125 44.589844 C 86.519531 44.632812 86.507812 44.675781 86.496094 44.71875 C 86.472656 44.804688 86.449219 44.890625 86.425781 44.976562 C 86.421875 44.980469 86.421875 44.988281 86.421875 44.992188 C 86.390625 45.097656 86.359375 45.199219 86.328125 45.304688 C 86 46.402344 85.511719 47.765625 84.800781 49.242188 C 84.785156 49.28125 84.765625 49.316406 84.75 49.355469 C 84.738281 49.378906 84.726562 49.402344 84.714844 49.425781 C 84.261719 50.347656 83.71875 51.308594 83.078125 52.285156 C 82.753906 52.773438 82.414062 53.246094 82.0625 53.699219 C 82.054688 53.710938 82.046875 53.722656 82.039062 53.730469 C 81.964844 53.828125 81.886719 53.921875 81.8125 54.019531 C 81.785156 54.050781 81.761719 54.082031 81.734375 54.113281 C 81.671875 54.191406 81.605469 54.269531 81.542969 54.347656 C 81.519531 54.375 81.496094 54.402344 81.472656 54.429688 C 81.402344 54.511719 81.335938 54.59375 81.265625 54.675781 C 81.246094 54.699219 81.226562 54.71875 81.207031 54.742188 C 81.132812 54.828125 81.054688 54.914062 80.976562 55 C 80.964844 55.015625 80.953125 55.03125 80.9375 55.042969 C 80.855469 55.136719 80.769531 55.230469 80.683594 55.320312 C 80.675781 55.328125 80.671875 55.335938 80.664062 55.34375 C 80.570312 55.441406 80.476562 55.539062 80.382812 55.636719 C 79.792969 56.238281 79.175781 56.800781 78.53125 57.3125 C 76.976562 58.558594 75.253906 59.550781 73.398438 60.273438 C 73.375 60.28125 73.351562 60.292969 73.324219 60.300781 C 73.265625 60.324219 73.203125 60.347656 73.140625 60.371094 C 73.058594 60.402344 72.976562 60.429688 72.898438 60.460938 C 72.855469 60.476562 72.8125 60.488281 72.769531 60.503906 C 72.699219 60.53125 72.628906 60.554688 72.558594 60.578125 C 72.523438 60.589844 72.492188 60.601562 72.457031 60.609375 C 72.355469 60.644531 72.253906 60.675781 72.152344 60.710938 C 72.125 60.71875 72.097656 60.726562 72.070312 60.734375 C 71.960938 60.769531 71.851562 60.800781 71.742188 60.832031 C 68.875 61.667969 66.277344 61.839844 64.015625 61.34375 C 62.300781 60.96875 60.746094 60.199219 59.390625 59.054688 C 57.542969 57.488281 56.203125 55.339844 55.527344 52.839844 C 55.5 52.746094 55.476562 52.652344 55.449219 52.558594 C 55.445312 52.53125 55.4375 52.507812 55.429688 52.484375 C 55.410156 52.40625 55.390625 52.324219 55.371094 52.246094 C 55.359375 52.195312 55.347656 52.144531 55.332031 52.09375 C 55.328125 52.070312 55.324219 52.046875 55.316406 52.027344 C 55.109375 51.152344 54.910156 50.140625 54.777344 49.054688 C 54.773438 49.046875 54.773438 49.039062 54.773438 49.03125 C 54.765625 48.96875 54.757812 48.910156 54.753906 48.851562 C 54.75 48.816406 54.746094 48.777344 54.742188 48.742188 C 54.738281 48.710938 54.734375 48.675781 54.730469 48.644531 C 54.722656 48.582031 54.71875 48.515625 54.710938 48.457031 C 54.710938 48.453125 54.710938 48.449219 54.710938 48.445312 C 54.609375 47.367188 54.597656 46.445312 54.632812 45.683594 C 54.632812 45.664062 54.632812 45.648438 54.632812 45.628906 C 54.636719 45.585938 54.640625 45.539062 54.640625 45.496094 C 54.644531 45.429688 54.648438 45.359375 54.652344 45.292969 C 54.65625 45.273438 54.65625 45.253906 54.65625 45.230469 C 54.664062 45.152344 54.667969 45.070312 54.675781 44.992188 C 54.777344 43.859375 54.988281 42.804688 55.316406 41.835938 C 55.941406 39.988281 56.980469 38.449219 58.421875 37.242188 C 58.933594 36.8125 59.492188 36.421875 60.097656 36.070312 C 60.996094 35.546875 61.988281 35.113281 63.078125 34.765625 C 63.488281 34.632812 63.914062 34.515625 64.351562 34.40625 C 65.492188 34.128906 66.738281 33.929688 68.066406 33.8125 C 68.21875 33.800781 68.367188 33.789062 68.519531 33.777344 C 72.265625 33.503906 76.011719 33.890625 78.746094 34.175781 C 78.785156 34.179688 78.820312 34.183594 78.859375 34.1875 C 79.023438 34.203125 79.183594 34.21875 79.339844 34.234375 C 79.339844 34.234375 79.34375 34.234375 79.34375 34.234375 C 81.28125 34.433594 82.363281 34.511719 82.984375 34.324219 C 84.5 33.867188 86.046875 32.695312 87.082031 31.789062 C 87.460938 31.460938 87.976562 31.355469 88.433594 31.507812 C 88.453125 31.515625 88.472656 31.527344 88.492188 31.535156 C 88.515625 31.542969 88.539062 31.550781 88.5625 31.558594 C 88.566406 31.5625 88.574219 31.5625 88.578125 31.566406 C 88.585938 31.570312 88.597656 31.574219 88.605469 31.578125 C 88.617188 31.582031 88.632812 31.589844 88.648438 31.597656 C 88.65625 31.601562 88.664062 31.605469 88.675781 31.609375 C 88.6875 31.617188 88.703125 31.625 88.71875 31.632812 C 88.726562 31.636719 88.734375 31.640625 88.746094 31.644531 C 88.761719 31.652344 88.777344 31.660156 88.789062 31.667969 C 88.800781 31.675781 88.808594 31.679688 88.816406 31.683594 C 88.832031 31.691406 88.847656 31.699219 88.863281 31.707031 C 88.875 31.714844 88.882812 31.71875 88.890625 31.722656 C 88.90625 31.734375 88.921875 31.742188 88.9375 31.75 C 88.949219 31.757812 88.957031 31.761719 88.964844 31.765625 C 88.984375 31.777344 89 31.785156 89.015625 31.796875 C 89.023438 31.800781 89.03125 31.808594 89.042969 31.8125 C 89.058594 31.820312 89.074219 31.832031 89.09375 31.84375 C 89.101562 31.847656 89.109375 31.855469 89.117188 31.859375 C 89.132812 31.871094 89.152344 31.882812 89.167969 31.890625 C 89.179688 31.898438 89.1875 31.902344 89.195312 31.910156 C 89.210938 31.921875 89.230469 31.933594 89.246094 31.945312 C 89.257812 31.949219 89.265625 31.957031 89.273438 31.960938 C 89.289062 31.972656 89.308594 31.988281 89.324219 32 C 89.335938 32.003906 89.34375 32.011719 89.351562 32.015625 C 89.367188 32.03125 89.386719 32.042969 89.40625 32.058594 C 89.414062 32.0625 89.421875 32.070312 89.429688 32.074219 C 89.449219 32.089844 89.464844 32.101562 89.484375 32.117188 C 89.492188 32.121094 89.5 32.128906 89.507812 32.136719 C 89.527344 32.148438 89.542969 32.164062 89.5625 32.179688 C 89.570312 32.1875 89.578125 32.191406 89.585938 32.199219 C 89.605469 32.214844 89.625 32.230469 89.644531 32.246094 C 89.648438 32.25 89.65625 32.257812 89.664062 32.261719 C 89.683594 32.28125 89.703125 32.296875 89.722656 32.3125 C 89.730469 32.320312 89.734375 32.328125 89.742188 32.332031 C 89.761719 32.351562 89.78125 32.367188 89.800781 32.386719 C 89.808594 32.394531 89.816406 32.398438 89.820312 32.40625 C 89.839844 32.425781 89.859375 32.441406 89.878906 32.460938 C 89.886719 32.46875 89.894531 32.472656 89.898438 32.480469 C 89.917969 32.5 89.9375 32.519531 89.957031 32.539062 C 89.964844 32.546875 89.96875 32.550781 89.976562 32.558594 C 89.996094 32.578125 90.015625 32.597656 90.035156 32.621094 C 90.039062 32.625 90.046875 32.632812 90.050781 32.640625 C 90.070312 32.660156 90.089844 32.683594 90.109375 32.703125 C 90.117188 32.710938 90.121094 32.71875 90.128906 32.722656 C 90.148438 32.746094 90.167969 32.769531 90.1875 32.792969 C 90.191406 32.796875 90.199219 32.804688 90.203125 32.808594 C 90.222656 32.835938 90.242188 32.859375 90.261719 32.882812 C 90.265625 32.886719 90.269531 32.894531 90.277344 32.898438 C 90.296875 32.925781 90.316406 32.953125 90.335938 32.976562 C 90.339844 32.984375 90.34375 32.988281 90.347656 32.996094 C 90.367188 33.019531 90.390625 33.046875 90.410156 33.074219 C 90.410156 33.078125 90.414062 33.085938 90.417969 33.089844 C 90.4375 33.117188 90.460938 33.148438 90.480469 33.175781 C 90.480469 33.179688 90.484375 33.183594 90.484375 33.1875 C 90.507812 33.21875 90.527344 33.25 90.550781 33.28125 C 90.550781 33.285156 90.550781 33.285156 90.554688 33.289062 C 90.691406 33.5 90.816406 33.734375 90.929688 33.992188 C 90.984375 34.121094 91.023438 34.257812 91.039062 34.402344 C 91.039062 34.414062 91.042969 34.421875 91.042969 34.429688 C 91.082031 34.8125 90.96875 35.199219 90.710938 35.492188 Z M 104.375 27.957031 C 104.289062 28.839844 103.941406 29.480469 103.3125 29.902344 C 102.84375 30.222656 102.242188 30.398438 101.59375 30.484375 C 99.902344 30.710938 97.882812 30.300781 97.035156 30.046875 C 96.828125 29.984375 96.605469 30.019531 96.429688 30.144531 L 92.101562 33.203125 C 92.097656 33.191406 92.09375 33.183594 92.085938 33.171875 C 92.058594 33.117188 92.035156 33.0625 92.003906 33.011719 C 91.996094 32.996094 91.992188 32.980469 91.984375 32.96875 C 91.949219 32.902344 91.914062 32.839844 91.878906 32.777344 C 91.871094 32.765625 91.863281 32.753906 91.855469 32.738281 C 91.828125 32.691406 91.796875 32.640625 91.765625 32.59375 C 91.757812 32.578125 91.746094 32.5625 91.738281 32.546875 C 91.699219 32.488281 91.664062 32.429688 91.625 32.371094 C 91.621094 32.371094 91.621094 32.371094 91.621094 32.367188 C 91.582031 32.3125 91.542969 32.261719 91.507812 32.207031 C 91.496094 32.195312 91.484375 32.179688 91.476562 32.164062 C 91.441406 32.121094 91.410156 32.078125 91.375 32.035156 C 91.367188 32.027344 91.359375 32.015625 91.351562 32.007812 C 91.3125 31.957031 91.273438 31.90625 91.230469 31.859375 C 91.222656 31.847656 91.210938 31.835938 91.203125 31.824219 C 91.167969 31.785156 91.136719 31.75 91.101562 31.710938 C 91.089844 31.699219 91.082031 31.6875 91.070312 31.675781 C 91.027344 31.632812 90.984375 31.589844 90.945312 31.546875 C 90.9375 31.539062 90.933594 31.535156 90.929688 31.53125 C 90.890625 31.492188 90.851562 31.453125 90.816406 31.417969 C 90.804688 31.40625 90.789062 31.394531 90.777344 31.386719 C 90.742188 31.351562 90.703125 31.316406 90.667969 31.28125 C 90.660156 31.277344 90.65625 31.269531 90.648438 31.265625 C 90.605469 31.226562 90.5625 31.191406 90.519531 31.15625 C 90.507812 31.144531 90.5 31.136719 90.488281 31.128906 C 90.453125 31.097656 90.417969 31.070312 90.382812 31.042969 C 90.375 31.035156 90.363281 31.027344 90.351562 31.019531 C 90.308594 30.984375 90.265625 30.953125 90.222656 30.921875 C 90.214844 30.914062 90.207031 30.910156 90.199219 30.902344 C 90.164062 30.878906 90.128906 30.851562 90.09375 30.828125 C 90.082031 30.820312 90.070312 30.808594 90.054688 30.800781 C 90.015625 30.773438 89.976562 30.75 89.9375 30.722656 C 89.9375 30.722656 89.933594 30.71875 89.929688 30.71875 L 93.53125 27.304688 C 93.746094 27.101562 93.8125 26.785156 93.691406 26.511719 C 93.191406 25.394531 92.105469 22.085938 93.054688 20.265625 C 93.414062 19.574219 94.042969 19.148438 94.96875 18.96875 C 95.851562 18.792969 96.53125 18.929688 97.050781 19.382812 C 98.222656 20.410156 98.34375 22.898438 98.292969 23.769531 C 98.28125 23.957031 98.34375 24.140625 98.472656 24.28125 C 98.597656 24.421875 98.777344 24.503906 98.964844 24.511719 C 99 24.511719 102.445312 24.648438 103.839844 26.230469 C 104.261719 26.710938 104.4375 27.277344 104.375 27.957031 Z M 104.375 27.957031 " fill-opacity="1" fill-rule="nonzero"/></g></g></g></g></g></g></g></svg>