<svg xmlns="http://www.w3.org/2000/svg" xmlns:xlink="http://www.w3.org/1999/xlink" width="166" zoomAndPan="magnify" viewBox="0 0 124.5 135.749996" height="181" preserveAspectRatio="xMidYMid meet" version="1.0"><defs><filter x="0%" y="0%" width="100%" height="100%" id="80a8491d5d"><feColorMatrix values="0 0 0 0 1 0 0 0 0 1 0 0 0 0 1 0 0 0 1 0" color-interpolation-filters="sRGB"/></filter><clipPath id="d95c34d5fc"><path d="M 36 45 L 124.003906 45 L 124.003906 135.355469 L 36 135.355469 Z M 36 45 " clip-rule="nonzero"/></clipPath><mask id="3d9b020326"><g filter="url(#80a8491d5d)"><rect x="-12.45" width="149.4" fill="#000000" y="-13.575" height="162.899995" fill-opacity="0.26"/></g></mask><clipPath id="bce92f0443"><path d="M 33 3.984375 L 57 3.984375 L 57 40 L 33 40 Z M 33 3.984375 " clip-rule="nonzero"/></clipPath><clipPath id="ece0670311"><path d="M 43 3.984375 L 67 3.984375 L 67 41 L 43 41 Z M 43 3.984375 " clip-rule="nonzero"/></clipPath><clipPath id="5e6eaaae5f"><path d="M 23 3.984375 L 46 3.984375 L 46 41 L 23 41 Z M 23 3.984375 " clip-rule="nonzero"/></clipPath><clipPath id="cd271c453a"><path d="M 6.742188 26 L 87.417969 26 L 87.417969 89.886719 L 6.742188 89.886719 Z M 6.742188 26 " clip-rule="nonzero"/></clipPath><clipPath id="1a46bd6ab5"><path d="M 59 36 L 87.417969 36 L 87.417969 77 L 59 77 Z M 59 36 " clip-rule="nonzero"/></clipPath><clipPath id="8d307defd7"><path d="M 61 41 L 87.417969 41 L 87.417969 71 L 61 71 Z M 61 41 " clip-rule="nonzero"/></clipPath><clipPath id="9a3a736855"><path d="M 6.742188 62 L 87.417969 62 L 87.417969 89.886719 L 6.742188 89.886719 Z M 6.742188 62 " clip-rule="nonzero"/></clipPath><clipPath id="1920259e39"><path d="M 7 74 L 83 74 L 83 89.886719 L 7 89.886719 Z M 7 74 " clip-rule="nonzero"/></clipPath><clipPath id="079a832036"><path d="M 6.742188 34 L 87.417969 34 L 87.417969 89.886719 L 6.742188 89.886719 Z M 6.742188 34 " clip-rule="nonzero"/></clipPath><clipPath id="31e6fe0fb7"><rect x="0" width="89" y="0" height="91"/></clipPath><clipPath id="f922f16f71"><path d="M 0 0.148438 L 86 0.148438 L 86 82 L 0 82 Z M 0 0.148438 " clip-rule="nonzero"/></clipPath><mask id="e7a099f037"><g filter="url(#80a8491d5d)"><rect x="-12.45" width="149.4" fill="#000000" y="-13.575" height="162.899995" fill-opacity="0.26"/></g></mask><clipPath id="312e111a20"><path d="M 0 0.148438 L 85.15625 0.148438 L 85.15625 81.421875 L 0 81.421875 Z M 0 0.148438 " clip-rule="nonzero"/></clipPath><clipPath id="388d01e656"><rect x="0" width="86" y="0" height="82"/></clipPath></defs><g clip-path="url(#d95c34d5fc)"><g mask="url(#3d9b020326)"><g transform="matrix(1, 0, 0, 1, 36, 45)"><g clip-path="url(#31e6fe0fb7)"><g clip-path="url(#bce92f0443)"><path stroke-linecap="butt" transform="matrix(0.747, 0, 0, 0.747, 6.743805, 3.982668)" fill="none" stroke-linejoin="miter" d="M 50.256158 0.17485 C 49.780297 -0.0761537 49.194621 0.101641 48.938387 0.572273 C 47.071545 3.950369 46.344679 7.42782 46.747332 11.004627 C 47.10815 14.136948 48.551423 16.375067 50.569913 19.434179 C 53.958468 24.569303 53.979385 29.882221 50.632664 35.372934 C 50.365973 35.812191 50.507162 36.382179 50.946419 36.648871 C 50.977795 36.669788 51.00917 36.685475 51.040546 36.701163 L 51.071921 36.711622 C 51.631451 36.962626 52.290337 36.748226 52.588404 36.209614 C 55.652745 30.750276 56.17567 24.313069 52.61978 19.089048 C 50.94119 16.631301 49.905799 14.88996 49.508376 13.865027 C 47.87685 9.692086 48.274273 5.560978 50.695415 1.471704 C 50.951649 1.048135 50.815688 0.493835 50.38689 0.242831 C 50.376431 0.232372 50.360743 0.227143 50.345056 0.216684 L 50.256158 0.17485 " stroke="#8e8e8e" stroke-width="2" stroke-opacity="1" stroke-miterlimit="4"/></g><g clip-path="url(#ece0670311)"><path stroke-linecap="butt" transform="matrix(0.747, 0, 0, 0.747, 6.743805, 3.982668)" fill="none" stroke-linejoin="miter" d="M 64.620909 37.354819 L 64.730723 37.428029 C 65.211814 37.736555 65.860241 37.595365 66.173996 37.109045 C 68.182028 34.013328 68.783392 30.771193 67.988546 27.387868 C 66.733526 22.07495 60.35907 19.188404 64.213027 11.951122 C 64.453573 11.506636 64.291466 10.947106 63.84698 10.690872 L 63.789458 10.654268 C 63.334513 10.392805 62.754066 10.554912 62.497833 11.009857 C 62.492604 11.020315 62.487375 11.025544 62.482145 11.030774 C 61.169604 13.504209 60.793098 16.061312 61.342169 18.712542 C 61.870323 21.196436 63.941106 23.659413 64.887601 25.154979 C 67.05251 28.56445 66.859028 32.862893 64.396051 36.16778 C 64.12413 36.528598 64.19734 37.046294 64.568616 37.318215 C 64.584304 37.333902 64.599992 37.344361 64.620909 37.354819 " stroke="#8e8e8e" stroke-width="2" stroke-opacity="1" stroke-miterlimit="4"/></g><g clip-path="url(#5e6eaaae5f)"><path stroke-linecap="butt" transform="matrix(0.747, 0, 0, 0.747, 6.743805, 3.982668)" fill="none" stroke-linejoin="miter" d="M 37.575227 37.600594 L 37.69027 37.668574 C 38.17659 37.971871 38.819788 37.825452 39.128314 37.339132 C 41.1102 34.222498 41.685417 30.980363 40.864425 27.602268 C 39.562342 22.299808 33.166969 19.460325 36.952946 12.196897 C 37.193491 11.747181 37.031385 11.182422 36.586898 10.936647 L 36.524147 10.894813 C 36.063973 10.63858 35.488756 10.800687 35.232523 11.260861 C 35.227293 11.26609 35.222064 11.276549 35.216835 11.287007 C 33.92521 13.765672 33.569621 16.333233 34.144839 18.979234 C 34.69391 21.452669 36.780381 23.905188 37.742563 25.390295 C 39.933619 28.789307 39.78197 33.087751 37.34514 36.413554 C 37.078448 36.779602 37.156887 37.297298 37.528163 37.563989 C 37.543851 37.579677 37.559539 37.590136 37.575227 37.600594 " stroke="#8e8e8e" stroke-width="2" stroke-opacity="1" stroke-miterlimit="4"/></g><g clip-path="url(#cd271c453a)"><path stroke-linecap="butt" transform="matrix(0.747, 0, 0, 0.747, 6.743805, 3.982668)" fill="none" stroke-linejoin="miter" d="M 88.910776 54.496302 C 88.753899 53.011194 89.548745 49.664474 88.581333 48.116616 C 87.090997 45.737307 82.949431 44.497975 80.434161 43.954133 C 76.632497 43.127912 73.223025 42.568382 70.200519 42.275544 C 54.98863 40.790437 39.583259 40.591725 25.019797 43.473042 C 21.819496 44.105781 18.064894 45.135944 15.570542 47.279936 C 14.702486 48.02249 14.310292 49.115403 14.383502 50.553447 C 15.058075 63.469695 16.658226 76.762449 23.330749 87.738645 C 23.435334 87.905981 23.383042 88.12561 23.215706 88.224965 C 23.179101 88.251112 23.137267 88.266799 23.095433 88.272029 C 20.318701 88.779266 -4.499321 92.314239 0.792681 99.797296 C 2.204578 101.79487 4.474073 102.532194 6.231101 104.090511 C 10.341292 107.71961 15.099909 109.267468 20.836397 110.93037 C 23.388271 111.672923 25.950603 112.258599 28.518165 112.687398 C 45.596896 115.53211 62.529209 115.223584 79.304643 111.756591 C 85.820289 110.417903 92.435291 107.913093 97.612248 103.844736 C 99.191482 102.610633 102.27674 101.251028 103.139566 98.479525 C 105.137139 92.068464 84.298577 88.915226 80.340035 88.224965 C 80.115177 88.183131 79.963529 87.968732 80.005363 87.738645 C 80.010592 87.70727 80.015821 87.675894 80.031509 87.644519 C 80.109948 87.466724 80.266825 87.367368 80.496912 87.346451 C 91.687508 86.248309 106.721602 79.40322 107.694243 66.539265 C 108.499547 55.944804 98.417553 50.621427 89.308199 54.726389 C 89.167009 54.78914 88.999673 54.726389 88.936922 54.585199 C 88.921235 54.559053 88.916005 54.527677 88.910776 54.496302 " stroke="#8e8e8e" stroke-width="2" stroke-opacity="1" stroke-miterlimit="4"/></g><path stroke-linecap="butt" transform="matrix(0.747, 0, 0, 0.747, 6.743805, 3.982668)" fill="none" stroke-linejoin="miter" d="M 51.652368 47.525711 C 59.987793 47.520482 68.077443 47.886529 76.130489 49.523285 C 79.137307 50.135107 81.176715 50.767846 82.253941 51.421502 C 83.017411 51.892135 83.974364 51.902593 84.748293 51.458107 L 86.086981 50.678949 C 86.740637 50.297214 86.970724 49.460534 86.588989 48.801648 C 86.484404 48.618624 86.332756 48.461747 86.154961 48.341474 C 84.873795 47.504794 83.503731 46.877284 82.044771 46.474632 C 72.266073 43.739734 61.723904 43.185433 51.652368 43.185433 C 41.575603 43.190663 31.033435 43.750192 21.259966 46.48509 C 19.801005 46.892972 18.430942 47.520482 17.149775 48.362391 C 16.517036 48.775502 16.339242 49.62264 16.757582 50.260609 C 16.877854 50.438403 17.034732 50.590052 17.217756 50.694637 L 18.556444 51.473795 C 19.335602 51.918281 20.292555 51.902593 21.050796 51.431961 C 22.128022 50.778305 24.167429 50.145565 27.174248 49.533743 C 35.227293 47.902217 43.316943 47.525711 51.652368 47.525711 " stroke="#8e8e8e" stroke-width="2" stroke-opacity="1" stroke-miterlimit="4"/><path stroke-linecap="butt" transform="matrix(0.747, 0, 0, 0.747, 6.743805, 3.982668)" fill="none" stroke-linejoin="miter" d="M 51.652368 56.065077 C 60.819244 56.059847 69.363839 55.280689 77.280924 53.727602 C 78.515027 53.481827 79.602711 53.215135 80.538746 52.922297 C 80.65379 52.890922 80.72177 52.770649 80.685165 52.655605 C 80.664248 52.582396 80.611956 52.524874 80.538746 52.503957 C 78.499339 51.907823 76.386722 51.421502 74.190437 51.055455 C 67.209388 49.889332 59.694955 49.308885 51.647139 49.314115 C 43.599323 49.324573 36.08489 49.915478 29.109071 51.09206 C 26.912785 51.468566 24.800168 51.954886 22.760761 52.55625 C 22.645717 52.592854 22.582966 52.713127 22.614342 52.828171 C 22.640488 52.90138 22.69801 52.953673 22.76599 52.97459 C 23.702026 53.267428 24.78971 53.53412 26.023813 53.774665 C 33.946127 55.312065 42.490722 56.075535 51.652368 56.065077 " stroke="#8e8e8e" stroke-width="2" stroke-opacity="1" stroke-miterlimit="4"/><path stroke-linecap="butt" transform="matrix(0.747, 0, 0, 0.747, 6.743805, 3.982668)" fill="none" stroke-linejoin="miter" d="M 51.657597 100.419577 C 56.468508 100.430035 61.321252 99.896652 66.221059 98.824656 C 66.927008 98.673007 67.659103 98.296501 68.417344 97.695138 C 74.342085 92.999271 78.687592 87.268013 81.459094 80.496134 C 85.035902 71.752827 86.515779 62.162382 87.07008 52.796795 C 87.080538 52.639918 86.955036 52.503957 86.798159 52.493499 C 86.740637 52.493499 86.688345 52.503957 86.636052 52.535333 C 84.763981 53.633475 82.206877 54.611345 80.209304 55.076748 C 70.859404 57.262575 61.363086 57.942377 51.699431 57.937148 C 42.041006 57.92669 32.544688 57.231199 23.200018 55.024456 C 21.202444 54.553823 18.645341 53.570724 16.778499 52.462123 C 16.637309 52.383684 16.464744 52.430748 16.381076 52.566708 C 16.354929 52.619001 16.344471 52.671293 16.344471 52.728815 C 16.872625 62.094402 18.336815 71.690076 21.897934 80.438612 C 24.658979 87.21572 28.994027 92.957437 34.90308 97.658533 C 35.661321 98.265126 36.393416 98.646861 37.104594 98.798509 C 41.999172 99.875735 46.851917 100.419577 51.657597 100.419577 " stroke="#8e8e8e" stroke-width="2" stroke-opacity="1" stroke-miterlimit="4"/><g clip-path="url(#1a46bd6ab5)"><path stroke-linecap="butt" transform="matrix(0.747, 0, 0, 0.747, 6.743805, 3.982668)" fill="none" stroke-linejoin="miter" d="M 88.372163 61.676062 C 88.366934 61.723125 88.403539 61.75973 88.445373 61.764959 C 88.455831 61.764959 88.471519 61.75973 88.487207 61.754501 C 91.661362 59.919034 94.46424 59.286295 96.9063 59.861512 C 99.709178 60.515169 101.220431 62.554576 101.162909 65.383601 C 100.995573 74.153053 91.347607 78.582228 84.110324 80.140545 C 84.005739 80.161462 83.916842 80.234671 83.869779 80.328798 L 81.574138 85.181542 C 81.563679 85.202459 81.568909 85.223376 81.589826 85.233834 C 81.600284 85.239064 81.610743 85.244293 81.621201 85.239064 C 88.011345 84.193214 93.543892 81.960324 98.213612 78.545623 C 100.823008 76.636947 102.851957 74.210575 104.29523 71.256049 C 106.789583 66.167988 106.18299 59.505923 100.749799 56.734421 C 96.989968 54.820515 93.00005 54.930329 88.774816 57.063863 C 88.706835 57.095239 88.665001 57.15799 88.659772 57.236429 L 88.372163 61.676062 " stroke="#8e8e8e" stroke-width="2" stroke-opacity="1" stroke-miterlimit="4"/></g><g clip-path="url(#8d307defd7)"><path stroke-linecap="butt" transform="matrix(0.747, 0, 0, 0.747, 6.743805, 3.982668)" fill="none" stroke-linejoin="miter" d="M 85.234613 77.761236 C 90.97633 76.433006 99.583676 71.810349 99.081668 64.672422 C 98.720849 59.45886 90.369737 62.298343 88.288495 64.248853 C 88.084555 64.442335 87.948594 64.698569 87.896301 64.975719 C 87.148519 69.28985 86.144503 73.426187 84.884253 77.38473 C 84.831961 77.541607 84.920858 77.708943 85.082965 77.756007 C 85.130028 77.771694 85.182321 77.776924 85.234613 77.761236 " stroke="#8e8e8e" stroke-width="2" stroke-opacity="1" stroke-miterlimit="4"/></g><g clip-path="url(#9a3a736855)"><path stroke-linecap="butt" transform="matrix(0.747, 0, 0, 0.747, 6.743805, 3.982668)" fill="none" stroke-linejoin="miter" d="M 51.631451 102.239356 C 47.756577 102.239356 43.536572 101.868079 38.981895 101.130755 C 37.460183 100.88498 36.027369 100.518933 34.672993 100.037842 C 34.505657 99.975091 34.354009 99.880964 34.212819 99.765921 C 30.975913 96.968272 27.43571 94.086955 25.213279 90.504919 C 25.035485 90.222539 24.711271 90.065662 24.381828 90.102266 C 20.271638 90.619962 16.130072 91.435725 11.951901 92.554785 C 8.375093 93.511737 5.038832 94.46869 2.61246 96.780019 C 2.136598 97.234964 2.011096 97.935683 2.309163 98.500442 C 3.245199 100.252241 6.889986 101.826245 8.856184 102.464214 C 14.043601 104.142803 19.539543 105.340301 25.34401 106.051479 C 33.846771 107.081642 42.610995 107.594108 51.631451 107.594108 C 60.651908 107.594108 69.410902 107.076412 77.908434 106.035792 C 83.718131 105.329843 89.219302 104.132345 94.401489 102.448526 C 96.367687 101.810558 100.007245 100.236553 100.943281 98.479525 C 101.246577 97.919995 101.121075 97.214047 100.639984 96.759102 C 98.218841 94.453002 94.877351 93.49082 91.300543 92.539097 C 87.122372 91.425267 82.980806 90.609504 78.875845 90.091808 C 78.541173 90.049974 78.216959 90.206851 78.039165 90.49446 C 75.816733 94.071267 72.28176 96.963043 69.039625 99.760691 C 68.903665 99.875735 68.746787 99.969861 68.579451 100.032612 C 67.230305 100.513703 65.79749 100.879751 64.275778 101.125526 C 59.721101 101.86285 55.506326 102.234127 51.631451 102.239356 " stroke="#8e8e8e" stroke-width="2" stroke-opacity="1" stroke-miterlimit="4"/></g><g clip-path="url(#1920259e39)"><path stroke-linecap="butt" transform="matrix(0.747, 0, 0, 0.747, 6.743805, 3.982668)" fill="none" stroke-linejoin="miter" d="M 51.605305 112.74492 C 62.372331 112.73969 73.719804 111.536963 83.456668 108.645188 C 86.097439 107.8608 88.476748 106.919535 90.599824 105.821392 C 90.652116 105.800475 90.678263 105.737724 90.657346 105.685432 C 90.636429 105.62791 90.578907 105.601764 90.521385 105.622681 C 78.264023 108.634729 65.03402 109.508014 51.600076 109.508014 C 38.17659 109.508014 24.941358 108.639958 12.678766 105.633139 C 12.626474 105.617452 12.563723 105.643598 12.548035 105.70112 C 12.527118 105.753412 12.558494 105.810934 12.610786 105.831851 C 14.733862 106.929993 17.113171 107.871259 19.753942 108.650417 C 29.485577 111.542192 40.83305 112.74492 51.605305 112.74492 " stroke="#8e8e8e" stroke-width="2" stroke-opacity="1" stroke-miterlimit="4"/></g><path stroke-linecap="butt" transform="matrix(0.747, 0, 0, 0.747, 6.743805, 3.982668)" fill="none" stroke-linejoin="miter" d="M 22.828741 70.147447 C 23.566065 73.47848 24.538706 76.647405 25.741433 79.648995 C 26.123169 80.605948 27.341584 80.349715 27.618734 79.554869 C 27.671027 79.40322 27.587359 79.005797 27.357272 78.367829 C 26.206837 75.120464 25.354469 72.233918 24.800168 69.71342 C 24.240639 67.192921 23.796152 64.217478 23.46671 60.792319 C 23.403959 60.112516 23.315061 59.715093 23.205247 59.60005 C 22.619571 59.003915 21.406385 59.275836 21.463907 60.305999 C 21.636472 63.537675 22.091417 66.816415 22.828741 70.147447 " stroke="#8e8e8e" stroke-width="2" stroke-opacity="1" stroke-miterlimit="4"/><path stroke-linecap="butt" transform="matrix(0.747, 0, 0, 0.747, 6.743805, 3.982668)" fill="none" stroke-linejoin="miter" d="M 29.658142 83.476806 C 29.417596 83.110759 28.920818 83.006174 28.55477 83.251949 L 28.141659 83.52387 C 27.775612 83.764415 27.676256 84.255965 27.916801 84.622012 L 31.451775 89.981994 C 31.69232 90.348041 32.189099 90.452626 32.555146 90.212081 L 32.968257 89.94016 C 33.334305 89.694385 33.43366 89.202835 33.193115 88.836788 L 29.658142 83.476806 " stroke="#8e8e8e" stroke-width="2" stroke-opacity="1" stroke-miterlimit="4"/><path fill="#ad3bce" d="M 44.285156 4.113281 L 44.351562 4.144531 C 44.679688 4.320312 44.804688 4.726562 44.632812 5.050781 C 44.625 5.0625 44.621094 5.074219 44.613281 5.082031 C 42.804688 8.136719 42.507812 11.222656 43.726562 14.339844 C 44.023438 15.105469 44.796875 16.40625 46.050781 18.242188 C 48.707031 22.144531 48.316406 26.953125 46.027344 31.03125 C 45.804688 31.433594 45.3125 31.59375 44.894531 31.40625 L 44.871094 31.398438 C 44.523438 31.242188 44.371094 30.828125 44.527344 30.480469 C 44.539062 30.453125 44.554688 30.429688 44.566406 30.40625 C 47.066406 26.304688 47.050781 22.335938 44.519531 18.5 C 43.011719 16.214844 41.933594 14.542969 41.664062 12.203125 C 41.363281 9.53125 41.90625 6.933594 43.300781 4.410156 C 43.492188 4.058594 43.929688 3.925781 44.285156 4.113281 Z M 44.285156 4.113281 " fill-opacity="1" fill-rule="nonzero"/><path fill="#ad3bce" d="M 55.015625 31.886719 C 54.726562 31.707031 54.636719 31.324219 54.820312 31.039062 C 54.828125 31.023438 54.835938 31.011719 54.847656 31 C 56.6875 28.53125 56.832031 25.320312 55.214844 22.773438 C 54.507812 21.65625 52.960938 19.816406 52.566406 17.960938 C 52.15625 15.980469 52.4375 14.070312 53.417969 12.222656 C 53.605469 11.878906 54.03125 11.746094 54.378906 11.929688 C 54.382812 11.933594 54.390625 11.9375 54.394531 11.941406 L 54.4375 11.96875 C 54.769531 12.160156 54.890625 12.578125 54.710938 12.910156 C 51.832031 18.316406 56.59375 20.472656 57.53125 24.441406 C 58.125 26.96875 57.675781 29.390625 56.175781 31.703125 C 55.941406 32.066406 55.457031 32.171875 55.097656 31.941406 Z M 55.015625 31.886719 " fill-opacity="1" fill-rule="nonzero"/><path fill="#ad3bce" d="M 34.8125 32.070312 C 34.523438 31.886719 34.4375 31.503906 34.617188 31.21875 C 34.625 31.207031 34.632812 31.195312 34.640625 31.183594 C 36.460938 28.699219 36.574219 25.488281 34.9375 22.949219 C 34.21875 21.839844 32.660156 20.007812 32.25 18.160156 C 31.820312 16.183594 32.085938 14.265625 33.050781 12.414062 C 33.230469 12.066406 33.660156 11.929688 34.007812 12.109375 C 34.011719 12.113281 34.019531 12.117188 34.027344 12.121094 L 34.074219 12.152344 C 34.40625 12.335938 34.527344 12.757812 34.347656 13.09375 C 31.519531 18.519531 36.296875 20.640625 37.269531 24.601562 C 37.882812 27.125 37.453125 29.546875 35.972656 31.875 C 35.742188 32.238281 35.261719 32.347656 34.898438 32.121094 Z M 34.8125 32.070312 " fill-opacity="1" fill-rule="nonzero"/><g clip-path="url(#079a832036)"><path fill="#ad3bce" d="M 73.160156 44.691406 C 73.171875 44.804688 73.273438 44.890625 73.390625 44.878906 C 73.414062 44.878906 73.4375 44.871094 73.457031 44.863281 C 80.261719 41.796875 87.792969 45.773438 87.191406 53.6875 C 86.464844 63.296875 75.234375 68.410156 66.875 69.230469 C 66.703125 69.242188 66.585938 69.320312 66.527344 69.453125 C 66.457031 69.613281 66.53125 69.796875 66.691406 69.867188 C 66.710938 69.875 66.734375 69.882812 66.757812 69.886719 C 69.714844 70.402344 85.28125 72.757812 83.789062 77.546875 C 83.144531 79.617188 80.839844 80.632812 79.660156 81.554688 C 75.792969 84.59375 70.851562 86.464844 65.984375 87.464844 C 53.453125 90.054688 40.804688 90.285156 28.046875 88.160156 C 26.128906 87.839844 24.214844 87.402344 22.308594 86.847656 C 18.023438 85.605469 14.46875 84.449219 11.398438 81.738281 C 10.085938 80.574219 8.390625 80.023438 7.335938 78.53125 C 3.382812 72.941406 21.921875 70.300781 23.996094 69.921875 C 24.140625 69.898438 24.234375 69.757812 24.207031 69.613281 C 24.203125 69.582031 24.191406 69.550781 24.171875 69.523438 C 19.1875 61.324219 17.992188 51.394531 17.488281 41.746094 C 17.433594 40.671875 17.726562 39.855469 18.375 39.300781 C 20.238281 37.699219 23.042969 36.929688 25.433594 36.457031 C 36.3125 34.304688 47.820312 34.453125 59.183594 35.5625 C 61.441406 35.78125 63.988281 36.199219 66.828125 36.816406 C 68.707031 37.222656 71.800781 38.148438 72.914062 39.925781 C 73.636719 41.082031 73.042969 43.582031 73.160156 44.691406 Z M 45.328125 39.484375 C 51.554688 39.480469 57.597656 39.753906 63.613281 40.976562 C 65.859375 41.433594 67.382812 41.90625 68.1875 42.394531 C 68.757812 42.746094 69.472656 42.753906 70.050781 42.421875 L 71.050781 41.839844 C 71.539062 41.554688 71.710938 40.929688 71.425781 40.4375 C 71.347656 40.300781 71.234375 40.183594 71.101562 40.09375 C 70.144531 39.46875 69.121094 39 68.03125 38.699219 C 60.726562 36.65625 52.851562 36.242188 45.328125 36.242188 C 37.800781 36.246094 29.925781 36.664062 22.625 38.707031 C 21.535156 39.011719 20.511719 39.480469 19.554688 40.109375 C 19.082031 40.417969 18.949219 41.050781 19.261719 41.527344 C 19.351562 41.660156 19.46875 41.773438 19.605469 41.851562 L 20.605469 42.433594 C 21.1875 42.765625 21.902344 42.753906 22.46875 42.402344 C 23.273438 41.914062 24.796875 41.441406 27.042969 40.984375 C 33.058594 39.765625 39.101562 39.484375 45.328125 39.484375 Z M 45.328125 45.863281 C 52.175781 45.859375 58.558594 45.277344 64.472656 44.117188 C 65.394531 43.933594 66.207031 43.734375 66.90625 43.515625 C 66.992188 43.492188 67.042969 43.402344 67.015625 43.316406 C 67 43.261719 66.960938 43.21875 66.90625 43.203125 C 65.382812 42.757812 63.804688 42.394531 62.164062 42.121094 C 56.949219 41.25 51.335938 40.816406 45.324219 40.820312 C 39.3125 40.828125 33.699219 41.269531 28.488281 42.148438 C 26.847656 42.429688 25.269531 42.792969 23.746094 43.242188 C 23.660156 43.269531 23.613281 43.359375 23.636719 43.445312 C 23.65625 43.5 23.699219 43.539062 23.75 43.554688 C 24.449219 43.773438 25.261719 43.972656 26.183594 44.152344 C 32.101562 45.300781 38.484375 45.871094 45.328125 45.863281 Z M 45.332031 78.996094 C 48.925781 79.003906 52.550781 78.605469 56.210938 77.804688 C 56.738281 77.691406 57.285156 77.410156 57.851562 76.960938 C 62.277344 73.453125 65.523438 69.171875 67.59375 64.113281 C 70.265625 57.582031 71.371094 50.417969 71.785156 43.421875 C 71.792969 43.304688 71.699219 43.203125 71.582031 43.195312 C 71.539062 43.195312 71.5 43.203125 71.460938 43.226562 C 70.0625 44.046875 68.152344 44.777344 66.660156 45.125 C 59.675781 46.757812 52.582031 47.265625 45.363281 47.261719 C 38.148438 47.253906 31.054688 46.734375 24.074219 45.085938 C 22.582031 44.734375 20.671875 44 19.277344 43.171875 C 19.171875 43.113281 19.042969 43.148438 18.980469 43.25 C 18.960938 43.289062 18.953125 43.328125 18.953125 43.371094 C 19.347656 50.367188 20.441406 57.535156 23.101562 64.070312 C 25.164062 69.132812 28.402344 73.421875 32.816406 76.933594 C 33.382812 77.386719 33.929688 77.671875 34.460938 77.785156 C 38.117188 78.589844 41.742188 78.996094 45.332031 78.996094 Z M 72.757812 50.054688 C 72.753906 50.089844 72.78125 50.117188 72.8125 50.121094 C 72.820312 50.121094 72.832031 50.117188 72.84375 50.113281 C 75.214844 48.742188 77.308594 48.269531 79.132812 48.699219 C 81.226562 49.1875 82.355469 50.710938 82.3125 52.824219 C 82.1875 59.375 74.980469 62.683594 69.574219 63.847656 C 69.496094 63.863281 69.429688 63.917969 69.394531 63.988281 L 67.679688 67.613281 C 67.671875 67.628906 67.675781 67.644531 67.691406 67.652344 C 67.699219 67.65625 67.707031 67.660156 67.714844 67.65625 C 72.488281 66.875 76.621094 65.207031 80.109375 62.65625 C 82.058594 61.230469 83.574219 59.417969 84.652344 57.210938 C 86.515625 53.410156 86.0625 48.433594 82.003906 46.363281 C 79.195312 44.933594 76.214844 45.015625 73.058594 46.609375 C 73.007812 46.632812 72.976562 46.679688 72.972656 46.738281 Z M 70.414062 62.070312 C 74.703125 61.078125 81.132812 57.625 80.757812 52.292969 C 80.488281 48.398438 74.25 50.519531 72.695312 51.976562 C 72.542969 52.121094 72.441406 52.3125 72.402344 52.519531 C 71.84375 55.742188 71.09375 58.832031 70.152344 61.789062 C 70.113281 61.90625 70.179688 62.03125 70.300781 62.066406 C 70.335938 62.078125 70.375 62.082031 70.414062 62.070312 Z M 45.3125 80.355469 C 42.417969 80.355469 39.265625 80.078125 35.863281 79.527344 C 34.726562 79.34375 33.65625 79.070312 32.644531 78.710938 C 32.519531 78.664062 32.40625 78.59375 32.300781 78.507812 C 29.882812 76.417969 27.238281 74.265625 25.578125 71.589844 C 25.445312 71.378906 25.203125 71.261719 24.957031 71.289062 C 21.886719 71.675781 18.792969 72.285156 15.671875 73.121094 C 13 73.835938 10.507812 74.550781 8.695312 76.277344 C 8.339844 76.617188 8.246094 77.140625 8.46875 77.5625 C 9.167969 78.871094 11.890625 80.046875 13.359375 80.523438 C 17.234375 81.777344 21.339844 82.671875 25.675781 83.203125 C 32.027344 83.972656 38.574219 84.355469 45.3125 84.355469 C 52.050781 84.355469 58.59375 83.96875 64.941406 83.191406 C 69.28125 82.664062 73.390625 81.769531 77.261719 80.511719 C 78.730469 80.035156 81.449219 78.859375 82.148438 77.546875 C 82.375 77.128906 82.28125 76.601562 81.921875 76.261719 C 80.113281 74.539062 77.617188 73.820312 74.945312 73.109375 C 71.824219 72.277344 68.730469 71.667969 65.664062 71.28125 C 65.414062 71.25 65.171875 71.367188 65.039062 71.582031 C 63.378906 74.253906 60.738281 76.414062 58.316406 78.503906 C 58.214844 78.589844 58.097656 78.660156 57.972656 78.707031 C 56.964844 79.066406 55.894531 79.339844 54.757812 79.523438 C 51.355469 80.074219 48.207031 80.351562 45.3125 80.355469 Z M 45.292969 88.203125 C 53.335938 88.199219 61.8125 87.300781 69.085938 85.140625 C 71.058594 84.554688 72.835938 83.851562 74.421875 83.03125 C 74.460938 83.015625 74.480469 82.96875 74.464844 82.929688 C 74.449219 82.886719 74.40625 82.867188 74.363281 82.882812 C 65.207031 85.132812 55.324219 85.785156 45.289062 85.785156 C 35.261719 85.785156 25.375 85.136719 16.214844 82.890625 C 16.175781 82.878906 16.128906 82.898438 16.117188 82.941406 C 16.101562 82.980469 16.125 83.023438 16.164062 83.039062 C 17.75 83.859375 19.527344 84.5625 21.5 85.144531 C 28.769531 87.304688 37.246094 88.203125 45.292969 88.203125 Z M 45.292969 88.203125 " fill-opacity="1" fill-rule="nonzero"/></g><path fill="#ad3bce" d="M 25.269531 56.058594 C 25.683594 57.941406 26.320312 60.097656 27.179688 62.523438 C 27.351562 63.003906 27.414062 63.296875 27.375 63.410156 C 27.167969 64.003906 26.257812 64.195312 25.972656 63.480469 C 25.074219 61.238281 24.347656 58.871094 23.796875 56.382812 C 23.246094 53.898438 22.90625 51.445312 22.777344 49.03125 C 22.734375 48.261719 23.640625 48.058594 24.078125 48.503906 C 24.160156 48.589844 24.226562 48.886719 24.273438 49.394531 C 24.519531 51.953125 24.851562 54.175781 25.269531 56.058594 Z M 25.269531 56.058594 " fill-opacity="1" fill-rule="nonzero"/><path fill="#ad3bce" d="M 27.765625 66.375 L 28.074219 66.171875 C 28.347656 65.988281 28.71875 66.066406 28.898438 66.339844 L 31.539062 70.34375 C 31.71875 70.617188 31.644531 70.984375 31.371094 71.167969 L 31.0625 71.371094 C 30.789062 71.550781 30.417969 71.472656 30.238281 71.199219 L 27.597656 67.195312 C 27.417969 66.921875 27.492188 66.554688 27.765625 66.375 Z M 27.765625 66.375 " fill-opacity="1" fill-rule="nonzero"/></g></g></g></g><g clip-path="url(#f922f16f71)"><g mask="url(#e7a099f037)"><g transform="matrix(1, 0, 0, 1, 0, -0.000000000000034028)"><g clip-path="url(#388d01e656)"><g clip-path="url(#312e111a20)"><path fill="#ad3bce" d="M 33.753906 55.035156 C 32.800781 57.90625 32.300781 60.890625 29.890625 62.769531 C 29.21875 63.292969 28.585938 63.949219 28.675781 64.910156 C 28.914062 67.511719 27.824219 69.679688 27.097656 72.054688 C 26.375 74.433594 25.679688 82.378906 19.691406 81.0625 C 15.125 80.058594 11.925781 75.65625 9.722656 71.84375 C 9.238281 71.003906 8.308594 70.5 7.589844 69.941406 C 1.359375 65.078125 2.851562 54.121094 2.171875 51.691406 C 1.175781 48.121094 -0.699219 45.316406 0.292969 41.199219 C 1.441406 36.410156 3.550781 31.953125 6.054688 27.667969 C 5.101562 18.046875 12.332031 11.394531 19.742188 6.292969 C 29.84375 -0.65625 36.042969 3.105469 37.011719 2.878906 L 47.152344 0.523438 C 49.949219 -0.125 56.34375 -0.277344 58.511719 2.882812 C 59.683594 4.59375 64.582031 2.558594 71.359375 5.371094 C 72.613281 5.894531 74.054688 6.496094 74.773438 7.566406 L 76.722656 10.460938 C 80.675781 12.863281 87.054688 18.074219 85.128906 22.917969 C 84.691406 24.019531 83.453125 25.242188 81.867188 25.882812 C 77.699219 27.570312 74.996094 26.675781 71.101562 27.320312 C 68.195312 30.132812 66.257812 30.417969 62.128906 30.910156 C 60.71875 33.542969 58.515625 35.335938 55.757812 36.554688 C 52.589844 37.957031 54.96875 39.488281 51.011719 43.152344 C 45.035156 48.695312 43.621094 45.773438 41.765625 48.492188 C 39.613281 51.640625 37.5625 53.945312 33.753906 55.035156 Z M 53.144531 2.996094 C 55.863281 6.066406 58.328125 13.535156 57.824219 17.148438 C 56.285156 13.902344 54.078125 2.355469 49.566406 2.710938 C 46.097656 2.984375 42.871094 3.753906 39.601562 5.039062 C 40.027344 5.910156 40.878906 6.222656 41.550781 6.96875 C 48.425781 14.582031 52.699219 23.996094 54.101562 34.457031 C 56.007812 33.960938 57.714844 32.847656 58.972656 31.28125 C 62.148438 27.332031 60.761719 16.78125 59.667969 11.867188 C 58.972656 8.746094 57.6875 1.96875 53.144531 2.996094 Z M 34.144531 26.980469 C 28.832031 22.292969 21.417969 19.277344 14.515625 20.042969 C 12.664062 20.246094 10.570312 20.632812 9.199219 21.894531 C 8.253906 22.765625 8.457031 24.488281 8.585938 25.570312 C 14.617188 22.449219 21.214844 23.484375 26.726562 26.25 C 34.003906 29.898438 39.800781 37.085938 42.804688 44.953125 C 46.464844 44.28125 49.628906 41.914062 51.335938 38.59375 C 51.949219 37.402344 51.894531 35.773438 51.699219 34.375 C 50.28125 24.324219 45.382812 12.652344 37.320312 6.371094 C 34.800781 4.410156 31.59375 3.773438 28.550781 5.003906 C 33.253906 6.554688 37.1875 9.167969 40.324219 12.980469 C 43.070312 16.308594 47.765625 23.945312 47.75 28.421875 C 44.882812 21.75 40.433594 13.257812 33.96875 9.136719 C 31.492188 7.558594 28.757812 5.914062 25.714844 6.003906 C 23.222656 6.078125 16.59375 11.574219 14.546875 13.539062 C 12.644531 15.367188 11.0625 17.347656 9.742188 19.789062 C 18.664062 16.398438 30.496094 20.433594 36.148438 27.773438 C 35.386719 28.066406 34.777344 27.535156 34.144531 26.976562 Z M 74.097656 10.484375 C 73.804688 9.328125 72.320312 8.484375 71.457031 8.175781 C 71.488281 12.101562 71.417969 15.867188 69.566406 19.210938 C 69.179688 14.925781 71.109375 12.054688 69.847656 7.289062 C 66.804688 6.171875 63.628906 5.820312 60.394531 5.96875 C 62.796875 13.136719 63.945312 21.226562 62.832031 28.300781 C 66.515625 28.234375 69.304688 26.933594 70.527344 23.480469 C 72.023438 19.265625 73.828125 15.195312 74.097656 10.484375 Z M 83.019531 20.183594 C 82.152344 17.058594 78.902344 14.507812 76.148438 12.976562 C 75.246094 16.976562 74.195312 20.511719 72.542969 24.578125 C 74.8125 24.980469 84.375 25.0625 83.019531 20.183594 Z M 3.875 48.835938 C 10.203125 41.195312 20.882812 42.390625 28.042969 47.433594 C 29.992188 48.808594 31.410156 50.492188 33.121094 52.121094 C 35.699219 53.203125 39.277344 47.9375 40.640625 46.039062 C 37.128906 35.210938 25.109375 23.660156 12.914062 26.382812 C 10.433594 26.9375 8.480469 28.300781 7.210938 30.460938 C 5.671875 33.078125 1.761719 41.027344 2.792969 44.078125 C 9.800781 36.640625 22.890625 37.484375 29.910156 44.519531 C 26.214844 43.195312 23.273438 41.238281 19.542969 40.601562 C 13.816406 39.625 8.097656 40.921875 3.699219 44.695312 C 2.171875 46.007812 2.742188 47.457031 3.875 48.835938 Z M 9.429688 68.03125 C 11.660156 60.359375 20.210938 58.503906 26.691406 61.019531 C 29.558594 62.132812 31.257812 55.828125 31.332031 53.886719 C 25.949219 46.488281 14.207031 42.378906 6.640625 49.207031 C 3.574219 50.863281 4.8125 61.449219 6.445312 64.425781 C 8.75 58.992188 15.894531 54.882812 20.960938 56.847656 L 15.234375 58.207031 C 11.980469 58.976562 4.1875 66.023438 9.429688 68.03125 Z M 18.214844 73.164062 C 19.023438 70.359375 21.828125 70.015625 24.109375 69.78125 C 26.257812 70.71875 26.488281 64.542969 26.320312 63.421875 C 21.3125 61.101562 14.359375 62.167969 11.925781 67.886719 C 11.289062 69.382812 11.554688 70.574219 12.433594 71.898438 C 14.152344 74.476562 16.15625 76.976562 18.984375 78.324219 C 20.816406 79.195312 22.578125 78.480469 23.28125 76.664062 C 23.953125 74.9375 24.421875 73.144531 24.542969 71.199219 C 22.046875 70.507812 20.203125 71.835938 18.214844 73.164062 Z M 18.214844 73.164062 " fill-opacity="1" fill-rule="nonzero"/></g><path fill="#ad3bce" d="M 40.78125 34.28125 C 41.140625 33.707031 43.816406 38.285156 42.476562 37.683594 C 41.726562 36.703125 41.128906 35.597656 40.78125 34.28125 Z M 40.78125 34.28125 " fill-opacity="1" fill-rule="nonzero"/><path fill="#ad3bce" d="M 58.660156 25.570312 C 58.285156 24.703125 58.316406 23.761719 58.625 22.675781 C 59 23.542969 58.96875 24.484375 58.660156 25.570312 Z M 58.660156 25.570312 " fill-opacity="1" fill-rule="nonzero"/></g></g></g></g></svg>