<svg xmlns="http://www.w3.org/2000/svg" xmlns:xlink="http://www.w3.org/1999/xlink" width="183" zoomAndPan="magnify" viewBox="0 0 137.25 471.749983" height="629" preserveAspectRatio="xMidYMid meet" version="1.0"><defs><filter x="0%" y="0%" width="100%" height="100%" id="e215a48fe9"><feColorMatrix values="0 0 0 0 1 0 0 0 0 1 0 0 0 0 1 0 0 0 1 0" color-interpolation-filters="sRGB"/></filter><mask id="336ae85b14"><g filter="url(#e215a48fe9)"><rect x="-13.725" width="164.7" fill="#000000" y="-47.174998" height="566.09998" fill-opacity="0.26"/></g></mask><clipPath id="25faf13792"><path d="M 33 3.921875 L 57 3.921875 L 57 40 L 33 40 Z M 33 3.921875 " clip-rule="nonzero"/></clipPath><clipPath id="cc38ef2707"><path d="M 44 3.921875 L 67 3.921875 L 67 41 L 44 41 Z M 44 3.921875 " clip-rule="nonzero"/></clipPath><clipPath id="481681fef8"><path d="M 23 3.921875 L 47 3.921875 L 47 41 L 23 41 Z M 23 3.921875 " clip-rule="nonzero"/></clipPath><clipPath id="92e6610d84"><path d="M 7 26 L 87.558594 26 L 87.558594 89.703125 L 7 89.703125 Z M 7 26 " clip-rule="nonzero"/></clipPath><clipPath id="711965dccf"><path d="M 59 36 L 87.558594 36 L 87.558594 76 L 59 76 Z M 59 36 " clip-rule="nonzero"/></clipPath><clipPath id="816fb54d2d"><path d="M 61 41 L 87.558594 41 L 87.558594 71 L 61 71 Z M 61 41 " clip-rule="nonzero"/></clipPath><clipPath id="4353d78846"><path d="M 7 62 L 87.558594 62 L 87.558594 89.703125 L 7 89.703125 Z M 7 62 " clip-rule="nonzero"/></clipPath><clipPath id="c24c2aee6d"><path d="M 7 74 L 84 74 L 84 89.703125 L 7 89.703125 Z M 7 74 " clip-rule="nonzero"/></clipPath><clipPath id="75e2e92133"><path d="M 41 3.921875 L 49 3.921875 L 49 32 L 41 32 Z M 41 3.921875 " clip-rule="nonzero"/></clipPath><clipPath id="1bbb9ee20e"><path d="M 7 34 L 87.558594 34 L 87.558594 89.703125 L 7 89.703125 Z M 7 34 " clip-rule="nonzero"/></clipPath><clipPath id="414d4331e0"><rect x="0" width="92" y="0" height="94"/></clipPath><clipPath id="fe137193e5"><path d="M 3 1.15625 L 89 1.15625 L 89 83 L 3 83 Z M 3 1.15625 " clip-rule="nonzero"/></clipPath><mask id="02a29aa92f"><g filter="url(#e215a48fe9)"><rect x="-13.725" width="164.7" fill="#000000" y="-47.174998" height="566.09998" fill-opacity="0.26"/></g></mask><clipPath id="67d722d434"><path d="M 0.320312 0.15625 L 85.355469 0.15625 L 85.355469 81.3125 L 0.320312 81.3125 Z M 0.320312 0.15625 " clip-rule="nonzero"/></clipPath><clipPath id="e2fa765019"><rect x="0" width="86" y="0" height="82"/></clipPath><mask id="376a94bc22"><g filter="url(#e215a48fe9)"><rect x="-13.725" width="164.7" fill="#000000" y="-47.174998" height="566.09998" fill-opacity="0.26"/></g></mask><clipPath id="1ea2d4bd30"><path d="M 1 9 L 67.816406 9 L 67.816406 60 L 1 60 Z M 1 9 " clip-rule="nonzero"/></clipPath><clipPath id="7661950e68"><path d="M 12 40 L 67 40 L 67 72.484375 L 12 72.484375 Z M 12 40 " clip-rule="nonzero"/></clipPath><clipPath id="8e4694542f"><path d="M 18 0.128906 L 35 0.128906 L 35 18 L 18 18 Z M 18 0.128906 " clip-rule="nonzero"/></clipPath><clipPath id="ceac45e6f3"><rect x="0" width="68" y="0" height="73"/></clipPath><clipPath id="e0ee384db4"><path d="M 0 403 L 87 403 L 87 470.34375 L 0 470.34375 Z M 0 403 " clip-rule="nonzero"/></clipPath><mask id="2389f19a6c"><g filter="url(#e215a48fe9)"><rect x="-13.725" width="164.7" fill="#000000" y="-47.174998" height="566.09998" fill-opacity="0.26"/></g></mask><clipPath id="280aa9563c"><path d="M 0 0.371094 L 86.40625 0.371094 L 86.40625 66.757812 L 0 66.757812 Z M 0 0.371094 " clip-rule="nonzero"/></clipPath><clipPath id="355aec3367"><rect x="0" width="87" y="0" height="68"/></clipPath></defs><g mask="url(#336ae85b14)"><g transform="matrix(1, 0, 0, 1, 39, 46)"><g clip-path="url(#414d4331e0)"><g clip-path="url(#25faf13792)"><path stroke-linecap="butt" transform="matrix(0.745924, 0, 0, 0.745924, 7.000732, 3.92292)" fill="none" stroke-linejoin="miter" d="M 50.256531 0.171413 C 49.779982 -0.0799533 49.193461 0.0980977 48.936859 0.569409 C 47.07256 3.952378 46.344645 7.429609 46.747879 11.00634 C 47.103981 14.132706 48.549336 16.374054 50.570738 19.437578 C 53.958944 24.569636 53.979891 29.879746 50.63358 35.373142 C 50.366503 35.813033 50.507897 36.383844 50.942551 36.65092 C 50.973971 36.666631 51.010629 36.687578 51.04205 36.698051 L 51.073471 36.713762 C 51.633807 36.965128 52.288407 36.745183 52.592141 36.21103 C 55.650429 30.749053 56.174108 24.313033 52.618325 19.09195 C 50.942551 16.630657 49.905665 14.886804 49.507669 13.865629 C 47.873789 9.691904 48.271786 5.560074 50.696421 1.475375 C 50.953024 1.045957 50.811631 0.496094 50.38745 0.239491 C 50.37174 0.234254 50.361267 0.223781 50.345556 0.218544 L 50.256531 0.171413 " stroke="#8e8e8e" stroke-width="2" stroke-opacity="1" stroke-miterlimit="4"/></g><g clip-path="url(#cc38ef2707)"><path stroke-linecap="butt" transform="matrix(0.745924, 0, 0, 0.745924, 7.000732, 3.92292)" fill="none" stroke-linejoin="miter" d="M 64.621057 37.357887 L 64.731029 37.425966 C 65.212814 37.740173 65.85694 37.59878 66.171148 37.111758 C 66.171148 37.111758 66.171148 37.111758 66.171148 37.106521 C 68.182077 34.011576 68.784308 30.775237 67.988315 27.387032 C 66.731485 22.076922 60.358306 19.186212 64.212587 11.954199 C 64.453479 11.503835 64.291139 10.943498 63.846011 10.692132 L 63.788406 10.650238 C 63.332805 10.393635 62.756758 10.555975 62.494918 11.011577 C 62.489682 11.016813 62.489682 11.027287 62.484445 11.032524 C 61.170009 13.504291 60.79296 16.065083 61.342824 18.709664 C 61.866503 21.197141 63.940273 23.658434 64.888133 25.156157 C 67.056166 28.56531 66.857168 32.859481 64.395875 36.163898 C 64.123561 36.530474 64.202113 37.048917 64.568689 37.32123 C 64.584399 37.331703 64.60011 37.347414 64.621057 37.357887 " stroke="#8e8e8e" stroke-width="2" stroke-opacity="1" stroke-miterlimit="4"/></g><g clip-path="url(#481681fef8)"><path stroke-linecap="butt" transform="matrix(0.745924, 0, 0, 0.745924, 7.000732, 3.92292)" fill="none" stroke-linejoin="miter" d="M 37.578252 37.59878 L 37.693462 37.666858 C 38.175247 37.975829 38.819372 37.829199 39.128343 37.33694 C 41.107851 34.226285 41.689136 30.979472 40.861722 27.60174 C 39.562997 22.302105 33.168872 19.458525 36.955074 12.195092 C 37.195966 11.744728 37.033626 11.184391 36.588498 10.933025 L 36.52042 10.896367 C 36.064819 10.639764 35.488771 10.802105 35.232168 11.257706 C 35.226932 11.268179 35.221695 11.278653 35.216458 11.28389 C 33.928207 13.76613 33.572105 16.332159 34.148152 18.981977 C 34.692779 21.453744 36.78226 23.904564 37.740593 25.391813 C 39.93481 28.785256 39.777706 33.084663 37.347833 36.415264 C 37.07552 36.78184 37.159309 37.295046 37.525884 37.567359 C 37.541595 37.577833 37.557305 37.588306 37.578252 37.59878 " stroke="#8e8e8e" stroke-width="2" stroke-opacity="1" stroke-miterlimit="4"/></g><g clip-path="url(#92e6610d84)"><path stroke-linecap="butt" transform="matrix(0.745924, 0, 0, 0.745924, 7.000732, 3.92292)" fill="none" stroke-linejoin="miter" d="M 88.909308 54.497914 C 88.757441 53.010665 89.548196 49.664353 88.584626 48.119499 C 87.09214 45.736758 82.949836 44.500875 80.436175 43.951011 C 76.634262 43.128834 73.219873 42.568498 70.203479 42.275237 C 54.990592 40.793224 39.583944 40.588989 25.02042 43.474463 C 21.820739 44.108115 18.065958 45.139763 15.568007 47.276375 C 14.703936 48.025237 14.311176 49.11449 14.384491 50.554608 C 15.054801 63.468543 16.65726 76.759526 23.334172 87.735846 C 23.433671 87.903424 23.381304 88.123369 23.218963 88.228105 C 23.182305 88.249052 23.140411 88.264762 23.098517 88.269999 C 20.317779 88.777968 -4.499388 92.312804 0.795011 99.80142 C 2.203708 101.796638 4.47124 102.535026 6.230803 104.095591 C 10.341686 107.719452 15.101932 109.264307 20.836222 110.929607 C 23.391777 111.673232 25.952569 112.259753 28.518599 112.683933 C 45.601021 115.532749 62.526339 115.223778 79.305027 111.757021 C 85.819599 110.416401 92.43367 107.913214 97.612859 103.844225 C 99.189134 102.608341 102.273606 101.252012 103.137677 98.481748 C 105.132896 92.071912 84.295692 88.919362 80.341912 88.228105 C 80.111494 88.186211 79.959627 87.966265 80.001521 87.735846 C 80.006758 87.704425 80.017231 87.673005 80.032942 87.646821 C 80.111494 87.463533 80.268597 87.364034 80.499016 87.343087 C 91.684808 86.248597 106.724881 79.404107 107.698925 66.542541 C 108.500154 55.94327 98.419326 50.622687 89.307304 54.723097 C 89.16591 54.791175 88.998333 54.728333 88.935492 54.58694 C 88.925018 54.555519 88.914544 54.524098 88.909308 54.497914 " stroke="#8e8e8e" stroke-width="2" stroke-opacity="1" stroke-miterlimit="4"/></g><path stroke-linecap="butt" transform="matrix(0.745924, 0, 0, 0.745924, 7.000732, 3.92292)" fill="none" stroke-linejoin="miter" d="M 51.654755 47.527741 C 59.986494 47.522505 68.077341 47.88908 76.13153 49.52296 C 79.13745 50.130428 81.1798 50.76408 82.253342 51.423916 C 83.012677 51.889991 83.976248 51.905701 84.751293 51.455337 L 86.086676 50.680292 C 86.741275 50.298006 86.966457 49.460118 86.589408 48.805519 C 86.484672 48.616995 86.332805 48.459891 86.154754 48.344681 C 84.871739 47.501558 83.504936 46.878379 82.043871 46.475146 C 72.266776 43.741539 61.72511 43.186439 51.654755 43.186439 C 41.573926 43.191676 31.03226 43.752013 21.260402 46.485619 C 19.804573 46.894089 18.432533 47.522505 17.149519 48.360392 C 16.515867 48.774098 16.343052 49.622459 16.756759 50.261348 C 16.877205 50.439399 17.034309 50.591266 17.217597 50.696002 L 18.552979 51.476284 C 19.333262 51.921412 20.291595 51.905701 21.05093 51.43439 C 22.12971 50.779791 24.166823 50.146139 27.177979 49.533434 C 35.226932 47.899554 43.317779 47.527741 51.654755 47.527741 " stroke="#8e8e8e" stroke-width="2" stroke-opacity="1" stroke-miterlimit="4"/><path stroke-linecap="butt" transform="matrix(0.745924, 0, 0, 0.745924, 7.000732, 3.92292)" fill="none" stroke-linejoin="miter" d="M 51.654755 56.068953 C 60.819144 56.058479 69.360355 55.278197 77.278388 53.728106 C 78.514271 53.481976 79.603525 53.2149 80.535674 52.921639 C 80.65612 52.890219 80.718962 52.769772 80.687541 52.654563 C 80.666594 52.581248 80.608989 52.523643 80.535674 52.502696 C 78.498561 51.905701 76.382896 51.423916 74.188679 51.052104 C 67.21327 49.889536 59.69847 49.308251 51.649518 49.313488 C 43.595329 49.323962 36.085766 49.91572 29.110356 51.093998 C 26.91614 51.465811 24.800475 51.952832 22.763362 52.555064 C 22.648152 52.591721 22.580074 52.712168 22.616732 52.827377 C 22.637679 52.900692 22.695284 52.958297 22.768599 52.974007 C 23.705985 53.267268 24.790001 53.534344 26.025885 53.775237 C 33.949154 55.309617 42.490365 56.074189 51.654755 56.068953 " stroke="#8e8e8e" stroke-width="2" stroke-opacity="1" stroke-miterlimit="4"/><path stroke-linecap="butt" transform="matrix(0.745924, 0, 0, 0.745924, 7.000732, 3.92292)" fill="none" stroke-linejoin="miter" d="M 51.659991 100.419361 C 56.467368 100.429835 61.321876 99.895682 66.218279 98.827376 C 66.930483 98.675509 67.663634 98.293223 68.417732 97.690992 C 74.340546 92.998824 78.687086 87.269772 81.45735 80.498597 C 85.039317 71.753151 86.516093 62.159344 87.071193 52.795956 C 87.07643 52.638852 86.955983 52.502696 86.79888 52.492222 C 86.741275 52.492222 86.688907 52.502696 86.636539 52.534117 C 84.761767 53.633843 82.206211 54.613124 80.210993 55.079199 C 70.858078 57.262942 61.363771 57.943725 51.696649 57.938488 C 42.040001 57.928014 32.545693 57.231521 23.198016 55.026831 C 21.202797 54.555519 18.647242 53.571002 16.777706 52.466038 C 16.64155 52.38225 16.463499 52.429381 16.384947 52.570774 C 16.353526 52.617905 16.343052 52.670273 16.343052 52.727878 C 16.871969 62.091266 18.338271 71.690309 21.899291 80.440992 C 24.659081 87.217404 28.995147 92.95693 34.907487 97.659571 C 35.661586 98.267039 36.394737 98.644088 37.101704 98.795955 C 41.998106 99.874735 46.852614 100.419361 51.659991 100.419361 " stroke="#8e8e8e" stroke-width="2" stroke-opacity="1" stroke-miterlimit="4"/><g clip-path="url(#711965dccf)"><path stroke-linecap="butt" transform="matrix(0.745924, 0, 0, 0.745924, 7.000732, 3.92292)" fill="none" stroke-linejoin="miter" d="M 88.369918 61.677559 C 88.369918 61.719453 88.401339 61.761348 88.443233 61.761348 C 88.458943 61.766585 88.474654 61.761348 88.485127 61.750874 C 91.658624 59.917996 94.465546 59.289581 96.905892 59.860391 C 99.707577 60.514991 101.22101 62.552104 101.163406 65.385209 C 100.995828 74.156839 91.344417 78.58193 84.112404 80.142495 C 84.007668 80.163442 83.918643 80.23152 83.871512 80.331019 L 81.572559 85.180291 C 81.562085 85.201238 81.572559 85.227422 81.593506 85.237895 C 81.598743 85.243132 81.609217 85.243132 81.61969 85.237895 C 88.013816 84.190537 93.54387 81.959662 98.209854 78.545273 C 100.823014 76.63908 102.85489 74.209207 104.295008 71.255655 C 106.787722 66.165492 106.185491 59.509526 100.749699 56.734025 C 96.989681 54.817359 92.999244 54.927331 88.773151 57.063943 C 88.710309 57.095364 88.663178 57.158206 88.657941 57.236758 L 88.369918 61.677559 " stroke="#8e8e8e" stroke-width="2" stroke-opacity="1" stroke-miterlimit="4"/></g><g clip-path="url(#816fb54d2d)"><path stroke-linecap="butt" transform="matrix(0.745924, 0, 0, 0.745924, 7.000732, 3.92292)" fill="none" stroke-linejoin="miter" d="M 85.233078 77.76499 C 90.977841 76.434845 99.581894 71.810756 99.079162 64.673005 C 98.717823 59.457158 90.365136 62.300738 88.291366 64.248825 C 88.081894 64.442586 87.945737 64.699189 87.898606 64.976739 C 87.149745 69.286621 86.14428 73.423688 84.882213 77.382704 C 84.835082 77.539808 84.924107 77.707386 85.081211 77.759754 C 85.128342 77.770227 85.185947 77.775464 85.233078 77.76499 " stroke="#8e8e8e" stroke-width="2" stroke-opacity="1" stroke-miterlimit="4"/></g><g clip-path="url(#4353d78846)"><path stroke-linecap="butt" transform="matrix(0.745924, 0, 0, 0.745924, 7.000732, 3.92292)" fill="none" stroke-linejoin="miter" d="M 51.628571 102.241766 C 47.753343 102.241766 43.537724 101.869953 38.981713 101.131565 C 37.463043 100.885436 36.028161 100.518861 34.677068 100.037075 C 34.509491 99.974234 34.352387 99.885208 34.21623 99.764762 C 30.974655 96.968314 27.434582 94.082841 25.214181 90.50611 C 25.03613 90.218087 24.711449 90.060983 24.381531 90.102877 C 20.275885 90.62132 16.133581 91.43826 11.954619 92.553697 C 8.372652 93.51203 5.036814 94.470363 2.612178 96.77979 C 2.13563 97.235391 2.009947 97.937121 2.308444 98.497458 C 3.24583 100.257021 6.890639 101.828059 8.859674 102.466948 C 14.038863 104.142722 19.537497 105.341948 25.345101 106.048915 C 33.849655 107.080563 42.610811 107.593769 51.628571 107.593769 C 60.651567 107.593769 69.407486 107.075327 77.906803 106.038441 C 83.719645 105.326237 89.218278 104.132248 94.402705 102.446001 C 96.371739 101.807112 100.006074 100.236074 100.94346 98.481748 C 101.241958 97.921411 101.121511 97.214443 100.639726 96.758842 C 98.215091 94.454653 94.879253 93.491083 91.302522 92.537986 C 87.123561 91.422549 82.981257 90.610846 78.87561 90.092404 C 78.540455 90.050509 78.215774 90.207613 78.037723 90.495637 C 75.817322 94.072367 72.27725 96.963077 69.040911 99.759525 C 68.904754 99.879972 68.74765 99.968997 68.580073 100.031839 C 67.234217 100.513624 65.799335 100.880199 64.275428 101.121092 C 59.719417 101.864717 55.503798 102.236529 51.628571 102.241766 " stroke="#8e8e8e" stroke-width="2" stroke-opacity="1" stroke-miterlimit="4"/></g><g clip-path="url(#c24c2aee6d)"><path stroke-linecap="butt" transform="matrix(0.745924, 0, 0, 0.745924, 7.000732, 3.92292)" fill="none" stroke-linejoin="miter" d="M 51.607623 112.741538 C 62.374472 112.736301 73.717368 111.531838 83.457805 108.646365 C 86.097149 107.860846 88.474654 106.918223 90.595555 105.818496 C 90.65316 105.797549 90.679344 105.739944 90.658397 105.682339 C 90.63745 105.629972 90.574608 105.603788 90.52224 105.624735 C 78.262905 108.635891 65.034763 109.510436 51.602387 109.510436 C 38.175247 109.510436 24.941868 108.641128 12.677296 105.635208 C 12.624929 105.614261 12.567324 105.645682 12.546377 105.69805 C 12.525429 105.750418 12.55685 105.813259 12.609218 105.82897 C 14.73012 106.933933 17.112861 107.871319 19.752205 108.651602 C 29.482169 111.542312 40.835538 112.741538 51.607623 112.741538 " stroke="#8e8e8e" stroke-width="2" stroke-opacity="1" stroke-miterlimit="4"/></g><path stroke-linecap="butt" transform="matrix(0.745924, 0, 0, 0.745924, 7.000732, 3.92292)" fill="none" stroke-linejoin="miter" d="M 22.83144 70.150692 C 23.569828 73.481293 24.538635 76.644316 25.743098 79.650236 C 26.125384 80.60857 27.345557 80.34673 27.61787 79.550737 C 27.675475 79.404107 27.586449 79.006111 27.35603 78.367222 C 26.209172 75.120409 25.355575 72.234936 24.800475 69.710801 C 24.240138 67.191903 23.79501 64.217404 23.465092 60.792541 C 23.402251 60.111758 23.318462 59.713761 23.203253 59.598552 C 22.616732 59.001557 21.401795 59.279107 21.4594 60.305519 C 21.632214 63.536621 22.093052 66.820091 22.83144 70.150692 " stroke="#8e8e8e" stroke-width="2" stroke-opacity="1" stroke-miterlimit="4"/><path stroke-linecap="butt" transform="matrix(0.745924, 0, 0, 0.745924, 7.000732, 3.92292)" fill="none" stroke-linejoin="miter" d="M 29.654983 83.473096 C 29.41409 83.111757 28.921832 83.007021 28.555256 83.247914 L 28.141549 83.520227 C 27.774974 83.76112 27.675475 84.258615 27.916367 84.619954 L 31.451203 89.982431 C 31.692096 90.349006 32.184354 90.453742 32.55093 90.207613 L 32.964637 89.9353 C 33.331212 89.694407 33.435948 89.202149 33.189819 88.835573 L 29.654983 83.473096 " stroke="#8e8e8e" stroke-width="2" stroke-opacity="1" stroke-miterlimit="4"/><g clip-path="url(#75e2e92133)"><path fill="#ad3bce" d="M 44.488281 4.050781 L 44.554688 4.085938 C 44.882812 4.257812 45.007812 4.664062 44.835938 4.992188 C 44.828125 5 44.824219 5.011719 44.816406 5.023438 C 43.007812 8.070312 42.710938 11.152344 43.929688 14.265625 C 44.226562 15.027344 45 16.328125 46.25 18.164062 C 48.902344 22.058594 48.511719 26.859375 46.230469 30.933594 C 46.003906 31.332031 45.515625 31.496094 45.097656 31.308594 L 45.074219 31.296875 C 44.726562 31.140625 44.574219 30.730469 44.730469 30.378906 C 44.742188 30.355469 44.753906 30.332031 44.769531 30.308594 C 47.265625 26.210938 47.25 22.25 44.722656 18.421875 C 43.214844 16.136719 42.136719 14.464844 41.871094 12.132812 C 41.570312 9.464844 42.113281 6.871094 43.503906 4.347656 C 43.695312 3.996094 44.132812 3.863281 44.488281 4.050781 Z M 44.488281 4.050781 " fill-opacity="1" fill-rule="nonzero"/></g><path fill="#ad3bce" d="M 55.203125 31.789062 C 54.914062 31.605469 54.828125 31.226562 55.007812 30.9375 C 55.015625 30.925781 55.023438 30.914062 55.035156 30.898438 C 56.871094 28.433594 57.019531 25.230469 55.402344 22.6875 C 54.695312 21.570312 53.148438 19.734375 52.757812 17.878906 C 52.347656 15.90625 52.628906 13.996094 53.609375 12.152344 C 53.792969 11.808594 54.222656 11.675781 54.566406 11.859375 C 54.574219 11.863281 54.578125 11.867188 54.582031 11.867188 L 54.625 11.898438 C 54.957031 12.085938 55.078125 12.503906 54.898438 12.839844 C 52.023438 18.234375 56.777344 20.390625 57.714844 24.351562 C 58.308594 26.878906 57.859375 29.292969 56.359375 31.601562 C 56.128906 31.964844 55.644531 32.074219 55.285156 31.839844 Z M 55.203125 31.789062 " fill-opacity="1" fill-rule="nonzero"/><path fill="#ad3bce" d="M 35.03125 31.96875 C 34.742188 31.785156 34.652344 31.40625 34.832031 31.121094 C 34.839844 31.105469 34.847656 31.09375 34.859375 31.085938 C 36.671875 28.601562 36.789062 25.394531 35.152344 22.863281 C 34.4375 21.753906 32.878906 19.925781 32.472656 18.082031 C 32.042969 16.105469 32.308594 14.191406 33.269531 12.339844 C 33.449219 11.992188 33.878906 11.859375 34.222656 12.039062 C 34.230469 12.042969 34.238281 12.046875 34.242188 12.050781 L 34.292969 12.078125 C 34.625 12.265625 34.746094 12.683594 34.566406 13.019531 C 31.742188 18.4375 36.511719 20.558594 37.480469 24.511719 C 38.097656 27.03125 37.664062 29.453125 36.1875 31.773438 C 35.957031 32.140625 35.476562 32.25 35.117188 32.019531 Z M 35.03125 31.96875 " fill-opacity="1" fill-rule="nonzero"/><g clip-path="url(#1bbb9ee20e)"><path fill="#ad3bce" d="M 73.320312 44.574219 C 73.332031 44.6875 73.4375 44.773438 73.550781 44.761719 C 73.574219 44.757812 73.597656 44.753906 73.617188 44.742188 C 80.414062 41.683594 87.933594 45.652344 87.332031 53.558594 C 86.609375 63.152344 75.390625 68.257812 67.046875 69.074219 C 66.875 69.089844 66.757812 69.164062 66.699219 69.300781 C 66.628906 69.457031 66.703125 69.640625 66.859375 69.710938 C 66.882812 69.722656 66.90625 69.730469 66.929688 69.734375 C 69.878906 70.25 85.421875 72.601562 83.933594 77.382812 C 83.289062 79.449219 80.988281 80.460938 79.8125 81.382812 C 75.949219 84.417969 71.015625 86.285156 66.15625 87.285156 C 53.640625 89.871094 41.015625 90.101562 28.273438 87.976562 C 26.359375 87.660156 24.449219 87.222656 22.542969 86.667969 C 18.265625 85.425781 14.714844 84.273438 11.648438 81.570312 C 10.335938 80.40625 8.644531 79.855469 7.59375 78.367188 C 3.644531 72.78125 22.15625 70.144531 24.230469 69.765625 C 24.371094 69.742188 24.464844 69.605469 24.441406 69.460938 C 24.433594 69.429688 24.421875 69.394531 24.40625 69.367188 C 19.425781 61.179688 18.230469 51.265625 17.730469 41.632812 C 17.675781 40.558594 17.96875 39.746094 18.613281 39.1875 C 20.476562 37.59375 23.277344 36.824219 25.664062 36.351562 C 36.527344 34.199219 48.019531 34.351562 59.367188 35.457031 C 61.617188 35.675781 64.164062 36.09375 67 36.707031 C 68.875 37.117188 71.964844 38.039062 73.078125 39.816406 C 73.796875 40.96875 73.207031 43.464844 73.320312 44.574219 Z M 45.53125 39.375 C 51.746094 39.371094 57.78125 39.644531 63.789062 40.863281 C 66.03125 41.316406 67.554688 41.789062 68.355469 42.28125 C 68.921875 42.628906 69.640625 42.640625 70.21875 42.304688 L 71.214844 41.726562 C 71.703125 41.441406 71.871094 40.816406 71.589844 40.328125 C 71.511719 40.1875 71.398438 40.070312 71.265625 39.984375 C 70.308594 39.355469 69.289062 38.890625 68.199219 38.589844 C 60.90625 36.550781 53.042969 36.136719 45.53125 36.136719 C 38.011719 36.140625 30.148438 36.558594 22.859375 38.597656 C 21.773438 38.902344 20.75 39.371094 19.792969 39.996094 C 19.320312 40.304688 19.191406 40.9375 19.5 41.414062 C 19.589844 41.546875 19.707031 41.660156 19.84375 41.738281 L 20.839844 42.320312 C 21.421875 42.652344 22.136719 42.640625 22.703125 42.289062 C 23.507812 41.800781 25.027344 41.328125 27.273438 40.871094 C 33.277344 39.652344 39.3125 39.375 45.53125 39.375 Z M 45.53125 45.746094 C 52.367188 45.738281 58.738281 45.15625 64.644531 44 C 65.566406 43.816406 66.378906 43.617188 67.074219 43.398438 C 67.164062 43.375 67.210938 43.285156 67.1875 43.199219 C 67.171875 43.144531 67.128906 43.101562 67.074219 43.085938 C 65.554688 42.640625 63.976562 42.28125 62.339844 42.003906 C 57.136719 41.136719 51.53125 40.703125 45.527344 40.707031 C 39.519531 40.714844 33.917969 41.15625 28.714844 42.035156 C 27.078125 42.3125 25.5 42.675781 23.980469 43.125 C 23.894531 43.152344 23.84375 43.242188 23.871094 43.328125 C 23.886719 43.382812 23.929688 43.425781 23.984375 43.4375 C 24.683594 43.65625 25.492188 43.855469 26.414062 44.035156 C 32.324219 45.179688 38.695312 45.75 45.53125 45.746094 Z M 45.535156 78.828125 C 49.121094 78.835938 52.742188 78.4375 56.394531 77.640625 C 56.925781 77.527344 57.472656 77.242188 58.035156 76.792969 C 62.453125 73.292969 65.695312 69.019531 67.761719 63.96875 C 70.433594 57.445312 71.535156 50.289062 71.949219 43.304688 C 71.953125 43.1875 71.863281 43.085938 71.746094 43.078125 C 71.703125 43.078125 71.664062 43.085938 71.625 43.109375 C 70.226562 43.929688 68.320312 44.660156 66.832031 45.007812 C 59.855469 46.636719 52.773438 47.144531 45.5625 47.140625 C 38.359375 47.132812 31.277344 46.613281 24.304688 44.96875 C 22.816406 44.617188 20.910156 43.882812 19.515625 43.058594 C 19.414062 42.996094 19.28125 43.03125 19.222656 43.136719 C 19.199219 43.171875 19.191406 43.210938 19.191406 43.253906 C 19.585938 50.238281 20.679688 57.398438 23.335938 63.925781 C 25.394531 68.980469 28.628906 73.261719 33.039062 76.769531 C 33.601562 77.222656 34.148438 77.503906 34.675781 77.617188 C 38.328125 78.421875 41.949219 78.828125 45.535156 78.828125 Z M 72.917969 49.929688 C 72.917969 49.960938 72.941406 49.992188 72.972656 49.992188 C 72.984375 49.996094 72.996094 49.992188 73.003906 49.984375 C 75.371094 48.617188 77.464844 48.148438 79.285156 48.574219 C 81.375 49.0625 82.503906 50.582031 82.460938 52.695312 C 82.335938 59.238281 75.136719 62.539062 69.742188 63.703125 C 69.664062 63.71875 69.597656 63.769531 69.5625 63.84375 L 67.847656 67.460938 C 67.839844 67.476562 67.847656 67.496094 67.863281 67.503906 C 67.867188 67.507812 67.875 67.507812 67.882812 67.503906 C 72.652344 66.722656 76.777344 65.058594 80.257812 62.511719 C 82.207031 61.089844 83.722656 59.277344 84.796875 57.074219 C 86.65625 53.277344 86.207031 48.3125 82.152344 46.242188 C 79.347656 44.8125 76.371094 44.894531 73.21875 46.488281 C 73.171875 46.511719 73.136719 46.558594 73.132812 46.617188 Z M 70.578125 61.929688 C 74.863281 60.9375 81.28125 57.488281 80.90625 52.164062 C 80.636719 48.273438 74.40625 50.394531 72.859375 51.847656 C 72.703125 51.992188 72.601562 52.183594 72.566406 52.390625 C 72.007812 55.605469 71.257812 58.691406 70.316406 61.644531 C 70.28125 61.761719 70.347656 61.886719 70.464844 61.925781 C 70.5 61.933594 70.542969 61.9375 70.578125 61.929688 Z M 45.511719 80.1875 C 42.621094 80.1875 39.476562 79.910156 36.078125 79.359375 C 34.945312 79.175781 33.875 78.902344 32.867188 78.542969 C 32.742188 78.496094 32.625 78.429688 32.523438 78.339844 C 30.105469 76.253906 27.464844 74.101562 25.808594 71.433594 C 25.675781 71.21875 25.433594 71.101562 25.1875 71.132812 C 22.125 71.519531 19.035156 72.128906 15.917969 72.960938 C 13.246094 73.675781 10.757812 74.390625 8.949219 76.113281 C 8.59375 76.453125 8.5 76.976562 8.722656 77.394531 C 9.421875 78.707031 12.140625 79.878906 13.609375 80.355469 C 17.472656 81.605469 21.574219 82.5 25.90625 83.027344 C 32.25 83.796875 38.785156 84.179688 45.511719 84.179688 C 52.242188 84.179688 58.773438 83.792969 65.113281 83.019531 C 69.449219 82.488281 73.550781 81.597656 77.417969 80.339844 C 78.886719 79.863281 81.597656 78.691406 82.296875 77.382812 C 82.519531 76.964844 82.429688 76.4375 82.070312 76.097656 C 80.261719 74.378906 77.773438 73.660156 75.105469 72.949219 C 71.988281 72.117188 68.898438 71.511719 65.835938 71.125 C 65.585938 71.09375 65.34375 71.210938 65.210938 71.425781 C 63.554688 74.09375 60.914062 76.25 58.5 78.335938 C 58.398438 78.425781 58.28125 78.492188 58.15625 78.539062 C 57.152344 78.898438 56.082031 79.171875 54.945312 79.351562 C 51.546875 79.90625 48.402344 80.183594 45.511719 80.1875 Z M 45.496094 88.019531 C 53.527344 88.015625 61.988281 87.117188 69.253906 84.964844 C 71.222656 84.378906 72.996094 83.675781 74.578125 82.855469 C 74.621094 82.839844 74.640625 82.796875 74.625 82.753906 C 74.609375 82.714844 74.5625 82.695312 74.523438 82.710938 C 65.378906 84.957031 55.511719 85.609375 45.492188 85.609375 C 35.476562 85.609375 25.605469 84.960938 16.457031 82.71875 C 16.417969 82.703125 16.375 82.726562 16.359375 82.765625 C 16.34375 82.804688 16.367188 82.851562 16.40625 82.863281 C 17.988281 83.6875 19.765625 84.386719 21.734375 84.96875 C 28.992188 87.125 37.460938 88.019531 45.496094 88.019531 Z M 45.496094 88.019531 " fill-opacity="1" fill-rule="nonzero"/></g><path fill="#ad3bce" d="M 25.5 55.921875 C 25.914062 57.804688 26.550781 59.957031 27.40625 62.378906 C 27.578125 62.855469 27.644531 63.152344 27.601562 63.261719 C 27.398438 63.855469 26.488281 64.050781 26.203125 63.335938 C 25.304688 61.09375 24.582031 58.734375 24.03125 56.25 C 23.480469 53.765625 23.136719 51.316406 23.007812 48.90625 C 22.964844 48.140625 23.871094 47.933594 24.308594 48.378906 C 24.394531 48.464844 24.457031 48.761719 24.503906 49.269531 C 24.75 51.824219 25.082031 54.042969 25.5 55.921875 Z M 25.5 55.921875 " fill-opacity="1" fill-rule="nonzero"/><path fill="#ad3bce" d="M 27.992188 66.222656 L 28.300781 66.019531 C 28.574219 65.839844 28.941406 65.917969 29.121094 66.1875 L 31.757812 70.1875 C 31.941406 70.460938 31.863281 70.828125 31.589844 71.007812 L 31.28125 71.210938 C 31.007812 71.394531 30.640625 71.316406 30.460938 71.042969 L 27.824219 67.042969 C 27.644531 66.773438 27.71875 66.402344 27.992188 66.222656 Z M 27.992188 66.222656 " fill-opacity="1" fill-rule="nonzero"/></g></g></g><g clip-path="url(#fe137193e5)"><g mask="url(#02a29aa92f)"><g transform="matrix(1, 0, 0, 1, 3, 1)"><g clip-path="url(#e2fa765019)"><g clip-path="url(#67d722d434)"><path fill="#ad3bce" d="M 34.027344 54.964844 C 33.070312 57.835938 32.574219 60.816406 30.164062 62.691406 C 29.496094 63.210938 28.863281 63.867188 28.953125 64.828125 C 29.191406 67.425781 28.101562 69.589844 27.378906 71.964844 C 26.65625 74.335938 25.960938 82.273438 19.984375 80.957031 C 15.421875 79.953125 12.226562 75.558594 10.027344 71.75 C 9.542969 70.914062 8.617188 70.410156 7.898438 69.847656 C 1.675781 64.996094 3.164062 54.054688 2.488281 51.625 C 1.492188 48.0625 -0.378906 45.261719 0.609375 41.152344 C 1.757812 36.371094 3.867188 31.917969 6.363281 27.640625 C 5.414062 18.03125 12.632812 11.386719 20.035156 6.296875 C 30.117188 -0.644531 36.308594 3.109375 37.277344 2.886719 L 47.402344 0.535156 C 50.195312 -0.113281 56.582031 -0.265625 58.746094 2.890625 C 59.917969 4.597656 64.808594 2.566406 71.574219 5.375 C 72.824219 5.894531 74.265625 6.496094 74.984375 7.566406 L 76.929688 10.457031 C 80.878906 12.855469 87.246094 18.058594 85.324219 22.898438 C 84.890625 23.996094 83.652344 25.214844 82.066406 25.859375 C 77.90625 27.539062 75.207031 26.648438 71.316406 27.292969 C 68.414062 30.101562 66.484375 30.382812 62.355469 30.875 C 60.949219 33.503906 58.75 35.296875 55.996094 36.511719 C 52.832031 37.914062 55.207031 39.441406 51.257812 43.101562 C 45.289062 48.636719 43.878906 45.71875 42.023438 48.433594 C 39.875 51.578125 37.828125 53.878906 34.023438 54.96875 Z M 53.386719 3.003906 C 56.101562 6.070312 58.5625 13.527344 58.058594 17.132812 C 56.519531 13.894531 54.320312 2.363281 49.8125 2.71875 C 46.351562 2.992188 43.128906 3.761719 39.863281 5.042969 C 40.289062 5.910156 41.136719 6.226562 41.808594 6.96875 C 48.675781 14.574219 52.941406 23.972656 54.34375 34.417969 C 56.242188 33.921875 57.949219 32.8125 59.207031 31.25 C 62.375 27.304688 60.996094 16.769531 59.898438 11.863281 C 59.203125 8.746094 57.925781 1.976562 53.386719 3.003906 Z M 34.414062 26.949219 C 29.109375 22.269531 21.703125 19.261719 14.8125 20.023438 C 12.964844 20.226562 10.875 20.617188 9.503906 21.875 C 8.5625 22.742188 8.765625 24.464844 8.894531 25.542969 C 14.914062 22.429688 21.503906 23.460938 27.007812 26.222656 C 34.273438 29.867188 40.058594 37.042969 43.0625 44.898438 C 46.714844 44.230469 49.878906 41.863281 51.582031 38.550781 C 52.191406 37.359375 52.140625 35.730469 51.941406 34.335938 C 50.527344 24.296875 45.632812 12.644531 37.582031 6.371094 C 35.070312 4.414062 31.867188 3.78125 28.828125 5.007812 C 33.523438 6.558594 37.449219 9.164062 40.585938 12.972656 C 43.328125 16.296875 48.015625 23.921875 48 28.394531 C 45.136719 21.730469 40.691406 13.25 34.238281 9.132812 C 31.761719 7.558594 29.035156 5.914062 25.996094 6.003906 C 23.507812 6.078125 16.886719 11.566406 14.84375 13.53125 C 12.945312 15.355469 11.363281 17.332031 10.046875 19.769531 C 18.953125 16.382812 30.769531 20.414062 36.414062 27.746094 C 35.65625 28.035156 35.046875 27.503906 34.414062 26.949219 Z M 74.308594 10.480469 C 74.015625 9.324219 72.535156 8.484375 71.671875 8.175781 C 71.703125 12.09375 71.632812 15.851562 69.78125 19.195312 C 69.398438 14.917969 71.324219 12.046875 70.0625 7.289062 C 67.027344 6.171875 63.855469 5.820312 60.628906 5.972656 C 63.023438 13.128906 64.167969 21.207031 63.0625 28.269531 C 66.738281 28.203125 69.523438 26.90625 70.746094 23.457031 C 72.238281 19.25 74.039062 15.183594 74.308594 10.480469 Z M 83.21875 20.167969 C 82.351562 17.042969 79.109375 14.5 76.359375 12.96875 C 75.457031 16.960938 74.40625 20.496094 72.753906 24.554688 C 75.023438 24.957031 84.570312 25.039062 83.21875 20.167969 Z M 4.1875 48.777344 C 10.507812 41.148438 21.171875 42.339844 28.320312 47.375 C 30.269531 48.75 31.683594 50.429688 33.390625 52.058594 C 35.964844 53.136719 39.539062 47.882812 40.898438 45.980469 C 37.394531 35.171875 25.390625 23.636719 13.214844 26.355469 C 10.734375 26.910156 8.789062 28.269531 7.519531 30.429688 C 5.984375 33.042969 2.078125 40.976562 3.109375 44.023438 C 10.105469 36.597656 23.175781 37.441406 30.183594 44.464844 C 26.496094 43.144531 23.558594 41.1875 19.832031 40.554688 C 14.113281 39.578125 8.40625 40.871094 4.011719 44.644531 C 2.484375 45.953125 3.054688 47.402344 4.1875 48.777344 Z M 9.734375 67.945312 C 11.964844 60.285156 20.5 58.429688 26.972656 60.941406 C 29.835938 62.054688 31.53125 55.757812 31.605469 53.820312 C 26.230469 46.433594 14.507812 42.328125 6.949219 49.148438 C 3.886719 50.804688 5.125 61.371094 6.753906 64.34375 C 9.054688 58.917969 16.191406 54.8125 21.25 56.777344 L 15.53125 58.132812 C 12.28125 58.902344 4.5 65.9375 9.734375 67.945312 Z M 18.507812 73.066406 C 19.3125 70.265625 22.117188 69.925781 24.394531 69.691406 C 26.539062 70.628906 26.769531 64.460938 26.601562 63.339844 C 21.601562 61.023438 14.65625 62.089844 12.226562 67.800781 C 11.589844 69.292969 11.855469 70.480469 12.734375 71.804688 C 14.449219 74.378906 16.453125 76.875 19.273438 78.222656 C 21.105469 79.09375 22.863281 78.378906 23.566406 76.566406 C 24.238281 74.839844 24.703125 73.050781 24.828125 71.109375 C 22.332031 70.414062 20.492188 71.746094 18.507812 73.066406 Z M 18.507812 73.066406 " fill-opacity="1" fill-rule="nonzero"/></g><path fill="#ad3bce" d="M 41.039062 34.246094 C 41.402344 33.667969 44.070312 38.242188 42.734375 37.640625 C 41.988281 36.664062 41.386719 35.554688 41.039062 34.246094 Z M 41.039062 34.246094 " fill-opacity="1" fill-rule="nonzero"/><path fill="#ad3bce" d="M 58.894531 25.546875 C 58.519531 24.679688 58.550781 23.738281 58.859375 22.652344 C 59.234375 23.519531 59.203125 24.460938 58.894531 25.546875 Z M 58.894531 25.546875 " fill-opacity="1" fill-rule="nonzero"/></g></g></g></g><g mask="url(#376a94bc22)"><g transform="matrix(1, 0, 0, 1, 68, 331)"><g clip-path="url(#ceac45e6f3)"><g clip-path="url(#1ea2d4bd30)"><path fill="#ad3bce" d="M 8.972656 59.125 C 5.460938 59.125 3.191406 58.253906 2.230469 56.53125 C 0.886719 54.136719 2.714844 51.179688 2.792969 51.054688 C 2.925781 50.84375 3.113281 50.710938 3.359375 50.65625 C 3.601562 50.601562 3.828125 50.640625 4.039062 50.773438 C 4.25 50.90625 4.382812 51.09375 4.4375 51.335938 C 4.492188 51.578125 4.453125 51.804688 4.324219 52.015625 C 3.949219 52.617188 3.125 54.445312 3.804688 55.65625 C 4.4375 56.78125 6.3125 57.355469 9.222656 57.320312 C 13.140625 57.269531 16.65625 55.917969 19.6875 53.300781 C 21.945312 51.34375 23.039062 49.414062 23.050781 49.394531 C 23.113281 49.28125 23.199219 49.183594 23.308594 49.105469 C 23.417969 49.027344 23.535156 48.976562 23.664062 48.949219 C 23.796875 48.925781 23.925781 48.929688 24.054688 48.960938 C 24.183594 48.996094 24.300781 49.050781 24.402344 49.136719 C 24.421875 49.148438 26.265625 50.621094 29.070312 51.613281 C 32.765625 52.917969 36.304688 52.824219 39.589844 51.335938 C 43.175781 49.710938 45.53125 47.503906 46.585938 44.773438 C 47.371094 42.753906 47.113281 41.164062 47.109375 41.148438 C 47.085938 41.019531 47.089844 40.886719 47.125 40.757812 C 47.160156 40.632812 47.21875 40.515625 47.304688 40.414062 C 47.390625 40.3125 47.492188 40.230469 47.613281 40.175781 C 47.734375 40.117188 47.859375 40.089844 47.996094 40.089844 C 48.09375 40.089844 57.855469 40.003906 63.402344 36.269531 C 64.996094 35.195312 65.789062 34.039062 65.75 32.839844 C 65.675781 30.71875 63.109375 28.585938 61.660156 27.628906 C 52.347656 34.289062 41.851562 39.335938 30.457031 42.628906 C 21 45.363281 13.023438 46.28125 8 46.570312 C 7.875 46.578125 7.75 46.582031 7.628906 46.582031 C 6.878906 46.582031 6.15625 46.453125 5.453125 46.195312 C 4.75 45.933594 4.113281 45.5625 3.546875 45.078125 C 2.976562 44.589844 2.507812 44.019531 2.144531 43.367188 C 1.777344 42.714844 1.539062 42.015625 1.421875 41.277344 C 0.816406 37.503906 0.773438 31.828125 4.011719 26.210938 C 7.785156 19.660156 15.0625 14.78125 25.632812 11.703125 C 31.875 9.886719 37.613281 9.210938 42.6875 9.703125 C 46.789062 10.097656 50.472656 11.25 53.636719 13.121094 C 59.0625 16.335938 61.050781 20.539062 61.132812 20.714844 C 61.238281 20.941406 61.246094 21.171875 61.160156 21.40625 C 61.074219 21.640625 60.917969 21.808594 60.691406 21.914062 C 60.464844 22.019531 60.238281 22.027344 60.003906 21.941406 C 59.769531 21.855469 59.601562 21.699219 59.496094 21.472656 C 59.476562 21.4375 57.609375 17.535156 52.617188 14.617188 C 45.976562 10.734375 36.824219 10.324219 26.140625 13.4375 C 3.394531 20.054688 2.003906 33.542969 3.203125 40.992188 C 3.289062 41.542969 3.472656 42.058594 3.75 42.539062 C 4.027344 43.019531 4.382812 43.4375 4.816406 43.785156 C 5.25 44.136719 5.734375 44.394531 6.261719 44.566406 C 6.792969 44.734375 7.335938 44.804688 7.890625 44.769531 C 16.726562 44.261719 39.59375 41.394531 61.097656 25.8125 C 61.414062 25.582031 61.742188 25.566406 62.078125 25.761719 C 62.296875 25.886719 67.425781 28.898438 67.554688 32.773438 C 67.617188 34.640625 66.558594 36.320312 64.410156 37.769531 C 59.414062 41.128906 51.660156 41.753906 48.957031 41.867188 C 48.949219 43.054688 48.734375 44.203125 48.3125 45.308594 C 47.480469 47.535156 45.421875 50.671875 40.335938 52.976562 C 38.363281 53.875 36.292969 54.320312 34.125 54.320312 C 32.25 54.320312 30.328125 53.976562 28.410156 53.289062 C 26.878906 52.742188 25.4375 52.019531 24.082031 51.121094 C 23.152344 52.433594 22.082031 53.613281 20.867188 54.664062 C 18.558594 56.660156 14.671875 59.054688 9.25 59.125 Z M 8.972656 59.125 " fill-opacity="1" fill-rule="nonzero"/></g><path fill="#ad3bce" d="M 19.074219 64.976562 C 16.960938 64.980469 14.886719 64.699219 12.851562 64.128906 C 8.085938 62.796875 6.476562 58.71875 6.410156 58.546875 C 6.320312 58.3125 6.328125 58.085938 6.425781 57.855469 C 6.527344 57.628906 6.695312 57.46875 6.925781 57.378906 C 7.160156 57.292969 7.390625 57.296875 7.617188 57.398438 C 7.84375 57.5 8.003906 57.664062 8.09375 57.898438 C 8.15625 58.050781 9.480469 61.3125 13.339844 62.386719 C 20.148438 64.289062 27.59375 62.8125 41.796875 56.742188 C 47.765625 54.191406 52.5 52.039062 56.199219 49.804688 C 60.207031 47.386719 62.585938 45.085938 63.46875 42.769531 C 64.113281 41.078125 63.988281 39.324219 63.085938 37.398438 C 62.980469 37.175781 62.96875 36.945312 63.054688 36.710938 C 63.140625 36.476562 63.292969 36.304688 63.519531 36.199219 C 63.746094 36.09375 63.972656 36.085938 64.207031 36.167969 C 64.441406 36.253906 64.613281 36.40625 64.71875 36.632812 C 65.824219 38.988281 65.96875 41.269531 65.152344 43.414062 C 64.105469 46.152344 61.554688 48.679688 57.125 51.351562 C 53.335938 53.636719 48.539062 55.824219 42.503906 58.402344 C 31.886719 62.941406 24.886719 64.976562 19.074219 64.976562 Z M 19.074219 64.976562 " fill-opacity="1" fill-rule="nonzero"/><g clip-path="url(#7661950e68)"><path fill="#ad3bce" d="M 27.585938 72.363281 C 27.382812 72.363281 27.175781 72.363281 26.972656 72.359375 C 23.695312 72.3125 20.824219 71.882812 18.4375 71.082031 C 15.757812 70.1875 13.765625 68.84375 12.519531 67.101562 C 12.375 66.898438 12.324219 66.671875 12.363281 66.429688 C 12.40625 66.183594 12.527344 65.988281 12.730469 65.84375 C 12.933594 65.699219 13.15625 65.644531 13.402344 65.6875 C 13.648438 65.726562 13.84375 65.847656 13.988281 66.050781 C 15.992188 68.859375 20.613281 70.460938 27 70.558594 C 32.882812 70.644531 39.742188 69.394531 45.351562 67.210938 C 55.511719 63.253906 61.828125 58.152344 64.128906 52.054688 C 66.289062 46.332031 63.996094 41.792969 63.972656 41.746094 C 63.859375 41.527344 63.839844 41.296875 63.914062 41.058594 C 63.988281 40.820312 64.136719 40.644531 64.359375 40.53125 C 64.578125 40.417969 64.808594 40.398438 65.046875 40.472656 C 65.285156 40.546875 65.460938 40.695312 65.574219 40.917969 C 65.683594 41.132812 68.257812 46.226562 65.816406 52.691406 C 64.695312 55.667969 62.679688 58.453125 59.828125 60.972656 C 56.421875 63.984375 51.769531 66.648438 46.011719 68.890625 C 40.390625 71.078125 33.550781 72.363281 27.585938 72.363281 Z M 27.585938 72.363281 " fill-opacity="1" fill-rule="nonzero"/></g><g clip-path="url(#8e4694542f)"><path fill="#ad3bce" d="M 25.648438 17.074219 C 25.457031 17.074219 25.28125 17.015625 25.125 16.90625 C 24.96875 16.796875 24.859375 16.652344 24.796875 16.472656 C 24.777344 16.417969 23.859375 13.824219 22.703125 10.714844 C 22.367188 10.746094 22.027344 10.765625 21.6875 10.773438 C 21.4375 10.78125 21.222656 10.699219 21.042969 10.527344 C 20.863281 10.355469 20.769531 10.148438 20.761719 9.898438 C 20.753906 9.648438 20.835938 9.433594 21.007812 9.253906 C 21.179688 9.070312 21.390625 8.976562 21.636719 8.972656 C 21.773438 8.972656 21.910156 8.960938 22.042969 8.953125 C 20.972656 6.125 19.804688 3.1875 18.992188 1.5 C 18.910156 1.332031 18.886719 1.15625 18.914062 0.972656 C 18.941406 0.789062 19.019531 0.628906 19.148438 0.492188 C 19.273438 0.359375 19.425781 0.269531 19.609375 0.230469 C 19.789062 0.191406 19.96875 0.203125 20.140625 0.273438 C 20.210938 0.300781 27.5625 3.207031 33.511719 2.875 C 33.890625 2.851562 34.167969 3.007812 34.351562 3.339844 C 34.535156 3.675781 34.515625 3.996094 34.292969 4.304688 C 34.246094 4.367188 33.121094 5.90625 31.015625 7.46875 C 29.070312 8.929688 26.90625 9.917969 24.527344 10.4375 C 25.59375 13.3125 26.425781 15.664062 26.5 15.871094 C 26.546875 16.011719 26.5625 16.152344 26.542969 16.296875 C 26.523438 16.441406 26.46875 16.574219 26.386719 16.695312 C 26.300781 16.8125 26.195312 16.90625 26.0625 16.972656 C 25.933594 17.039062 25.796875 17.074219 25.648438 17.074219 Z M 21.488281 2.667969 C 22.238281 4.429688 23.097656 6.632812 23.886719 8.730469 C 26.011719 8.324219 28.019531 7.429688 29.886719 6.058594 C 30.464844 5.636719 31.007812 5.175781 31.523438 4.679688 C 27.6875 4.511719 23.78125 3.421875 21.488281 2.667969 Z M 21.488281 2.667969 " fill-opacity="1" fill-rule="nonzero"/></g><path fill="#ad3bce" d="M 7.25 41.421875 C 7.003906 41.421875 6.789062 41.335938 6.613281 41.164062 C 6.433594 40.988281 6.34375 40.777344 6.339844 40.527344 C 6.339844 40.28125 6.421875 40.066406 6.597656 39.890625 C 6.773438 39.710938 6.984375 39.621094 7.230469 39.617188 C 7.265625 39.617188 10.8125 39.527344 16.074219 38.730469 C 20.921875 37.996094 28.253906 36.496094 35.675781 33.5 C 49.929688 27.75 56.425781 22.652344 56.488281 22.605469 C 56.683594 22.453125 56.902344 22.390625 57.148438 22.417969 C 57.394531 22.449219 57.59375 22.558594 57.75 22.753906 C 57.902344 22.945312 57.964844 23.164062 57.941406 23.410156 C 57.914062 23.65625 57.804688 23.859375 57.613281 24.015625 C 57.34375 24.230469 50.882812 29.316406 36.351562 35.175781 C 28.753906 38.234375 21.261719 39.769531 16.3125 40.519531 C 10.949219 41.332031 7.417969 41.417969 7.273438 41.421875 Z M 7.25 41.421875 " fill-opacity="1" fill-rule="nonzero"/></g></g></g><g clip-path="url(#e0ee384db4)"><g mask="url(#2389f19a6c)"><g transform="matrix(1, 0, 0, 1, 0, 403)"><g clip-path="url(#355aec3367)"><g clip-path="url(#280aa9563c)"><path fill="#ad3bce" d="M 73.925781 13.925781 C 72.675781 14.050781 71.605469 14.652344 70.410156 14.867188 C 71.328125 11.453125 68.761719 8.554688 66.144531 6.714844 C 54.402344 -1.546875 26.5625 -1.4375 14.308594 5.667969 C 11.871094 7.078125 8.746094 9.582031 8.4375 12.574219 C 8.007812 16.769531 8.917969 23.9375 9.71875 28.179688 C 10.410156 31.839844 11.632812 35.292969 13.027344 38.730469 C 7.851562 40.222656 -0.835938 44.917969 0.0664062 51.328125 C 0.753906 56.230469 6.691406 59.917969 10.859375 61.742188 C 27.003906 68.808594 54.824219 68.859375 70.570312 60.707031 C 76.585938 57.59375 82.679688 51.433594 76.671875 44.878906 C 76 44.148438 75.171875 43.695312 74.421875 43.082031 C 74.191406 42.894531 74.210938 42.910156 74.265625 42.589844 C 78.835938 40.570312 83.195312 36.746094 84.992188 31.980469 C 88.335938 23.097656 84.796875 12.839844 73.925781 13.929688 Z M 13.285156 8.738281 C 19.578125 3.75 33.253906 2.089844 41.125 2.324219 C 48.503906 2.542969 60.335938 4.195312 66.074219 9.199219 C 70.160156 12.761719 68.964844 15.882812 64.84375 18.585938 C 64.589844 18.75 63.308594 19.566406 63.171875 19.445312 C 67.164062 15.226562 64.375 11.011719 59.964844 8.796875 C 50.21875 3.902344 28.382812 3.910156 18.644531 8.796875 C 15.203125 10.523438 12.285156 13.683594 14.421875 17.691406 L 15.558594 19.445312 C 10.632812 16.765625 7.972656 12.953125 13.285156 8.738281 Z M 70.050781 23.554688 C 72.585938 21.332031 78.015625 19.679688 78.980469 24.257812 C 79.570312 27.0625 78.453125 29.59375 76.875 31.820312 C 74.410156 35.292969 70.5625 37.242188 66.308594 37.523438 C 68.25 33.074219 69.175781 28.308594 70.050781 23.554688 Z M 62.875 16.378906 C 61.742188 19.550781 56.605469 21.464844 53.582031 22.273438 C 44.660156 24.660156 25.183594 24.851562 17.730469 18.722656 C 12.730469 14.613281 17.441406 11.179688 21.640625 9.621094 C 26.96875 7.648438 32.691406 7.269531 38.285156 6.984375 C 41.53125 6.820312 51.34375 7.476562 56.96875 9.621094 C 59.648438 10.644531 64.144531 12.832031 62.875 16.378906 Z M 10.367188 18.367188 C 10.367188 18.210938 10.300781 17.96875 10.492188 18 C 13.792969 21.734375 19.089844 23.1875 23.828125 24.195312 C 34.773438 26.527344 48.3125 26.390625 59.078125 23.1875 C 62.496094 22.164062 65.898438 20.757812 68.476562 18.242188 C 68.3125 23.03125 67.554688 28.0625 66.132812 32.648438 C 61.570312 47.339844 49.855469 56.773438 33.949219 53.84375 C 17.945312 50.894531 10.59375 33.09375 10.367188 18.367188 Z M 53.648438 54.632812 C 47.792969 59.347656 31.195312 59.105469 25.242188 54.59375 C 24.289062 53.871094 23.507812 53.027344 23.996094 51.742188 C 32.839844 57.691406 46.09375 57.636719 54.976562 51.742188 C 55.226562 53.167969 54.679688 53.800781 53.648438 54.632812 Z M 74.875 55.367188 C 68.816406 61.753906 52.320312 64.652344 43.777344 65.011719 C 33.335938 65.457031 10.367188 63.285156 3.519531 54.378906 C -1.199219 48.242188 6.085938 43.492188 11.171875 41.339844 C 11.660156 41.128906 13.039062 40.527344 13.4375 40.449219 C 13.574219 40.425781 13.699219 40.386719 13.839844 40.433594 C 15.207031 42.46875 16.453125 44.679688 18.09375 46.5625 C 18.816406 47.394531 21.246094 49.382812 21.585938 50.058594 C 21.894531 50.683594 21.613281 52.0625 21.8125 52.964844 C 22.851562 57.703125 32.941406 59.691406 37.011719 59.945312 C 42.125 60.261719 53.984375 59.230469 56.714844 54.085938 C 57.46875 52.664062 56.816406 50.953125 57.265625 50.058594 C 57.546875 49.503906 59.097656 48.496094 59.683594 47.894531 C 60.074219 47.496094 61.617188 45.359375 61.878906 45.269531 L 66.164062 44.972656 L 71.875 43.660156 C 76.621094 46.488281 79.355469 50.640625 74.875 55.367188 Z M 83.304688 31.015625 C 80.351562 38.785156 71.160156 43.289062 63.171875 43.308594 L 65.335938 39.566406 C 71.027344 39.34375 76.292969 36.695312 79.191406 31.722656 C 83.816406 23.773438 79.082031 15.863281 70.167969 21.132812 L 70.4375 17.066406 C 75.222656 14.488281 81.777344 15.734375 83.675781 21.242188 C 84.628906 24.011719 84.347656 28.265625 83.304688 31.015625 Z M 83.304688 31.015625 " fill-opacity="1" fill-rule="nonzero"/></g><path fill="#ad3bce" d="M 48.769531 9.625 C 45.519531 9.179688 41.742188 9.753906 39.398438 12.203125 C 38.710938 11.855469 38.179688 11.25 37.453125 10.816406 C 35.304688 9.535156 32.292969 9.277344 29.84375 9.625 C 26.785156 10.058594 24.15625 12.785156 26.175781 15.824219 C 27.714844 18.144531 32.855469 19.53125 35.445312 20.53125 C 36.945312 21.113281 38.675781 22.457031 40.28125 21.988281 C 40.714844 21.859375 41.234375 21.449219 41.71875 21.257812 C 44.558594 20.144531 50.191406 18.453125 52.1875 16.296875 C 55.058594 13.191406 52.210938 10.09375 48.769531 9.625 Z M 51.371094 14.019531 C 51.050781 16.375 42.046875 18.851562 40.039062 20.0625 L 39.542969 20.417969 C 36.507812 18.761719 32.25 17.8125 29.34375 16.03125 C 25.839844 13.882812 27.78125 11.714844 31.050781 11.320312 C 33.011719 11.085938 36.097656 11.707031 37.503906 13.175781 C 37.820312 13.503906 38.011719 13.894531 38.203125 14.277344 C 38.546875 14.960938 39.476562 15.078125 39.980469 14.496094 C 40.453125 13.945312 40.957031 13.289062 41.230469 13.058594 C 43.15625 11.425781 46.363281 10.957031 48.773438 11.554688 C 49.941406 11.84375 51.570312 12.53125 51.375 14.019531 Z M 51.371094 14.019531 " fill-opacity="1" fill-rule="nonzero"/></g></g></g></g></svg>