<svg xmlns="http://www.w3.org/2000/svg" xmlns:xlink="http://www.w3.org/1999/xlink" width="183" zoomAndPan="magnify" viewBox="0 0 137.25 140.250003" height="187" preserveAspectRatio="xMidYMid meet" version="1.0"><defs><filter x="0%" y="0%" width="100%" height="100%" id="bf3165448a"><feColorMatrix values="0 0 0 0 1 0 0 0 0 1 0 0 0 0 1 0 0 0 1 0" color-interpolation-filters="sRGB"/></filter><clipPath id="b31ef35f23"><path d="M 68 0.0078125 L 136 0.0078125 L 136 73 L 68 73 Z M 68 0.0078125 " clip-rule="nonzero"/></clipPath><mask id="b65f12f9d3"><g filter="url(#bf3165448a)"><rect x="-13.725" width="164.7" fill="#000000" y="-14.025" height="168.300004" fill-opacity="0.26"/></g></mask><clipPath id="ede97f5475"><path d="M 1 9 L 67.816406 9 L 67.816406 60 L 1 60 Z M 1 9 " clip-rule="nonzero"/></clipPath><clipPath id="51ec5e7510"><path d="M 12 40 L 67 40 L 67 72.332031 L 12 72.332031 Z M 12 40 " clip-rule="nonzero"/></clipPath><clipPath id="518b9f51bd"><path d="M 18 0.0078125 L 35 0.0078125 L 35 17 L 18 17 Z M 18 0.0078125 " clip-rule="nonzero"/></clipPath><clipPath id="492c79d419"><rect x="0" width="68" y="0" height="73"/></clipPath><mask id="d77db2da0b"><g filter="url(#bf3165448a)"><rect x="-13.725" width="164.7" fill="#000000" y="-14.025" height="168.300004" fill-opacity="0.26"/></g></mask><clipPath id="b5710bd7a8"><path d="M 0 1.25 L 86.40625 1.25 L 86.40625 67.636719 L 0 67.636719 Z M 0 1.25 " clip-rule="nonzero"/></clipPath><clipPath id="0f0134cd80"><rect x="0" width="87" y="0" height="68"/></clipPath></defs><g clip-path="url(#b31ef35f23)"><g mask="url(#b65f12f9d3)"><g transform="matrix(1, 0, 0, 1, 68, 0.000000000000026049)"><g clip-path="url(#492c79d419)"><g clip-path="url(#ede97f5475)"><path fill="#ad3bce" d="M 8.972656 59.003906 C 5.460938 59.003906 3.191406 58.132812 2.230469 56.410156 C 0.886719 54.011719 2.714844 51.058594 2.792969 50.933594 C 2.925781 50.722656 3.113281 50.589844 3.359375 50.535156 C 3.601562 50.476562 3.828125 50.515625 4.039062 50.648438 C 4.25 50.78125 4.382812 50.96875 4.4375 51.214844 C 4.492188 51.457031 4.453125 51.683594 4.324219 51.894531 C 3.949219 52.496094 3.125 54.324219 3.804688 55.535156 C 4.4375 56.660156 6.3125 57.234375 9.222656 57.199219 C 13.140625 57.148438 16.65625 55.796875 19.6875 53.175781 C 21.945312 51.222656 23.039062 49.292969 23.050781 49.273438 C 23.113281 49.15625 23.199219 49.058594 23.308594 48.984375 C 23.417969 48.90625 23.535156 48.851562 23.664062 48.828125 C 23.796875 48.804688 23.925781 48.808594 24.054688 48.839844 C 24.183594 48.871094 24.300781 48.929688 24.402344 49.011719 C 24.421875 49.027344 26.265625 50.496094 29.070312 51.488281 C 32.765625 52.796875 36.304688 52.703125 39.589844 51.210938 C 43.175781 49.585938 45.53125 47.378906 46.585938 44.652344 C 47.371094 42.632812 47.113281 41.042969 47.109375 41.027344 C 47.085938 40.894531 47.089844 40.765625 47.125 40.636719 C 47.160156 40.507812 47.21875 40.394531 47.304688 40.289062 C 47.390625 40.1875 47.492188 40.109375 47.613281 40.054688 C 47.734375 39.996094 47.859375 39.96875 47.996094 39.96875 C 48.09375 39.96875 57.855469 39.878906 63.402344 36.148438 C 64.996094 35.070312 65.789062 33.917969 65.75 32.714844 C 65.675781 30.597656 63.109375 28.464844 61.660156 27.503906 C 52.347656 34.167969 41.851562 39.214844 30.457031 42.507812 C 21 45.238281 13.023438 46.160156 8 46.449219 C 7.875 46.457031 7.75 46.460938 7.628906 46.460938 C 6.878906 46.460938 6.15625 46.332031 5.453125 46.070312 C 4.75 45.8125 4.113281 45.441406 3.546875 44.953125 C 2.976562 44.46875 2.507812 43.898438 2.144531 43.246094 C 1.777344 42.589844 1.539062 41.894531 1.421875 41.15625 C 0.816406 37.382812 0.773438 31.707031 4.011719 26.089844 C 7.785156 19.539062 15.0625 14.660156 25.632812 11.578125 C 31.875 9.761719 37.613281 9.089844 42.6875 9.578125 C 46.789062 9.976562 50.472656 11.125 53.636719 13 C 59.0625 16.214844 61.050781 20.417969 61.132812 20.59375 C 61.238281 20.820312 61.246094 21.050781 61.160156 21.285156 C 61.074219 21.515625 60.917969 21.6875 60.691406 21.792969 C 60.464844 21.894531 60.238281 21.90625 60.003906 21.820312 C 59.769531 21.734375 59.601562 21.578125 59.496094 21.351562 C 59.476562 21.3125 57.609375 17.414062 52.617188 14.496094 C 45.976562 10.613281 36.824219 10.203125 26.140625 13.3125 C 3.394531 19.933594 2.003906 33.421875 3.203125 40.867188 C 3.289062 41.417969 3.472656 41.933594 3.75 42.417969 C 4.027344 42.898438 4.382812 43.3125 4.816406 43.664062 C 5.25 44.011719 5.734375 44.273438 6.261719 44.441406 C 6.792969 44.613281 7.335938 44.679688 7.890625 44.648438 C 16.726562 44.140625 39.59375 41.273438 61.097656 25.6875 C 61.414062 25.460938 61.742188 25.445312 62.078125 25.640625 C 62.296875 25.765625 67.425781 28.777344 67.554688 32.652344 C 67.617188 34.519531 66.558594 36.199219 64.410156 37.644531 C 59.414062 41.007812 51.660156 41.628906 48.957031 41.746094 C 48.949219 42.929688 48.734375 44.078125 48.3125 45.1875 C 47.480469 47.414062 45.421875 50.550781 40.335938 52.855469 C 38.363281 53.753906 36.292969 54.199219 34.125 54.195312 C 32.25 54.195312 30.328125 53.855469 28.410156 53.167969 C 26.878906 52.621094 25.4375 51.898438 24.082031 51 C 23.152344 52.3125 22.082031 53.492188 20.867188 54.542969 C 18.558594 56.539062 14.671875 58.933594 9.25 59.003906 Z M 8.972656 59.003906 " fill-opacity="1" fill-rule="nonzero"/></g><path fill="#ad3bce" d="M 19.074219 64.851562 C 16.960938 64.859375 14.886719 64.578125 12.851562 64.007812 C 8.085938 62.675781 6.476562 58.59375 6.410156 58.425781 C 6.320312 58.191406 6.328125 57.960938 6.425781 57.734375 C 6.527344 57.507812 6.695312 57.347656 6.925781 57.257812 C 7.160156 57.167969 7.390625 57.175781 7.617188 57.273438 C 7.84375 57.375 8.003906 57.542969 8.09375 57.773438 C 8.15625 57.929688 9.480469 61.1875 13.339844 62.265625 C 20.148438 64.164062 27.59375 62.6875 41.796875 56.621094 C 47.765625 54.070312 52.5 51.914062 56.199219 49.683594 C 60.207031 47.261719 62.585938 44.960938 63.46875 42.648438 C 64.113281 40.957031 63.988281 39.199219 63.085938 37.277344 C 62.980469 37.050781 62.96875 36.820312 63.054688 36.589844 C 63.140625 36.355469 63.292969 36.183594 63.519531 36.078125 C 63.746094 35.972656 63.972656 35.960938 64.207031 36.046875 C 64.441406 36.128906 64.613281 36.285156 64.71875 36.511719 C 65.824219 38.867188 65.96875 41.148438 65.152344 43.289062 C 64.105469 46.03125 61.554688 48.558594 57.125 51.226562 C 53.335938 53.511719 48.539062 55.699219 42.503906 58.277344 C 31.886719 62.820312 24.886719 64.851562 19.074219 64.851562 Z M 19.074219 64.851562 " fill-opacity="1" fill-rule="nonzero"/><g clip-path="url(#51ec5e7510)"><path fill="#ad3bce" d="M 27.585938 72.242188 C 27.382812 72.242188 27.175781 72.242188 26.972656 72.238281 C 23.695312 72.1875 20.824219 71.757812 18.4375 70.960938 C 15.757812 70.0625 13.765625 68.722656 12.519531 66.976562 C 12.375 66.773438 12.324219 66.550781 12.363281 66.304688 C 12.40625 66.058594 12.527344 65.863281 12.730469 65.71875 C 12.933594 65.574219 13.15625 65.523438 13.402344 65.5625 C 13.648438 65.605469 13.84375 65.726562 13.988281 65.929688 C 15.992188 68.738281 20.613281 70.335938 27 70.433594 C 32.882812 70.523438 39.742188 69.273438 45.351562 67.085938 C 55.511719 63.128906 61.828125 58.03125 64.128906 51.933594 C 66.289062 46.210938 63.996094 41.667969 63.972656 41.625 C 63.859375 41.402344 63.839844 41.175781 63.914062 40.9375 C 63.988281 40.699219 64.136719 40.523438 64.359375 40.410156 C 64.578125 40.292969 64.808594 40.273438 65.046875 40.351562 C 65.285156 40.425781 65.460938 40.574219 65.574219 40.792969 C 65.683594 41.011719 68.257812 46.101562 65.816406 52.570312 C 64.695312 55.542969 62.679688 58.332031 59.828125 60.851562 C 56.421875 63.863281 51.769531 66.523438 46.011719 68.769531 C 40.390625 70.957031 33.550781 72.242188 27.585938 72.242188 Z M 27.585938 72.242188 " fill-opacity="1" fill-rule="nonzero"/></g><g clip-path="url(#518b9f51bd)"><path fill="#ad3bce" d="M 25.648438 16.949219 C 25.457031 16.949219 25.28125 16.894531 25.125 16.785156 C 24.96875 16.675781 24.859375 16.527344 24.796875 16.347656 C 24.777344 16.296875 23.859375 13.699219 22.703125 10.589844 C 22.367188 10.621094 22.027344 10.644531 21.6875 10.652344 C 21.4375 10.660156 21.222656 10.578125 21.042969 10.40625 C 20.863281 10.234375 20.769531 10.023438 20.761719 9.773438 C 20.753906 9.527344 20.835938 9.3125 21.007812 9.128906 C 21.179688 8.949219 21.390625 8.855469 21.636719 8.847656 C 21.773438 8.847656 21.910156 8.839844 22.042969 8.832031 C 20.972656 6.003906 19.804688 3.066406 18.992188 1.378906 C 18.910156 1.210938 18.886719 1.035156 18.914062 0.851562 C 18.941406 0.667969 19.019531 0.507812 19.148438 0.371094 C 19.273438 0.234375 19.425781 0.148438 19.609375 0.105469 C 19.789062 0.0664062 19.96875 0.0820312 20.140625 0.148438 C 20.210938 0.179688 27.5625 3.085938 33.511719 2.75 C 33.890625 2.730469 34.167969 2.886719 34.351562 3.21875 C 34.535156 3.550781 34.515625 3.871094 34.292969 4.179688 C 34.246094 4.246094 33.121094 5.785156 31.015625 7.347656 C 29.070312 8.808594 26.90625 9.796875 24.527344 10.3125 C 25.59375 13.191406 26.425781 15.542969 26.5 15.75 C 26.546875 15.886719 26.5625 16.027344 26.542969 16.175781 C 26.523438 16.320312 26.46875 16.453125 26.386719 16.570312 C 26.300781 16.691406 26.195312 16.785156 26.0625 16.851562 C 25.933594 16.917969 25.796875 16.953125 25.648438 16.953125 Z M 21.488281 2.546875 C 22.238281 4.308594 23.097656 6.507812 23.886719 8.605469 C 26.011719 8.203125 28.019531 7.308594 29.886719 5.9375 C 30.464844 5.511719 31.007812 5.054688 31.523438 4.558594 C 27.6875 4.390625 23.78125 3.296875 21.488281 2.546875 Z M 21.488281 2.546875 " fill-opacity="1" fill-rule="nonzero"/></g><path fill="#ad3bce" d="M 7.25 41.296875 C 7.003906 41.300781 6.789062 41.214844 6.613281 41.042969 C 6.433594 40.867188 6.34375 40.65625 6.339844 40.40625 C 6.339844 40.15625 6.421875 39.945312 6.597656 39.765625 C 6.773438 39.589844 6.984375 39.496094 7.230469 39.496094 C 7.265625 39.496094 10.8125 39.40625 16.074219 38.609375 C 20.921875 37.875 28.253906 36.371094 35.675781 33.378906 C 49.929688 27.628906 56.425781 22.527344 56.488281 22.480469 C 56.683594 22.328125 56.902344 22.265625 57.148438 22.296875 C 57.394531 22.324219 57.59375 22.4375 57.75 22.628906 C 57.902344 22.824219 57.964844 23.042969 57.941406 23.289062 C 57.914062 23.535156 57.804688 23.734375 57.613281 23.890625 C 57.34375 24.109375 50.882812 29.195312 36.351562 35.054688 C 28.753906 38.113281 21.261719 39.648438 16.3125 40.398438 C 10.949219 41.207031 7.417969 41.296875 7.273438 41.296875 Z M 7.25 41.296875 " fill-opacity="1" fill-rule="nonzero"/></g></g></g></g><g mask="url(#d77db2da0b)"><g transform="matrix(1, 0, 0, 1, 0, 71)"><g clip-path="url(#0f0134cd80)"><g clip-path="url(#b5710bd7a8)"><path fill="#ad3bce" d="M 73.925781 14.804688 C 72.675781 14.929688 71.605469 15.527344 70.410156 15.746094 C 71.328125 12.332031 68.761719 9.433594 66.144531 7.59375 C 54.402344 -0.671875 26.5625 -0.5625 14.308594 6.546875 C 11.871094 7.957031 8.746094 10.460938 8.4375 13.453125 C 8.007812 17.644531 8.917969 24.8125 9.71875 29.054688 C 10.410156 32.71875 11.632812 36.167969 13.027344 39.609375 C 7.851562 41.101562 -0.835938 45.796875 0.0664062 52.203125 C 0.753906 57.109375 6.691406 60.796875 10.859375 62.621094 C 27.003906 69.6875 54.824219 69.738281 70.570312 61.582031 C 76.585938 58.472656 82.679688 52.3125 76.671875 45.757812 C 76 45.027344 75.171875 44.574219 74.421875 43.960938 C 74.191406 43.773438 74.210938 43.785156 74.265625 43.46875 C 78.835938 41.445312 83.195312 37.625 84.992188 32.859375 C 88.335938 23.976562 84.796875 13.714844 73.925781 14.804688 Z M 13.285156 9.617188 C 19.578125 4.625 33.253906 2.96875 41.125 3.199219 C 48.503906 3.417969 60.335938 5.074219 66.074219 10.074219 C 70.160156 13.640625 68.964844 16.757812 64.84375 19.460938 C 64.589844 19.625 63.308594 20.441406 63.171875 20.320312 C 67.164062 16.101562 64.375 11.886719 59.964844 9.671875 C 50.21875 4.78125 28.382812 4.789062 18.644531 9.671875 C 15.203125 11.398438 12.285156 14.558594 14.421875 18.566406 L 15.558594 20.320312 C 10.632812 17.640625 7.972656 13.828125 13.285156 9.617188 Z M 70.050781 24.429688 C 72.585938 22.207031 78.015625 20.558594 78.980469 25.132812 C 79.570312 27.941406 78.453125 30.472656 76.875 32.699219 C 74.410156 36.171875 70.5625 38.121094 66.308594 38.402344 C 68.25 33.949219 69.175781 29.183594 70.050781 24.429688 Z M 62.875 17.257812 C 61.742188 20.429688 56.605469 22.34375 53.582031 23.152344 C 44.660156 25.539062 25.183594 25.730469 17.730469 19.601562 C 12.730469 15.492188 17.441406 12.054688 21.640625 10.5 C 26.96875 8.523438 32.691406 8.144531 38.285156 7.859375 C 41.53125 7.695312 51.34375 8.355469 56.96875 10.5 C 59.648438 11.519531 64.144531 13.707031 62.875 17.257812 Z M 10.367188 19.242188 C 10.367188 19.085938 10.300781 18.84375 10.492188 18.878906 C 13.792969 22.609375 19.089844 24.066406 23.828125 25.074219 C 34.773438 27.40625 48.3125 27.269531 59.078125 24.0625 C 62.496094 23.042969 65.898438 21.636719 68.476562 19.121094 C 68.3125 23.90625 67.554688 28.941406 66.132812 33.527344 C 61.570312 48.21875 49.855469 57.652344 33.949219 54.71875 C 17.945312 51.773438 10.59375 33.96875 10.367188 19.242188 Z M 53.648438 55.511719 C 47.792969 60.226562 31.195312 59.984375 25.242188 55.472656 C 24.289062 54.75 23.507812 53.90625 23.996094 52.621094 C 32.839844 58.570312 46.09375 58.511719 54.976562 52.621094 C 55.226562 54.042969 54.679688 54.679688 53.648438 55.511719 Z M 74.875 56.246094 C 68.816406 62.628906 52.320312 65.527344 43.777344 65.890625 C 33.335938 66.335938 10.367188 64.164062 3.519531 55.253906 C -1.199219 49.117188 6.085938 44.367188 11.171875 42.214844 C 11.660156 42.007812 13.039062 41.40625 13.4375 41.328125 C 13.574219 41.300781 13.699219 41.261719 13.839844 41.3125 C 15.207031 43.34375 16.453125 45.558594 18.09375 47.4375 C 18.816406 48.269531 21.246094 50.257812 21.585938 50.9375 C 21.894531 51.558594 21.613281 52.941406 21.8125 53.84375 C 22.851562 58.582031 32.941406 60.570312 37.011719 60.820312 C 42.125 61.136719 53.984375 60.109375 56.714844 54.964844 C 57.46875 53.542969 56.816406 51.832031 57.265625 50.9375 C 57.546875 50.382812 59.097656 49.375 59.683594 48.773438 C 60.074219 48.371094 61.617188 46.234375 61.878906 46.148438 L 66.164062 45.851562 L 71.875 44.539062 C 76.621094 47.363281 79.355469 51.519531 74.875 56.246094 Z M 83.304688 31.890625 C 80.351562 39.664062 71.160156 44.167969 63.171875 44.183594 L 65.335938 40.441406 C 71.027344 40.21875 76.292969 37.570312 79.191406 32.597656 C 83.816406 24.652344 79.082031 16.742188 70.167969 22.011719 L 70.4375 17.945312 C 75.222656 15.363281 81.777344 16.613281 83.675781 22.121094 C 84.628906 24.890625 84.347656 29.144531 83.304688 31.890625 Z M 83.304688 31.890625 " fill-opacity="1" fill-rule="nonzero"/></g><path fill="#ad3bce" d="M 48.769531 10.503906 C 45.519531 10.058594 41.742188 10.632812 39.398438 13.082031 C 38.710938 12.730469 38.179688 12.125 37.453125 11.691406 C 35.304688 10.414062 32.292969 10.15625 29.84375 10.503906 C 26.785156 10.9375 24.15625 13.664062 26.175781 16.699219 C 27.714844 19.019531 32.855469 20.410156 35.445312 21.410156 C 36.945312 21.988281 38.675781 23.332031 40.28125 22.863281 C 40.714844 22.738281 41.234375 22.328125 41.71875 22.136719 C 44.558594 21.023438 50.191406 19.332031 52.1875 17.171875 C 55.058594 14.070312 52.210938 10.972656 48.769531 10.503906 Z M 51.371094 14.894531 C 51.050781 17.253906 42.046875 19.726562 40.039062 20.941406 L 39.542969 21.296875 C 36.507812 19.640625 32.25 18.6875 29.34375 16.90625 C 25.839844 14.757812 27.78125 12.59375 31.050781 12.195312 C 33.011719 11.960938 36.097656 12.585938 37.503906 14.050781 C 37.820312 14.378906 38.011719 14.773438 38.203125 15.152344 C 38.546875 15.839844 39.476562 15.953125 39.980469 15.375 C 40.453125 14.824219 40.957031 14.167969 41.230469 13.9375 C 43.15625 12.304688 46.363281 11.835938 48.773438 12.433594 C 49.941406 12.722656 51.570312 13.410156 51.375 14.894531 Z M 51.371094 14.894531 " fill-opacity="1" fill-rule="nonzero"/></g></g></g></svg>